<?xml version="1.0" encoding="UTF-8" standalone="no"?>
<svg
   width="731.5623"
   height="464.9056"
   viewBox="0 0 731.5623 464.9056"
   version="1.1"
   id="svg32"
   sodipodi:docname="black-cats-starbucks.svg"
   inkscape:version="1.3.2 (091e20e, 2023-11-25)"
   xmlns:inkscape="http://www.inkscape.org/namespaces/inkscape"
   xmlns:sodipodi="http://sodipodi.sourceforge.net/DTD/sodipodi-0.dtd"
   xmlns="http://www.w3.org/2000/svg"
   xmlns:svg="http://www.w3.org/2000/svg">
  <defs
     id="defs32" />
  <sodipodi:namedview
     id="namedview32"
     pagecolor="#ffffff"
     bordercolor="#000000"
     borderopacity="0.25"
     inkscape:showpageshadow="2"
     inkscape:pageopacity="0.0"
     inkscape:pagecheckerboard="0"
     inkscape:deskcolor="#d1d1d1"
     inkscape:zoom="1.497142"
     inkscape:cx="283.87421"
     inkscape:cy="247.13754"
     inkscape:window-width="1472"
     inkscape:window-height="805"
     inkscape:window-x="0"
     inkscape:window-y="38"
     inkscape:window-maximized="1"
     inkscape:current-layer="svg32" />
  <path
     d="m 568.4426,225.3766 c -4.8884,-1.7348 -9.5379,-5.5907 -14.033,-8.14 -2.8515,-1.6084 -6.6231,-2.3739 -9.8118,-2.88 -26.6119,-4.2422 -59.0183,6.0823 -80.6436,-14.637 -16.3156,-15.6342 -13.2463,-41.7265 -2.6409,-59.5451 a 56.8355,56.8355 0 0 1 14.6159,-16.3085 c 10.7038,-8.0981 23.4655,-10.156 30.2291,-22.9528 a 43.7,43.7 0 0 0 -9.91,-0.3582 c -0.5408,0.0422 -1.2151,-0.9832 -1.475,-1.3555 0.2669,-0.611 0.6813,-1.4328 1.475,-1.503 a 36.3538,36.3538 0 0 1 11.1322,0.59 l 1.5662,-2.7954 a 33.4211,33.4211 0 0 0 -13.4008,-2.3107 c -1.0324,-0.0211 -1.3415,-1.3064 -0.9692,-2.0719 a 14.1826,14.1826 0 0 1 5.1763,-0.6392 31.9283,31.9283 0 0 1 10.3034,2.381 l 0.7867,-1.8823 a 6.305,6.305 0 0 1 -0.576,-0.281 68.1742,68.1742 0 0 0 -10.5141,-4.0806 c -0.8428,-0.2388 -0.8288,-0.3582 -0.3723,-1.1027 0.5338,-0.8639 0.7937,-1.32 1.77,-1.1659 a 32.908,32.908 0 0 1 10.774,4.0385 c 2.7462,-6.6091 13.2182,-29.7936 20.08,-32.8067 1.8332,0.6672 2.8305,0.7726 4.2,2.62 2.4863,3.3572 4.207,7.5432 6.3913,11.076 a 4.4008,4.4008 0 0 0 3.4135,1.5522 c 5.78,0.2669 11.1041,0.2809 16.8142,1.5452 a 1.6944,1.6944 0 0 0 2.1351,-0.8288 c 2.7954,-3.7224 5.3941,-7.3255 9.0744,-10.3175 a 2.9136,2.9136 0 0 1 4.1017,0.5268 c 3.8,3.9612 5.5626,10.1278 6.8479,15.3533 a 108.434,108.434 0 0 1 2.9077,24.7227 31.0367,31.0367 0 0 1 12.0734,1.0114 1.6189,1.6189 0 0 1 1.3415,1.5943 c 0.1053,1.3836 0,1.65 -1.3415,1.2783 -2.88,-0.8007 -10.3105,-2.8094 -12.6142,-0.3582 -0.5268,0.5618 1.2151,1.1237 1.4047,1.1307 5.1061,0.33 10.6335,2.0088 14.6018,5.24 -0.1615,1.1237 -1.1308,1.9806 -1.9876,1.6294 a 74.816,74.816 0 0 0 -8.4142,-3.3291 c -2.2124,-0.597 -3.6452,-0.7305 -5.3448,0.014 -0.2318,0.9061 -0.3372,2.1773 0.4424,2.4512 4.1018,1.4258 7.9577,2.683 11.5747,5.2114 -0.19,0.8288 -0.7936,1.91 -1.7628,1.9245 a 1.4412,1.4412 0 0 1 -0.7024,-0.19 46.5442,46.5442 0 0 0 -9.7978,-4.27 c -1.6856,20.0731 -5.8084,40.0268 -13.6044,58.639 a 92.137,92.137 0 0 1 -6.0473,11.9189 13.328,13.328 0 0 1 -0.8639,1.2291 c -19.2794,-4.6776 -38.5027,-0.0492 -57.9859,-0.1334 a 36.6653,36.6653 0 0 1 -21.8149,-7.0867 c -0.5268,0.3441 -2.4091,1.7769 -1.6856,2.8234 a 32.1153,32.1153 0 0 0 16.4911,7.1569 c 15.7748,2.3529 32.4485,-1.5381 48.3567,-1.1939 15.5711,0.3371 35.2579,4.8883 39.0155,22.433 a 13.9273,13.9273 0 0 1 -1.8542,9.7977 c -3.7645,6.5667 -12.5439,6.953 -18.9282,4.6352 z m 3.4906,-149.7758 c 1.84,0.3793 3.9121,1.1729 5.6469,0.1264 a 2.0743,2.0743 0 0 0 0.4285,-2.8375 c -0.78,-1.4679 -1.5382,-3.9963 -3.287,-4.3686 -1.7067,-0.3722 -4.8181,2.5215 -5.0288,4.3967 a 2.4676,2.4676 0 0 0 2.2404,2.683 z m -44.283,-6.23 c 0.1334,2.6408 5.0358,2.7461 7.1429,2.2615 1.5451,-0.33 1.91,-1.06 2.5354,-2.2475 a 12.8871,12.8871 0 0 0 -3.3642,-5.4994 2.2057,2.2057 0 0 0 -1.2713,-0.7093 1.8736,1.8736 0 0 0 -1.4047,0.7093 c -1.6364,1.5524 -3.61,3.1746 -3.6383,5.4856 z m 34.4712,35.1876 a 66.1233,66.1233 0 0 0 11.2165,3.94 c 0.8148,-0.4425 1.0957,-1.8893 0,-2.2686 -3.1886,-1.187 -6.3281,-2.5074 -9.51,-3.7084 3.1536,-1.3766 6.2931,-2.9779 9.51,-4.179 1.1308,-0.4284 0.7516,-1.798 0,-2.2194 -3.9753,1.1168 -9.9312,2.5074 -12.8881,5.9349 a 3.915,3.915 0 0 0 1.6716,2.5007 z m -13.3165,2.2124 a 1.5215,1.5215 0 0 0 2.1071,-0.1194 c 0.3652,-0.3792 4.3756,-2.3247 2.7391,-3.294 -2.5074,-1.489 -5.4291,-2.0087 -8.1543,-0.4284 a 16.01,16.01 0 0 0 3.3081,3.842 z M 545.6724,94.248 c 0.8428,1.3063 2.1492,3.4976 3.8559,3.7716 1.6435,0.2669 2.5566,-1.1027 3.9613,-2.0017 0.618,-0.4 0.899,-1.5241 0.2247,-1.9174 -1.805,-1.0042 -6.9954,-2.7671 -8.0419,0.1477 z m -20.7754,6.0893 a 95.1725,95.1725 0 0 0 11.9961,-0.0772 2.0887,2.0887 0 0 0 1.5732,-1.44 c 0.2459,-0.611 0.4987,-1.5241 -0.0842,-2.107 -2.7111,-2.7111 -5.5837,-5.2606 -8.4985,-7.761 a 1.3134,1.3134 0 0 0 -1.3976,-0.2809 c -0.52,0.1475 -0.8569,1.04 -1.0255,1.3907 a 9.5074,9.5074 0 0 0 0.9763,1.0816 c 2.5074,2.2334 5.0148,4.4739 7.55,6.6793 -3.4344,0.07 -6.8689,0.2388 -10.3034,0.3161 -1.2851,0.0354 -1.25,1.5244 -0.7864,2.1986 z"
     style="display:inline;fill:#040203"
     id="path4"
     transform="matrix(0.56086158,0,0,0.56086158,153.38909,35.665758)" />
  <path
     d="m 504.3134,294.31899 c -14.4096,-3.89978 -29.00434,-7.16932 -43.67003,-9.93846 1.2606,-6.1452 2.2296,-12.38489 3.96681,-18.41971 2.22959,-7.74056 7.78779,-18.17158 8.67412,-25.55364 a 19.559487,19.559487 0 0 0 -0.41364,-6.45635 14.985268,14.985268 0 0 0 -4.71914,0.44123 c -0.43333,0.11026 -0.83114,-0.20881 -1.14237,-0.47275 1.45751,-1.26447 3.89193,-1.29206 5.75125,-1.12268 l -0.0785,-1.1975 a 14.041843,14.041843 0 0 0 -6.04665,0.0827 l -0.21666,-1.07932 c 0.13393,0.12995 0.37017,-0.0788 0.55525,-0.11817 a 15.911643,15.911643 0 0 1 5.69611,-0.0867 l 0.12995,-0.70108 c 0.0827,0.0785 -0.21666,-0.0785 -0.32692,-0.11817 a 11.930704,11.930704 0 0 0 -3.92738,-0.7091 c -0.6027,0.0785 -0.51212,-0.81146 -0.41364,-1.08723 a 11.381957,11.381957 0 0 1 4.71915,0.70108 c 0.65789,-6.33421 6.66516,-19.77088 12.19975,-23.30431 a 2.7810321,2.7810321 0 0 1 1.51657,1.03603 43.950852,43.950852 0 0 1 4.95555,9.04047 1.3053492,1.3053492 0 0 0 0.60264,0.59086 26.565938,26.565938 0 0 1 9.43442,3.59255 0.96810317,0.96810317 0 0 0 0.78784,0.0393 c 3.39165,-1.68988 6.94089,-2.65893 10.61223,-3.53741 a 1.388525,1.388525 0 0 1 1.11085,0.13001 1.1139833,1.1139833 0 0 1 0.51206,0.75632 c 0.77209,7.83523 -2.43049,16.40677 -6.14906,23.1389 a 15.227728,15.227728 0 0 1 3.95099,2.21384 l -0.70511,0.8469 a 17.594228,17.594228 0 0 0 -3.77769,-2.02079 c -0.22849,-0.0866 -0.29165,0.38997 -0.43747,0.5833 a 15.710742,15.710742 0 0 1 4.43159,3.75009 l -0.66967,0.85873 a 16.018599,16.018599 0 0 0 -4.56541,-3.57678 l -0.83905,0.85481 a 13.556024,13.556024 0 0 1 3.78582,3.8368 l -0.74034,0.59451 a 3.8669162,3.8669162 0 0 1 -0.48851,-0.42149 14.142181,14.142181 0 0 0 -3.28132,-2.99775 7.359233,7.359233 0 0 0 -2.29656,4.56951 c -0.53966,3.48222 4.22284,17.75396 5.25095,22.40642 1.61528,7.2912 0.92178,15.42986 -2.75349,22.00821 a 6.9502528,6.9502528 0 0 1 -0.64606,0.93754 c -0.11469,-0.0316 -0.22889,-0.0593 -0.33921,-0.0907 z m -23.97789,-61.8494 a 6.5215302,6.5215302 0 0 0 3.92737,0.90994 c 1.54024,-0.17723 2.26504,-1.55992 2.57997,-2.93471 -1.31573,0.75633 -2.91503,0.74455 -3.80136,-0.66966 -1.27237,-2.02471 -0.13,-4.44764 1.74899,-5.60941 a 5.3674453,5.3674453 0 0 0 -6.34603,2.49348 c -1.20126,2.0799 -0.0983,4.67585 1.89106,5.81036 z m 16.90307,6.49966 a 6.2855757,6.2855757 0 0 0 3.91953,0.66181 c 1.70171,-0.3309 2.54474,-1.24477 3.26163,-2.75349 l -0.50023,-0.0473 a 2.4203421,2.4203421 0 0 1 -3.1908,-0.76025 3.014014,3.014014 0 0 1 -0.61448,-2.33991 4.0896905,4.0896905 0 0 1 1.81989,-3.00168 4.9539221,4.9539221 0 0 0 -5.50307,1.82779 c -0.81145,1.04388 -1.72139,2.54071 -1.42991,3.9156 a 3.5446452,3.5446452 0 0 0 2.23744,2.49741 z m 11.79004,-13.87011 c 0.24426,0.1576 0.48846,0.31515 0.73664,0.47673 a 10.560182,10.560182 0 0 0 1.34719,-4.03377 c 0.16545,-0.89026 -0.14964,-1.22111 -0.51207,-1.85926 -1.61904,0.29541 -4.2898,0.74034 -5.25095,2.23745 a 20.209694,20.209694 0 0 0 3.67919,3.17902 z m -19.99931,10.91953 c 0.51207,0.7248 0.47673,0.56327 1.13445,0.53966 a 3.5662944,3.5662944 0 0 0 2.23358,-1.17781 c -1.11483,-0.89026 -2.57626,-1.71355 -4.01409,-1.3629 a 2.8764908,2.8764908 0 0 0 0.64606,2.00122 z"
     style="display:inline;fill:#040203;stroke-width:0.560862"
     id="path10" />
  <g
     id="g10">
    <path
       d="m 234.1457,148.9049 c -6.3984,-3.6171 -9.2218,-11.8065 -12.8249,-17.8186 a 5.2879,5.2879 0 0 0 -3.9963,-2.1772 c -8.0981,-0.66 -15.7186,-0.1616 -23.8237,-1.6154 a 2.0459,2.0459 0 0 0 -2.1,0.4635 c -4.01,5.31 -7.4449,10.7038 -12.6142,15.0864 -1.4538,1.2292 -3.47,0.7937 -4.9094,-0.2668 -10.4018,-7.6416 -14.7774,-41.3262 -15.1,-53.9474 a 43.2973,43.2973 0 0 1 -13.6256,-0.5057 c -2.3388,-0.4144 -3.14,-1.0676 -5.0147,-2.2194 0.2107,-0.4074 1.1869,-2.367 2.2054,-2.1844 5.5485,0.9974 10.8442,1.7138 16.4981,1.0746 l -0.0632,-2.402 A 50.0547,50.0547 0 0 1 141.654,78.3048 c -1.784,-0.7585 -4.172,-1.6435 -4.0034,-3.9963 a 2.7556,2.7556 0 0 1 2.5916,-0.7867 c 6.0753,2.5074 11.9119,5.05 18.6333,4.8743 a 13.5647,13.5647 0 0 1 0.1475,-4.0595 47.8934,47.8934 0 0 1 -11.062,-3.7014 c -2.43,-1.1659 -3.8348,-1.8963 -5.1131,-4.0526 0.3091,-0.9832 1.2924,-2.1351 2.2967,-1.6224 a 60.5678,60.5678 0 0 0 13.9346,5.5275 278.7571,278.7571 0 0 1 8.8,-57.15 13.7359,13.7359 0 0 1 1.7981,-0.45 A 1306.9774,1306.9774 0 0 1 338.4937,0 c -1.7138,15.0162 -7.473,30.2642 -17.025,42.05 a 78.863,78.863 0 0 1 -14.1242,14.0048 c -8.6319,6.3984 -19.1671,9.7205 -27.63,16.3648 -4.6566,3.6592 -7.9716,9.278 -10.7951,14.377 a 61.4116,61.4116 0 0 0 13.5834,0.2248 c 0.9412,-0.0562 1.5733,1.32 1.6084,1.9876 a 2.1663,2.1663 0 0 1 -0.8428,1.4469 3.5931,3.5931 0 0 1 -1.4679,0.3933 c -4.6987,0.4706 -9.278,-0.4284 -13.9908,-0.2739 -1.32,0.0421 -1.8963,2.7532 -2.3529,3.7716 5.9208,2.2615 12.1647,2.388 18.4507,2.5706 0.7937,0.021 1.2362,1.3625 1.3064,1.9033 a 1.8,1.8 0 0 1 -1.3064,1.6927 c -6.3,1.208 -13.7309,-0.3863 -19.6236,-2.4933 -0.33,-0.1194 -0.4425,0.5337 -0.66,0.8006 -0.7726,0.9412 -0.1967,1.1449 -0.0421,1.8683 a 58.0114,58.0114 0 0 0 14.0182,4.7053 c 0.274,0.0562 0.8569,0.85 0.9552,1.1308 a 1.9165,1.9165 0 0 1 -1.6575,2.4723 14.42,14.42 0 0 1 -3.5047,-0.66 43.7108,43.7108 0 0 1 -11.7995,-4.474 c -5.9419,15.7748 -13.05,33.2562 -25.3407,44.9082 a 1.8727,1.8727 0 0 1 -2.1071,0.1332 z M 204.7173,85.23 c 3.5047,1.8753 7.5643,2.6057 10.746,0.0843 a 4.8889,4.8889 0 0 0 -0.597,-1.2151 c -0.8429,-1.1448 -2.4512,-3.4555 -3.863,-3.7856 -2.5354,-0.59 -4.3194,1.1237 -6.2649,3.14 -0.9341,0.9546 -1.201,1.1513 -0.0211,1.7764 z m -28.01,21.0915 a 14.9559,14.9559 0 0 0 20.8878,-4.01 c 4.3265,-6.897 2.9358,-16.1119 -4.1017,-20.7895 a 14.973419,14.973419 0 1 0 -16.7861,24.8 z m 46.98,5.4713 a 15.0088,15.0088 0 0 0 10.4579,2.5 14.9853,14.9853 0 1 0 -16.7152,-11.9747 14.7376,14.7376 0 0 0 6.2578,9.4747 z m -47.0007,20.9792 a 1.5842,1.5842 0 0 0 2.1,0.0562 c 1.4679,-1.173 6.3773,-4.27 5.6539,-6.6583 -1.06,-3.4977 -6.44,-4.3124 -9.8609,-3.42 -0.4847,0.1264 -1.5452,0.7093 -1.6927,1.2993 -0.8077,3.104 1.7137,6.4753 3.7997,8.7228 z m 56.8973,5.8435 a 2.7725,2.7725 0 0 0 1.9665,-0.3722 25.3694,25.3694 0 0 0 4.7058,-5.0991 c 1.18,-1.4679 0.8077,-2.6478 0.59,-4.1509 a 9.9133,9.9133 0 0 0 -5.2957,-1.9665 c -1.812,-0.1546 -7.1148,-0.1124 -7.3676,2.6267 -0.0352,3.6874 2.8093,6.6302 5.401,8.962 z"
       style="display:inline;fill:#040203"
       id="path3"
       transform="matrix(0.56086158,0,0,0.56086158,153.38909,35.665758)" />
    <path
       d="m 181.6873,102.8589 c 1.51,-1.4047 1.0535,-3.6873 -0.1334,-5.05 a 4.909,4.909 0 0 0 -4.3054,-1.0255 11.2632,11.2632 0 0 1 1.4679,-8.4633 8.0484,8.0484 0 0 1 5.682,-3.8067 c 4.2843,-0.5619 8.2947,3.0131 8.7653,7.3044 0.52,4.8111 -1.32,9.264 -5.984,11.1814 -1.8261,0.7517 -3.6382,0.2531 -5.4924,-0.1403 z"
       style="display:inline;fill:#040203"
       id="path19"
       transform="matrix(0.56086158,0,0,0.56086158,153.38909,35.665758)" />
    <path
       d="m 228.6744,108.2389 c 0.8569,-2.0789 1.6225,-3.0973 0.6813,-5.2184 -1.1378,-1.5733 -4.0666,-2.1773 -5.4432,-1.37 a 11.4219,11.4219 0 0 1 2.1281,-8.4212 7.5409,7.5409 0 0 1 10.8935,-1.4538 c 3.7365,2.8094 4.0244,8.8074 1.9314,12.6423 a 7.9623,7.9623 0 0 1 -10.1911,3.8211 z"
       style="display:inline;fill:#040203"
       id="path13"
       transform="matrix(0.56086158,0,0,0.56086158,153.38909,35.665758)" />
  </g>
  <g
     id="g9">
    <path
       d="M 437.272,93.911 C 433.6549,89.2685 430.1431,78.8667 424.742,76.57 A 307.08,307.08 0 0 1 396.7042,62.53 c -5.8435,-3.21 -15.9222,-0.3582 -22.3838,-0.906 a 4.5186,4.5186 0 0 1 -3.54,-1.9807 4.0931,4.0931 0 0 1 -0.2037,-4.2632 c 2.9148,-5.4011 6.5108,-10.0928 8.077,-16.14 2.1422,-8.2456 2.1914,-16.5965 5.9279,-24.4347 a 53.669,53.669 0 0 1 -13.78,-7.2553 5.0712,5.0712 0 0 1 -2.1984,-2.6408 c -0.2388,-0.9482 0.878,-1.5452 1.5031,-1.84 a 1.5077,1.5077 0 0 1 1.3976,0.302 45.2514,45.2514 0 0 0 14.0189,7.8031 c 0.9131,0.316 1.6224,-1.2081 1.777,-1.9034 A 54.0038,54.0038 0 0 1 374.6084,0.2318 c 6.23,-0.6813 9.4255,3.2659 14.7915,5.9489 a 12.4655,12.4655 0 0 1 2.4231,-3.0623 q -1.6857,-1.2009 -3.3643,-2.4161 c -0.8428,-0.5969 0.2318,-0.5548 1.2643,-0.5337 43.51,1.0043 87.0069,4.4529 130.2084,9.5589 a 149.0072,149.0072 0 0 1 -14.047,18.3032 c -7.7188,8.4914 -16.6667,15.81 -25.3759,23.2407 a 74.2049,74.2049 0 0 0 13.64,2.3037 c 0.92,0.07 1.194,1.1449 1.3134,1.791 0.1967,1.0184 -1.1588,1.8753 -2.0157,1.8472 -5.2817,-0.1756 -10.3245,-1.5943 -15.4376,-2.9077 -1.25,-0.3231 -2.7673,1.7769 -3.54,2.6268 5.8717,3.9612 12.7547,5.4713 19.68,6.4967 1.11,0.19 0.9342,1.6856 0.7516,2.4512 -3.9051,1.1448 -7.6837,0.4 -11.961,-0.8779 a 41.7358,41.7358 0 0 1 -11.4834,-5.5135 l -1.1378,1.5873 c 0.6672,0.6743 1.37,1.3064 2.1,1.9174 4.1438,3.4626 9.1867,5.675 14.1593,7.6837 a 1.7572,1.7572 0 0 1 0.5619,2.6057 c -1.9244,1.6927 -4.9375,-0.2388 -7.0024,-1.1729 a 41.934,41.934 0 0 1 -12.558,-8.47 100.21,100.21 0 0 0 -8.8355,10.6617 c -3.8981,5.4572 -6.37,11.7081 -10.156,17.2215 -1.7067,2.4793 -4.0455,4.79 -7.0094,5.2466 -2.1079,0.1682 -3.0206,-1.2365 -4.3059,-2.8589 z M 428.97,35.293 a 4.0249,4.0249 0 0 0 2.093,-0.6251 18.1392,18.1392 0 0 0 -2.8234,-6.89 14.6789,14.6789 0 0 0 -6.279,0.4425 3.7622,3.7622 0 0 0 -1.77,1.6435 13.4615,13.4615 0 0 0 8.7794,5.4291 z M 379.4827,54.53 c 1.9806,1.5593 4.0245,1.8332 6.7426,1.187 a 1.5975,1.5975 0 0 0 1.0675,-1.7488 9.1455,9.1455 0 0 0 -5.6188,-6.574 7.5926,7.5926 0 0 0 -2.1913,7.1358 z m 17.2708,-14.5737 c 5.2114,2.5074 12.6633,2.0228 15.74,-3.5258 a 10.6076,10.6076 0 0 0 0.99,-8.393 12.89,12.89 0 0 0 -6.9462,-7.74 c -5.1693,-2.395 -12.6,-1.3837 -15.3534,4.2422 a 10.7525,10.7525 0 0 0 -0.604,8.393 12.5991,12.5991 0 0 0 6.1736,7.0239 z M 436.71,60.5916 c 2.95,1.496 6.5669,2.2475 9.77,1.0746 2.8305,-1.0465 5.373,-2.704 6.5881,-5.6047 a 10.5661,10.5661 0 0 0 0.0281,-8.3931 12.8062,12.8062 0 0 0 -7.3115,-7.0165 c -5.5626,-1.9384 -12.874,-0.4354 -15.0934,5.6188 a 11.7211,11.7211 0 0 0 6.0187,14.3209 z m 4.2,26.9913 a 2.2585,2.2585 0 0 0 1.3766,0.7936 8.5067,8.5067 0 0 0 1.4047,-0.6532 c 1.3345,-1.0113 5.4854,-4.4669 4.467,-6.4265 -1.3415,-2.5916 -4.5091,-2.6057 -7.2693,-2.4652 -1.1589,0.0562 -2.8516,0.597 -3.2519,1.8191 -0.8287,2.5144 1.5029,4.9093 3.2729,6.9322 z"
       style="display:inline;fill:#040203"
       id="path1"
       transform="matrix(0.56086158,0,0,0.56086158,153.38909,35.665758)" />
    <path
       d="m 399.2187,36.93 a 3.0369,3.0369 0 0 0 0.1335,-3.287 4.183,4.183 0 0 0 -4.3335,-1.2783 7.3826,7.3826 0 0 1 4.53,-8.7793 7.3042,7.3042 0 0 1 9.3834,4.4529 6.993,6.993 0 0 1 -0.4425,5.5766 7.3841,7.3841 0 0 1 -9.2709,3.3151 z"
       style="display:inline;fill:#040203"
       id="path14"
       transform="matrix(0.56086158,0,0,0.56086158,153.38909,35.665758)" />
    <path
       d="m 439.3228,57.712 a 3.1232,3.1232 0 0 0 -0.5267,-3.7506 3.5,3.5 0 0 0 -3.884,-0.7936 c -0.6532,-3.54 0.7234,-7.768 4.5793,-8.9269 a 7.4721,7.4721 0 0 1 9.2359,4.13 6.798,6.798 0 0 1 -0.5268,6.272 7.5756,7.5756 0 0 1 -8.8777,3.0691 z"
       style="display:inline;fill:#040203"
       id="path15"
       transform="matrix(0.56086158,0,0,0.56086158,153.38909,35.665758)" />
  </g>
  <g
     id="g8"
     transform="translate(2.0038179,0.66793931)">
    <path
       d="m 39.4828,181.5009 c -11.9469,-15.9012 -20.6,-34.5836 -23.1986,-54.3758 a 35.3872,35.3872 0 0 1 -11.2937,1.5381 c -0.7656,-0.0772 -1.25,-0.8639 -1.489,-1.503 0.295,-0.5549 0.7515,-1.3274 1.489,-1.3415 a 41.5671,41.5671 0 0 0 10.8723,-1.5873 l 0.52,-1.3977 c -0.295,-0.2388 -0.59,-0.4846 -0.885,-0.7234 a 31.04,31.04 0 0 1 -10.5071,0.1335 15.3984,15.3984 0 0 1 -4.98,-1.5944 c -0.0843,-0.92 0.3161,-2.2053 1.475,-1.9876 4.9515,0.9482 9.7345,1.4117 14.7422,0.4144 l 0.274,-3.1465 a 34.1811,34.1811 0 0 1 -13.6186,-1.8542 2.0222,2.0222 0 0 1 -0.906,-0.892 c 0.0632,-0.9412 0.7726,-1.9455 1.6084,-1.791 4.5371,0.8077 8.6108,2.0017 13.3025,1.58 2.2545,-8.7373 2.697,-17.7905 0.007,-26.4294 C 12.5688,72.672 7.4768,58.9832 2.764,45.2383 Q 56.7888,32.5117 111.354,22.3206 c -4.65,15.2691 -9.587,30.4468 -14.3911,45.6667 -2.17,6.855 -0.0351,14.9109 4.6917,20.2 a 53.3573,53.3573 0 0 0 10.177,-8.59 1.8721,1.8721 0 0 1 1.5944,0.9973 c 0.1966,0.5689 0.3371,0.8428 -0.1265,1.4047 a 42.546,42.546 0 0 1 -9.6362,8.5195 l 2.0509,2.395 a 38.0228,38.0228 0 0 0 11.8345,-8.4844 l 1.6295,0.4987 c 0.07,0.4214 0.1334,0.85 0.2107,1.2783 -2.95,4.0455 -7.487,7.1639 -12.0242,9.3061 a 2.1236,2.1236 0 0 0 2.7392,1.2853 c 2.5916,-1.3485 5.2184,-2.381 7.7117,-3.9683 a 3.4926,3.4926 0 0 1 1.1308,-0.3933 c 1.0114,0.4425 1.6084,1.5171 1.0255,2.24 -2.1,2.5987 -6.75,4.0806 -9.8048,5.1693 9.4536,18.31 15.5148,39.2753 13.773,59.9384 a 3.01,3.01 0 0 1 -1.2221,1.91 3.9455,3.9455 0 0 1 -2.8023,0.3512 c -9.4747,-2.367 -18.6825,-5.1553 -27.3284,-9.7767 a 1.6828,1.6828 0 0 0 -1.4047,-0.2318 c -3.9121,1.84 -7.7961,4.0315 -11.9118,5.5766 -4.4319,1.6646 -9.4045,2.388 -14.0119,3.3221 a 2.7219,2.7219 0 0 0 -1.77,1.6576 c -3.1044,7.5783 -7.7048,14.3349 -12.4035,21.0143 -1.5311,2.17 -2.4652,3.3361 -4.7619,4.1227 -2.8162,0.6049 -5.4149,-4.3116 -6.8407,-6.229 z m 17.5025,-68.6686 a 2.2345,2.2345 0 0 0 2.6619,1.4328 c 2.9991,-0.6883 6.2509,-1.6154 8.056,-4.2282 -1.6365,-1.2712 -5.1763,-3.5328 -7.3045,-2.4652 -1.9946,0.9973 -2.5144,3.1535 -3.4134,5.2606 z M 34.447,136.74 c 2.992,2.0579 6.1315,3.2941 9.7767,2.7392 a 10.21,10.21 0 0 0 6.8619,-4.2352 c 3.1957,-4.8672 3.4415,-12.67 -0.2318,-17.4884 a 7.7551,7.7551 0 0 0 -6.6231,-2.7743 c -6.6372,0.2318 -15.0513,5.099 -14.8125,12.572 a 11.5612,11.5612 0 0 0 5.0288,9.1867 z m 47.6543,-14.77 a 10.7542,10.7542 0 0 0 9.0744,1.3767 12.23,12.23 0 0 0 7.41,-7.0235 c 1.3837,-3.1606 1.6787,-7.3536 0.0422,-10.4861 a 10.2073,10.2073 0 0 0 -6.0472,-5.2746 c -5.8366,-1.7067 -13.3728,0.0983 -16.9407,5.2886 a 7.73,7.73 0 0 0 -0.4425,6.9814 c 1.3974,3.5607 3.5536,7.0795 6.9038,9.1375 z m -36.4659,52.4934 c 0.4425,0.4425 1.5592,0.9411 2.1913,0.1053 a 48.3969,48.3969 0 0 0 6.6723,-10.5773 c 0.2739,-0.576 0.1264,-0.8148 -0.0983,-1.3977 -0.07,-0.19 -0.8288,-1.0254 -1.0606,-1.0535 a 40.5375,40.5375 0 0 0 -11.9118,-0.0773 5.5065,5.5065 0 0 0 -1.8612,0.7937 22.6329,22.6329 0 0 0 6.0683,12.2068 z m 67.2779,-22.2785 a 4.7355,4.7355 0 0 0 1.9947,-0.1686 18.3326,18.3326 0 0 0 -2.8656,-14.7493 c -3.9682,1.58 -7.3887,4.8041 -10.4509,7.6837 a 1.976,1.976 0 0 0 -0.66,1.5241 1.5754,1.5754 0 0 0 0.7445,1.4187 40.8223,40.8223 0 0 0 11.2373,4.2914 z"
       style="display:inline;fill:#040203"
       id="path5"
       transform="matrix(0.56086158,0,0,0.56086158,153.38909,35.665758)" />
    <path
       d="m 40.0236,134.3382 c -3.14,-2.4863 -4.0947,-7.1991 -3.21,-10.9917 a 4.15,4.15 0 0 1 3.2238,-3.2379 c 4.0244,-0.9973 7.1288,3.6663 8.5475,6.6934 a 2.95,2.95 0 0 0 -3.315,2.8445 c -0.2037,1.65 1.812,2.978 3.294,2.9218 0.4354,-0.0211 -0.576,0.6461 -0.8288,0.9973 a 5.6543,5.6543 0 0 1 -2.8021,1.9944 5.6006,5.6006 0 0 1 -4.9094,-1.2218 z"
       style="display:inline;fill:#040203"
       id="path16"
       transform="matrix(0.56086158,0,0,0.56086158,153.38909,35.665758)" />
    <path
       d="m 84.18,119.35 c -2.95,-2.1632 -4.1228,-6.5459 -3.4626,-10.0155 0.3582,-1.8963 1.0746,-3.3151 2.7953,-4.0455 a 4.9959,4.9959 0 0 1 4.8462,0.7655 11.9938,11.9938 0 0 1 4.3827,6.0683 3.6443,3.6443 0 0 0 -3.42,2.8235 3.589,3.589 0 0 0 2.711,3.5328 c -2.2406,2.3038 -5.1342,2.8727 -7.8526,0.8709 z"
       style="display:inline;fill:#040203"
       id="path18"
       transform="matrix(0.56086158,0,0,0.56086158,153.38909,35.665758)" />
  </g>
  <g
     id="g7">
    <path
       d="m 679.1538,139.2406 a 3.2043,3.2043 0 0 1 -1.7067,-1.18 c -3.2168,-5.071 -4.8392,-11.2938 -6.1315,-17.0741 a 164.9893,164.9893 0 0 1 -20.1926,-6.0543 c -1.7909,-0.6883 -4.1789,-0.9271 -5.5907,0.4214 -4.1087,3.9121 -8.1753,7.5854 -13.33,10.0647 -1.7559,0.8428 -3.4767,0.913 -4.5512,-0.6743 -5.1693,-7.5643 -6.63,-34.4431 -6.7566,-44.2479 a 48.1856,48.1856 0 0 1 -13.2182,-0.1756 c -1.3485,-0.1545 -1.6716,-0.7515 -1.91,-1.8261 -0.2248,-0.9763 1.2782,-1.6646 1.91,-1.58 a 49.8141,49.8141 0 0 0 12.8881,0.3231 2.9679,2.9679 0 0 0 0.0491,-2.3248 36.8547,36.8547 0 0 1 -17.664,-4.3335 2.0158,2.0158 0 0 1 0.4635,-1.9806 c 0.4074,-0.3723 0.899,-0.7937 1.4609,-0.5478 a 38.13,38.13 0 0 0 15.6483,3.4766 c 0.0141,-1.784 0.0773,-2.6619 -0.9341,-3.9894 -4.4178,-0.85 -9.7135,-1.8752 -12.7266,-5.1622 -0.73,-0.9061 0.7094,-1.84 1.5171,-2.1141 a 60.8632,60.8632 0 0 0 9.8118,3.589 11.0477,11.0477 0 0 0 1.7278,0.2669 c -0.6321,-5.7733 -1.9315,-11.673 -5.2957,-16.449 -6.6793,-9.4677 -15.4166,-16.737 -20.6139,-27.2722 43.665,7.4589 87.035,16.5052 130.11,26.8086 a 251.0749,251.0749 0 0 1 -8.6389,36.8312 c 4.4389,0.8077 9.0112,0.3371 13.436,-0.1334 1.194,-0.1194 1.1027,1.6645 1.0816,2.3037 -2.992,2.9568 -11.2657,1.7558 -15.1005,1.2361 a 9.1679,9.1679 0 0 0 -1.5522,3.4907 c 5.57,1.6716 11.1884,1.7558 16.9687,1.4679 0.9693,-0.007 1.4258,1.3274 1.187,2.2124 -2.2124,1.3134 -4.0666,1.3976 -6.7917,1.4257 a 33.2092,33.2092 0 0 1 -12.3754,-2.0719 l -1.0043,2.0579 a 42.2313,42.2313 0 0 0 13.38,4.01 c 0.9552,0.1335 1.3064,0.7866 1.5943,1.5873 0.33,0.9412 -0.9692,1.6224 -1.5943,1.7559 a 3.8052,3.8052 0 0 1 -1.3977,-0.1475 44.071,44.071 0 0 1 -13.0637,-4.0526 129.1706,129.1706 0 0 1 -13.5775,25.2497 c -4.01,5.689 -8.54,11.16 -14.7071,14.4683 a 4.9159,4.9159 0 0 1 -2.8091,0.3442 z M 664.0954,79.5129 c 2.388,2.2264 4.86,2.9288 8.056,3.2238 1.3836,0.1334 1.503,-0.6322 1.9736,-1.44 -0.583,-1.7839 -1.6576,-3.8 -3.4064,-4.5582 -2.676,-0.2036 -4.6145,1.0536 -6.6232,2.7744 z m -24.8631,17.2637 a 13.3221,13.3221 0 0 0 9.0884,2.093 c 6.876,-1.0184 12.3964,-7.7048 11.2235,-14.7634 a 13.5523,13.5523 0 0 0 -5.6328,-9.1235 13.24,13.24 0 0 0 -18.31,3.5118 13.0822,13.0822 0 0 0 3.6312,18.2821 z m 39.2542,8.92 a 12.932,12.932 0 0 0 9.7767,2.978 13.39,13.39 0 0 0 8.969,-4.9726 12.6758,12.6758 0 0 0 2.7041,-9.7908 13.1453,13.1453 0 0 0 -23.4725,-6.293 c -4.3616,5.4079 -3.2238,13.7377 2.0227,18.0782 z m -46.32,11.3851 c 0.6531,0.2248 1.32,0.7024 2.1421,0.1334 1.7278,-1.0184 6.8549,-3.28 6.1807,-5.7662 -0.899,-3.3081 -6.4265,-5.1693 -9.6854,-4.2141 a 2.2144,2.2144 0 0 0 -1.44,2.093 14.3452,14.3452 0 0 0 2.8028,7.7537 z m 48.3356,12.6212 a 1.5268,1.5268 0 0 0 2.1562,0.1545 c 1.6365,-1.4257 6.1174,-3.8769 4.9024,-6.5107 -2.1773,-1.8753 -5.5064,-3.09 -8.4071,-2.1422 -0.5549,0.19 -1.5171,0.7445 -1.6505,1.44 -0.4774,2.4719 1.454,5.1755 2.9992,7.0582 z"
       style="display:inline;fill:#040203"
       id="path2"
       transform="matrix(0.56086158,0,0,0.56086158,153.38909,35.665758)" />
    <path
       d="m 645.5183,94.1288 c -3.9964,0.2036 -6.2369,-4.6355 -6.16,-7.9225 a 9.674,9.674 0 0 1 2.0368,-5.5767 7.3514,7.3514 0 0 1 6.2228,-2.9639 6.0633,6.0633 0 0 1 4.8884,2.9569 c 2.0649,3.1184 1.51,6.9884 -0.1756,10.1489 a 3.2007,3.2007 0 0 0 -2.6057,-1.805 2.8381,2.8381 0 0 0 -2.1141,0.7234 3.915,3.915 0 0 0 -0.9692,4.3967 c 0.1483,0.3442 -0.7512,0.0211 -1.1234,0.0422 z"
       style="display:inline;fill:#040203"
       id="path17"
       transform="matrix(0.56086158,0,0,0.56086158,153.38909,35.665758)" />
    <path
       d="m 685.4609,103.758 c -4.1579,-0.6954 -6.4265,-5.1764 -5.661,-9.1446 0.7375,-3.884 4.0456,-7.93 8.4633,-7.2623 a 6.6215,6.6215 0 0 1 4.6074,3.0693 c 2.079,2.9568 1.4469,7.3887 -0.4424,10.2894 -0.7586,-0.7516 -2.2265,-1.6365 -3.4626,-1.04 a 3.8579,3.8579 0 0 0 -2.1352,4.3124 c -0.4565,-0.0768 -0.913,-0.147 -1.3695,-0.2242 z"
       style="display:inline;fill:#040203"
       id="path20"
       transform="matrix(0.56086158,0,0,0.56086158,153.38909,35.665758)" />
  </g>
  <g
     id="g6"
     transform="translate(-0.66793931,1.3358786)">
    <path
       d="m 356.79,278.4461 c -33.39,-1.3275 -65.8943,-28.1361 -72.377,-61.2027 -3.0341,-15.4657 -2.3037,-30.7769 3.4626,-45.54 2.1211,-5.4222 6.1736,-10.0015 8.1613,-15.4517 1.3555,-3.7084 0.5057,-9.65 0.8639,-13.6818 a 33.6377,33.6377 0 0 0 -16.4982,-0.1966 c -1.1027,0.2388 -1.5592,-0.4425 -2.3037,-1.1238 -0.2739,-0.26 0.2318,-0.7234 0.3442,-1.0816 a 20.7533,20.7533 0 0 1 6.8689,-1.77 33.5115,33.5115 0 0 1 11.9961,0.99 l 0.4074,-2.6619 a 3.7153,3.7153 0 0 0 -1.194,-0.7094 c -5.7873,-2.43 -12.08,-2.4512 -18.2189,-1.6435 a 1.7057,1.7057 0 0 1 -1.7278,-1.9174 1.9028,1.9028 0 0 1 1.0254,-1.201 c 6.8269,-1.6786 14.6651,-0.6181 21.0564,2.1211 l -0.19,-1.6224 c -4.6636,-3.266 -10.3807,-4.3335 -15.9644,-5.0218 -0.9552,-0.1194 -1.51,-1.8261 -1.0956,-2.5776 a 20.6832,20.6832 0 0 1 6.7,0.1123 28.388,28.388 0 0 1 11.2024,4.193 117.4117,117.4117 0 0 1 21.3725,-45.0556 c 1.3415,-1.7489 2.992,-3.4626 5.2817,-3.877 2.093,-0.3863 3.7786,0.9131 5.0077,2.4934 a 144.7775,144.7775 0 0 1 12.4737,18.9212 c 0.295,0.5268 1.5522,0.7867 2.1281,0.7094 5.366,-0.6953 10.7108,-2.1281 16.1189,-2.1351 5.2817,-0.0141 11.1393,3.4977 16.0979,1.8471 2.5776,-0.8638 14.665,-16.0135 17.8256,-19.3567 a 4.972,4.972 0 0 1 6.005,-1.0816 c 3.273,1.8331 5.78,5.1763 8.0279,8.0911 8.6529,11.2024 13.4219,25.0878 16.0346,38.8609 a 34.4073,34.4073 0 0 1 11.6941,0.07 c 0.8428,0.1546 1.187,0.99 1.3555,1.7067 0.3442,1.4469 0.1124,1.6716 -1.3555,1.4469 a 34.39,34.39 0 0 0 -11.2867,0.0211 l 0.78,2.4582 a 39.2126,39.2126 0 0 1 13.3165,2.6127 c 1.6927,0.6251 2.4161,2.9148 0.3371,3.42 -1.5592,0.3793 -8.7512,-2.7672 -13.3727,-2.8585 a 6.4891,6.4891 0 0 0 1.1027,3.9963 c 2.5565,0.5338 8.9409,1.77 10.0295,4.32 a 1.589,1.589 0 0 1 -1.6013,1.9947 c -2.992,-0.8429 -5.8506,-2.2124 -8.8566,-3.0693 0.3511,3.3853 -0.4776,6.9462 0.59,10.1841 2.29,6.9111 7.4239,13.2182 10.0015,20.3259 9.5941,26.3943 2.9007,56.1458 -15.3042,77.0828 -13.2393,15.2269 -32.3712,24.5611 -52.3109,26.6681 a 96.1855,96.1855 0 0 1 -14.0116,0.19 z m 37.8426,-175.06 c 2.4652,0.5549 7.9014,1.791 9.5589,-1.0605 a 3.203,3.203 0 0 0 0.0281,-2.8094 c -1.4047,-3.35 -2.9849,-6.1526 -6.0683,-7.5222 -2.8094,1.3415 -7.48,4.6636 -7.1709,8.2034 a 4.4148,4.4148 0 0 0 3.652,3.1883 z m -71.4851,0.45 c 3.0482,0.2669 7.4871,1.04 9.861,-1.4609 a 2.3725,2.3725 0 0 0 0.7234,-2.8585 23.0007,23.0007 0 0 0 -5.0639,-6.9533 2.382,2.382 0 0 0 -2.7111,-0.66 c -2.395,1.4468 -7.3395,6.286 -6.04,9.6784 a 3.6224,3.6224 0 0 0 3.2304,2.2534 z m 22.4471,163.0924 c 17.2778,3.891 36.0235,1.9525 51.6156,-6.6372 a 69.5833,69.5833 0 0 0 13.5272,-9.8821 68.0742,68.0742 0 0 0 17.8959,-26.1765 c 1.7,-4.481 2.4231,-8.674 3.5679,-13.2884 1.0957,-4.474 0.9411,-9.2991 0.7375,-13.9136 a 50.2156,50.2156 0 0 0 -2.2124,-13.3586 c -2.7673,-7.775 -5.359,-14.7142 -9.8189,-21.71 -4.2773,-6.7075 -10.0365,-12.3122 -16.2734,-17.2848 a 16.9711,16.9711 0 0 0 2.697,-12.9232 c -1.208,-6.7777 -7.5362,-11.94 -14.1031,-12.6774 a 16.4252,16.4252 0 0 0 -17.6079,13.33 79.61,79.61 0 0 0 -25.8815,-0.028 17.1624,17.1624 0 0 0 -7.6767,-11.0269 16.2139,16.2139 0 0 0 -19.5042,2.1 16.5921,16.5921 0 0 0 -1.9245,21.3654 c -11.0479,7.8031 -20.347,19.7993 -24.54,32.5328 a 87.3049,87.3049 0 0 0 -3.8419,19.5885 60.1283,60.1283 0 0 0 2.2756,20.9862 63.591,63.591 0 0 0 9.9312,21.0494 77.7933,77.7933 0 0 0 17.3129,17.334 66.6565,66.6565 0 0 0 23.8235,10.6195 z"
       style="display:inline;fill:#040203"
       id="path7"
       transform="matrix(0.56086158,0,0,0.56086158,153.38909,35.665758)" />
    <path
       d="m 328.8855,144.2413 c -2.88,-1.6926 -4.3335,-5.71 -4.3335,-8.969 a 12.6558,12.6558 0 0 1 1.0255,-4.7619 c 1.7348,0.7656 2.8515,1.3134 4.5793,-0.1615 3.0622,-2.6268 -0.52,-5.4854 3.1184,-5.4854 5.5767,0 9.4115,5.9559 9.4115,11.0831 0,4.1579 -4.6636,9.9171 -9.0041,9.9171 a 10.21,10.21 0 0 1 -4.7971,-1.6224 z"
       style="display:inline;fill:#040203"
       id="path21"
       transform="matrix(0.56086158,0,0,0.56086158,153.38909,35.665758)" />
    <path
       d="m 386.3376,143.5109 c -4.193,-4.5021 -3.2659,-7.4941 -2.4652,-13.19 a 3.5242,3.5242 0 0 0 4.4318,0.3441 4.6131,4.6131 0 0 0 1.4749,-5.6679 9.3235,9.3235 0 0 1 7.6486,2.114 c 3.9683,3.7014 4.0877,9.98 1.3485,14.3982 -1.2993,2.1 -3.3572,3.905 -5.6328,4.1649 -2.5074,0.2458 -4.9516,-0.1542 -6.8058,-2.1633 z"
       style="display:inline;fill:#040203"
       id="path22"
       transform="matrix(0.56086158,0,0,0.56086158,153.38909,35.665758)" />
  </g>
  <g
     id="g5"
     transform="translate(1.3358786,-4.0076358)">
    <path
       d="m 616.7852,298.8 a 109.5347,109.5347 0 0 1 -21.0142,-6.0963 c -11.8487,-4.72 -20.6912,-14.1945 -32.2519,-19.2514 -7.782,-3.4064 -16.7089,-0.8639 -24.519,-4.8322 -3.8,-1.9244 -6.2087,-5.6749 -5.4572,-10.0155 1.4187,-8.1893 10.83,-11.23 18.0714,-11.6941 10.2824,-0.6742 20.326,4.4038 28.0237,10.9005 9.13,7.7188 15.3955,18.0925 25.2424,25.06 a 22.2106,22.2106 0 0 0 14.7072,4.0947 c 0.7164,-0.07 1.0746,-1.25 1.0044,-1.7348 -0.0562,-0.3793 -0.7164,-1.1449 -1.0044,-1.1589 -5.4573,-0.302 -10.2754,-1.6154 -14.7072,-5.0148 -5.401,-4.1438 -11.68,-8.6529 -14.2506,-14.89 -1.2572,-3.0482 0.2879,-9.3693 0.8077,-12.572 a 49.1886,49.1886 0 0 1 3.87,-11.9048 c 5.1833,-11.5958 12.7757,-21.9624 20.1223,-32.2589 3.2308,-4.53 3.4555,-10.6054 1.7418,-15.7115 a 34.6542,34.6542 0 0 0 -10.7881,3.5047 l -0.78,-1.6575 c 0.2318,0.1545 0.4425,-0.3231 0.6673,-0.4847 2.8094,-2.0157 6.5178,-2.62 9.8118,-3.5187 0.8568,-0.2318 0.5829,-2.0087 0,-2.1352 -3.7435,-0.8358 -8.3158,0.899 -11.666,2.5215 l -1.5592,-0.9061 a 3.5441,3.5441 0 0 1 0.8779,-1.2221 24.0229,24.0229 0 0 1 12.3543,-2.8445 v -1.2782 c 0.1826,0.1053 -0.4144,-0.07 -0.6251,-0.1054 a 27.6148,27.6148 0 0 0 -9.8118,0.4 c -0.2739,-0.3652 -0.5478,-0.7234 -0.8288,-1.0816 -0.611,-0.7936 -0.2177,-0.8428 0.7515,-1.1027 a 23.1025,23.1025 0 0 1 10.4861,-0.3792 c 0.2739,-5.2887 2.5706,-10.9145 3.7435,-16.0417 0.6883,-3.006 -0.1475,-6.75 -0.0772,-9.8047 a 2.223,2.223 0 0 1 1.2642,-1.6084 c 2.697,-1.4258 11.2516,5.31 14.0189,5.4853 6.3984,0.4144 13.1339,1.0887 19.5955,0.1124 4.5582,-0.6953 7.8733,-6.75 12.6352,-6.2509 1.6365,0.1686 2.7181,2.1562 2.978,3.6733 1.194,7.0586 0.7445,13.97 2.7673,20.9932 a 28.2472,28.2472 0 0 1 12.93,-0.6181 l -0.0562,1.6154 c -0.3652,0.1756 -0.7023,0.5619 -1.0957,0.52 a 24.1506,24.1506 0 0 0 -10.64,0.5268 l -0.4847,1.2151 a 24.0348,24.0348 0 0 1 14.7634,2.6338 l -1.2291,1.5241 a 30.4747,30.4747 0 0 0 -12.6563,-2.0579 l 1.3063,2.4231 a 24.5994,24.5994 0 0 1 9.8259,3.0271 l -0.4144,1.6927 a 3.6346,3.6346 0 0 1 -1.1729,-0.0351 31.7443,31.7443 0 0 0 -7.5573,-2.3037 c 3.9191,9.1305 7.6135,18.5 9.0182,28.4029 3.5468,24.9615 -5.675,50.7026 -21.2039,70.0663 -6.5951,8.2175 -16.6387,13.7871 -27.209,14.047 A 104.4971,104.4971 0 0 1 616.7852,298.8 Z m 6.0472,-135.6586 a 3.0723,3.0723 0 0 0 2.36,0.1756 c 0.3793,-0.2037 3.0763,-1.18 2.8726,-2.1351 a 3.2989,3.2989 0 0 0 -3.5679,-2.3389 c -1.3978,0.927 -1.4188,2.6691 -1.6647,4.2985 z m 30.3977,20.6 c 3.4907,1.3555 8.0278,-0.0351 9.566,-3.6452 a 5.37,5.37 0 0 0 -0.1686,-4.8813 6.8221,6.8221 0 0 0 -4.502,-3.6031 c -3.6452,-0.6531 -7.6416,0.6041 -8.9409,4.2984 -1.1589,3.287 0.9692,6.6298 4.0454,7.8312 z m 9.8048,-20.923 c 1.4749,0.6673 2.6549,1.2783 4.1509,0.7726 a 4.3369,4.3369 0 0 0 -0.8148,-5.0709 5.3751,5.3751 0 0 0 -4.4458,1.9665 c 0.0281,0.7867 0.0348,1.9175 1.1097,2.3318 z m -38.13,20.0942 c 3.0692,1.9947 7.4449,1.9807 10.0014,-0.8006 a 5.9247,5.9247 0 0 0 1.6646,-4.8041 6.5522,6.5522 0 0 0 -2.999,-4.6355 c -3.1536,-2.1422 -7.0727,-1.3485 -9.7135,1.208 a 6.0258,6.0258 0 0 0 1.046,9.0322 z m 17.1092,3.3854 c 1.8261,0.0632 3.1465,-1.9315 4.1228,-3.2941 -1.6506,-0.7164 -5.24,-1.5592 -6.7566,-0.0913 -0.7867,0.7586 0.07,2.0228 1.2361,2.5 0.2383,0.1057 1.1443,0.773 1.3972,0.8854 z"
       style="display:inline;fill:#040203"
       id="path8"
       transform="matrix(0.56086158,0,0,0.56086158,153.38909,35.665758)" />
    <path
       d="m 626.3512,180.8126 a 4.2924,4.2924 0 0 1 0.0773,-5.9278 1.9845,1.9845 0 0 0 2.2686,0.604 c 0.6953,-0.19 1.2361,-1.2712 1.44,-1.8472 2.0017,0.5127 3.7856,2.1843 3.6311,4.3686 -0.1826,2.5987 -1.91,4.0175 -4.3686,4.27 a 4.1608,4.1608 0 0 1 -3.0484,-1.4676 z"
       style="display:inline;fill:#040203"
       id="path23"
       transform="matrix(0.56086158,0,0,0.56086158,153.38909,35.665758)" />
    <path
       d="m 653.1388,180.918 a 4.3048,4.3048 0 0 1 -0.6111,-5.5556 c 0.5549,-0.8077 1.784,-0.0632 2.3529,0.3652 a 6.612,6.612 0 0 0 1.7278,-2.0228 3.7657,3.7657 0 0 1 2.8515,1.5031 4.2062,4.2062 0 0 1 -1.3555,6.3211 4.1568,4.1568 0 0 1 -4.9656,-0.611 z"
       style="display:inline;fill:#040203"
       id="path24"
       transform="matrix(0.56086158,0,0,0.56086158,153.38909,35.665758)" />
  </g>
  <g
     id="g4"
     transform="translate(2.0038179,0.66793931)">
    <path
       d="m 208.222,325.0329 c -0.9692,-0.4706 -1.0465,-0.2388 -1.4257,-1.2572 -1.2713,-3.3854 -1.6786,-7.1359 -2.999,-10.5072 -2.3951,-6.0893 -7.29,-10.83 -9.7908,-16.9757 a 25.227,25.227 0 0 1 -9.6151,3.006 7.2991,7.2991 0 0 1 -3.1606,-0.302 l -0.0913,-1.44 c 0.3793,-0.2318 0.7094,-0.6392 1.1518,-0.7024 a 41.9977,41.9977 0 0 0 9.1095,-2.093 12.0343,12.0343 0 0 0 1.8472,-0.9411 l -0.3723,-1.482 a 24.5067,24.5067 0 0 1 -15.8239,0.4214 l 0.5479,-1.6926 a 3.903,3.903 0 0 1 1.1869,-0.2037 29.4314,29.4314 0 0 0 13.4851,-1.0114 l -0.26,-2.7251 a 32.4245,32.4245 0 0 1 -13.3024,-0.4635 l 0.007,-2.079 a 5.3026,5.3026 0 0 1 1.4679,-0.2388 c 3.3432,0.3863 6.4195,0.892 9.8118,0.5057 a 9.3726,9.3726 0 0 0 1.489,-0.2739 2.244,2.244 0 0 0 0.3863,-1.4469 c -0.2178,-3.8278 -0.8569,-7.2763 -2.978,-10.5141 -6.4405,-9.84 -19.0477,-16.0557 -27.6234,-23.9993 -10.8583,-10.0646 -22.0326,-20.656 -23.1072,-35.5809 -0.1826,-2.5 8.2456,-17.5517 10.1208,-20.2979 a 29.2876,29.2876 0 0 1 15.0865,-11.371 1.8227,1.8227 0 0 0 0.9411,-1.96 2.772,2.772 0 0 0 -0.9411,-1.18 1.9961,1.9961 0 0 0 -1.4047,-0.1756 26.6389,26.6389 0 0 0 -14.0189,9.0743 c -8.5968,10.9426 -12.9232,24.4137 -21.07,35.7285 -10.2262,14.2085 -26.1414,27.5953 -44.8028,25.6217 -5.7452,-0.6111 -11.659,-4.1439 -13.0215,-10.2052 -1.6646,-7.4238 5.696,-12.9864 11.6309,-15.7536 5.3378,-2.5 11.3289,-3.6663 16.4209,-6.6794 a 69.6442,69.6442 0 0 0 10.1911,-7.3114 c 8.8776,-7.7258 14.068,-17.938 21.7447,-26.6752 14.04,-16.0065 36.3746,-28.3819 58.1544,-26.4013 a 57.7777,57.7777 0 0 1 30.1238,11.4623 c 24.3925,18.7668 41.6492,46.629 43.075,77.6728 0.3231,7.7117 -0.52,15.4516 -1.32,23.1213 -0.0913,0.8358 0.26,0.892 1.0043,0.4986 a 34.2133,34.2133 0 0 0 6.3071,-4.5231 c 0.9622,-0.8428 1.784,0.0843 2.43,0.7866 a 5.2354,5.2354 0 0 1 -1.0255,1.51 36.455,36.455 0 0 1 -9.1165,5.7663 l -0.0281,2.83 a 32.8776,32.8776 0 0 0 13.0848,-6.4826 3.1815,3.1815 0 0 1 1.503,1.5451 26.4128,26.4128 0 0 1 -14.8968,7.55 c -0.3793,0.0632 0.1826,0.7515 0.281,1.1237 4.5371,0.3793 8.8636,-1.215 13.0075,-3.013 l 1.25,1.1729 a 2.2193,2.2193 0 0 1 -0.8779,1.4749 30.1859,30.1859 0 0 1 -13.6045,3.1676 c 0.07,8.2947 2.704,15.6975 3.9683,23.7394 0.3582,2.3318 -0.5479,3.61 -1.6365,5.4362 -5.4221,0.7725 -11.357,-3.4626 -16.751,-2.5706 -7.5713,2.24 -14.2226,5.1833 -21.7307,6.7636 -3.9261,3.4766 -7.8593,7.185 -11.9188,10.472 a 2.4905,2.4905 0 0 1 -2.1006,0.0788 z m 11.9119,-37.8988 c 2.5636,0.1405 4.8743,-1.18 6.883,-2.5916 -1.0465,-0.7937 -3.3432,-2.6971 -4.79,-2.4512 -2.1,0.3582 -2.69,2.2686 -3.596,4.2281 -0.5409,1.1589 0.2247,0.7375 1.503,0.8147 z m 14.7142,6.279 a 9.11,9.11 0 0 0 11.6871,-2.5987 c 2.3388,-3.287 1.7277,-8.084 -1.9034,-10.17 a 8.4943,8.4943 0 0 0 -6.272,-1.0465 8.3178,8.3178 0 0 0 -6.8057,9.1306 6.6767,6.6767 0 0 0 3.294,4.6846 z m -28.7331,9.2289 a 8.9334,8.9334 0 0 0 6.3,0.2528 8.1313,8.1313 0 0 0 5.7452,-9.25 6.8807,6.8807 0 0 0 -3.6452,-4.5512 8.7242,8.7242 0 0 0 -6.2931,-0.59 c -4.193,1.2642 -6.9883,4.9726 -6.2087,9.3342 a 6.9927,6.9927 0 0 0 4.1018,4.8042 z m 45.449,0.8077 a 5.0411,5.0411 0 0 0 6.3422,1.4047 9.24,9.24 0 0 0 -0.0983,-4.9094 c -0.1194,-0.3231 -0.7656,-1.1449 -1.2362,-1.1168 a 5.685,5.685 0 0 0 -5.0077,4.6218 z m -41.2419,14.9951 c 0.5548,0.281 0.8077,0.4214 1.3976,-0.0842 0.8007,-0.6532 3.6874,-2.4021 2.43,-3.6593 -1.3766,-1.3906 -3.3362,-1.5311 -5.2325,-1.11 -0.4,0.8007 -1.201,1.3977 -0.2739,2.4723 0.5058,0.6886 0.9202,1.9107 1.6788,2.3812 z"
       style="display:inline;fill:#040203"
       id="path9"
       transform="matrix(0.56086158,0,0,0.56086158,153.38909,35.665758)" />
    <path
       d="m 239.7575,289.9365 a 2.821,2.821 0 0 0 -2.5214,1.4609 c -0.0843,0.1615 -1.798,-1.777 -1.9034,-1.96 a 5.0324,5.0324 0 0 1 1.6294,-6.5178 4.894,4.894 0 0 1 7.0306,1.6365 c 1.2642,2.2616 0.8638,5.2044 -1.4328,6.4546 -0.9061,0.3726 -1.8261,-0.1471 -2.8024,-1.0742 z"
       style="display:inline;fill:#040203"
       id="path25"
       transform="matrix(0.56086158,0,0,0.56086158,153.38909,35.665758)" />
    <path
       d="m 211.72,299.7553 a 2.2548,2.2548 0 0 0 -3.9682,0.33 4.8153,4.8153 0 0 1 -2.3388,-5.7311 4.9946,4.9946 0 0 1 6.293,-3.3011 4.9256,4.9256 0 0 1 3.2519,6.0894 4.7033,4.7033 0 0 1 -1.8332,2.5425 l -1.0184,0.7024 c -0.1263,-0.2107 -0.2531,-0.4214 -0.3863,-0.6321 z"
       style="display:inline;fill:#040203"
       id="path30"
       transform="matrix(0.56086158,0,0,0.56086158,153.38909,35.665758)" />
  </g>
  <g
     id="g3"
     transform="translate(0.50101626,-0.50101626)">
    <path
       d="m 115.6525,460.5229 a 25.601,25.601 0 0 0 -1.2151,-11.3008 c -4.7549,-13.773 -10.5,-27.2441 -14.18,-41.3542 -4.53,-17.3621 -6.1174,-43.7072 -12.572,-58.8639 A 45.7475,45.7475 0 0 0 78.611,335.54 35.2993,35.2993 0 0 0 68.6096,343.1183 l -1.8472,-1.7418 a 30.29,30.29 0 0 1 10.3105,-7.93 l -1.6014,-2.4442 c -4.53,1.5171 -8.3368,4.3124 -11.94,7.3255 L 61.8877,336.58 a 34.7688,34.7688 0 0 1 12.1507,-7.9225 l -0.6462,-1.63 c 0.0773,0.3793 -0.7585,0.19 -1.1308,0.288 a 41.0793,41.0793 0 0 0 -8.8636,3.5679 L 61.86,329.8159 c 0.19,-0.3863 0.2459,-0.878 0.576,-1.1519 2.55,-2.1351 6.49,-3.28 9.6713,-4.0245 -3.4977,-7.3044 -4.86,-15.3392 -5.984,-23.2969 -1.6646,-11.7292 -2.1281,-25.5935 1.9385,-36.7047 0.1545,-0.4284 1.0043,-0.7445 1.3976,-0.8007 a 6.2766,6.2766 0 0 1 1.4047,0.0984 108.0211,108.0211 0 0 1 23.1284,12.8108 c 3.8348,-0.99 7.9154,-2.2545 11.9188,-3.1957 a 40.4965,40.4965 0 0 1 11.2025,-0.7234 2.8861,2.8861 0 0 0 2.9358,-1.6154 106.6658,106.6658 0 0 1 17.39,-19.82 2.1474,2.1474 0 0 1 2.4371,0.2037 c 9.9944,9.3553 15.6413,39.8232 16.1049,53.3785 3.1956,-0.4074 7.0234,-1.0325 10.1629,-0.0422 0.0492,0.4425 0.1054,0.878 0.1546,1.32 -0.5338,0.6742 -0.6181,1.0465 -1.5312,0.9832 a 33.8572,33.8572 0 0 0 -8.7512,0.5338 l -0.1756,1.91 a 37.727,37.727 0 0 1 11.0339,1.1659 7.6145,7.6145 0 0 1 2.6057,1.2923 l -0.8288,1.6716 a 3.4989,3.4989 0 0 1 -1.0816,0.0141 c -3.7786,-1.1589 -8,-2.2475 -11.8065,-1.1729 -0.5408,0.1545 -0.6742,2.2615 -0.7585,2.718 a 31.2946,31.2946 0 0 1 12.1155,2.7392 c -0.014,1.0184 -0.66,2.2826 -1.65,2.0087 -3.6592,-1.0114 -7.15,-2.086 -11.0058,-2.1632 -1.1589,6.3 0.1826,12.7757 4.6987,17.32 22.4541,22.5594 49.5437,41.3473 53.6594,75.4041 1.0746,8.8848 0.2037,17.7273 -0.5548,26.6261 a 9.24,9.24 0 0 1 -1.2643,3.7786 c -32.0692,5.1482 -63.9488,11.6379 -95.3859,19.7641 0.006,-0.1119 0.0204,-0.2172 0.0344,-0.3226 z m 11.9751,-144.6978 a 13.959,13.959 0 0 0 14.7563,-3.9753 8.7966,8.7966 0 0 0 1.9244,-7.6978 c -1.6364,-5.5345 -6.9181,-10.7038 -13.176,-9.1867 a 9.5675,9.5675 0 0 0 -6.6442,5.6961 17.5377,17.5377 0 0 0 -0.7586,10.4931 6.5251,6.5251 0 0 0 3.8981,4.6706 z m -52.5638,-28.86 c 0.6953,0.014 0.73,0.14 1.4047,-0.1686 a 30.0718,30.0718 0 0 0 9.6432,-6.1736 3.4314,3.4314 0 0 0 -1.1518,-1.7489 54.4873,54.4873 0 0 0 -8.4914,-4.8813 4.6171,4.6171 0 0 0 -1.8964,-0.2809 c -1.4889,3.6882 -2.0859,9.9668 0.4917,13.2538 z m 9.13,34.2957 c 4.5653,3.2659 11.666,3.47 16.0768,-0.3231 a 6.2727,6.2727 0 0 0 2.43,-5.57 c -0.7866,-6.3983 -4.9586,-13.52 -12.2138,-13.0636 -5.9068,0.3652 -10.0577,6.904 -9.65,12.3543 a 8.9611,8.9611 0 0 0 3.3575,6.6029 z m 55.3451,-46.18 a 4.8635,4.8635 0 0 0 1.9455,-0.5057 c -0.0983,-4.3756 -1.4328,-9.6713 -4.9235,-12.5158 a 11.7056,11.7056 0 0 0 -1.8823,1.489 c -2.1,2.1351 -5.6188,5.3659 -6.2579,8.3649 0.7515,0.8429 1.1729,1.8683 2.7111,1.9315 2.8169,0.3241 5.5771,1.0826 8.4076,1.2371 z m -28.7326,44.0242 c 1.5662,0.6532 2.55,1.9245 4.172,1.5031 1.8822,-0.6883 3.2448,-2.8586 3.6732,-4.8322 a 2.9914,2.9914 0 0 0 -1.5381,-0.8639 c -1.9525,-0.1264 -6.2017,-0.07 -7.4238,1.8542 a 1.621,1.621 0 0 0 1.1167,2.3388 z"
       style="display:inline;fill:#040203"
       id="path6"
       transform="matrix(0.56086158,0,0,0.56086158,153.38909,35.665758)" />
    <path
       d="m 89.785,319.0348 a 9.6491,9.6491 0 0 1 -2.5,-10.6546 4.5539,4.5539 0 0 1 3.2027,-2.8516 4.1278,4.1278 0 0 1 2.8023,0.3582 l 1.2853,0.6322 c -0.913,0.5689 -2.1983,1.8682 -1.5311,3.2378 a 3.2139,3.2139 0 0 0 3.9683,1.5662 c 0.5057,3.294 -0.52,7.2763 -3.7506,8.4774 a 3.2777,3.2777 0 0 1 -3.4769,-0.7656 z"
       style="display:inline;fill:#040203"
       id="path26"
       transform="matrix(0.56086158,0,0,0.56086158,153.38909,35.665758)" />
    <path
       d="m 130.43,311.6531 a 9.3662,9.3662 0 0 1 -2.9639,-10.2964 5.0815,5.0815 0 0 1 6.9884,-2.8656 c -0.7375,0.5478 -2.1913,2.24 -1.25,3.5609 0.78,1.0887 2.7462,2.1071 3.9051,0.7586 0.2949,-0.3512 0.1474,0.899 0.2388,1.3414 a 7.8446,7.8446 0 0 1 -2.7533,7.81 3.4184,3.4184 0 0 1 -4.1651,-0.3089 z"
       style="display:inline;fill:#040203"
       id="path27"
       transform="matrix(0.56086158,0,0,0.56086158,153.38909,35.665758)" />
  </g>
  <g
     id="g2"
     transform="translate(1.3899155,8.339493)">
    <path
       d="m 494.1481,408.3735 c -16.7791,-4.2492 -32.61,-12.6352 -49.7614,-15.269 -8.2245,-1.2572 -15.1566,1.9385 -23.1283,2.697 -7.6837,0.73 -15.0654,-2.9428 -17.46,-10.36 -2.8937,-8.9831 6.272,-18.0785 14.3209,-20.319 11.0409,-3.0763 21.829,-1.32 32.5679,2.3318 14.5035,4.9235 27.9816,12.6072 42.759,16.66 a 32.8939,32.8939 0 0 0 10.5071,0.9412 c 3.3853,-0.2107 6.4476,-0.5057 9.0182,-2.4161 0.9973,-0.7375 -0.6462,-2.5776 -1.3064,-2.4442 -7.7961,1.58 -14.7212,1.6154 -22.4119,-0.85 -12.1366,-3.891 -23.1494,-10.3807 -35.0613,-14.7845 a 80.3255,80.3255 0 0 0 -19.8975,-4.6 c -4.5512,-24.6806 -1.6856,-50.4076 4.8532,-74.4982 a 50.02,50.02 0 0 0 -10.8794,0.7164 2.4282,2.4282 0 0 1 -1.4117,-0.3441 l -0.0913,-2.079 A 32.4251,32.4251 0 0 1 439.8,282.7515 l 1.0465,-2.999 c -5.05,-1.3626 -10.0576,-1.2783 -15.2058,-0.7516 l -0.4917,-1.7769 a 13.2556,13.2556 0 0 1 5.2255,-1.44 27.5758,27.5758 0 0 1 11.2867,1.3415 l 0.6392,-1.8332 c 0.1826,0.1826 -0.4776,-0.2036 -0.7164,-0.309 a 42.0085,42.0085 0 0 0 -12.249,-2.8234 1.9456,1.9456 0 0 1 1.7348,-2.6057 38.3382,38.3382 0 0 1 12.0734,2.9287 111.5825,111.5825 0 0 1 11.54,-22.9808 c 3.0482,-4.6074 6.5529,-8.9058 11.4272,-11.54 a 2.7055,2.7055 0 0 1 3.589,0.906 c 2.9288,4.0456 4.3124,9.3343 5.6047,14.0821 a 108.8569,108.8569 0 0 1 17.4393,4.4318 4.4187,4.4187 0 0 0 4.8673,-0.8357 c 3.294,-2.95 5.97,-6.0894 9.8469,-8.3369 1.489,-0.8639 3.02,-1.3836 4.3125,-0.2107 4.5933,4.186 7.2061,30.6926 7.487,37.4913 a 31.1951,31.1951 0 0 1 11.3289,-0.323 1.8358,1.8358 0 0 1 1.5522,1.4679 c 0.3652,1.0956 0.309,1.4117 -0.85,1.2923 a 46.8836,46.8836 0 0 0 -11.2165,0.2318 c -1.1448,0.014 -0.45,1.6294 -0.1194,2.0157 a 34.0719,34.0719 0 0 1 14.7774,2.95 l 0.0422,1.77 c -0.4636,0.2037 -0.92,0.4073 -1.3836,0.6181 a 37.9269,37.9269 0 0 0 -13.4781,-2.5355 c -0.1826,1.3555 -0.33,3.0411 0.8639,3.42 3.301,1.0535 9.3834,0.7234 10.9707,4.2492 0.4565,1.0114 -1.3275,1.6927 -1.8613,1.4539 a 40.9757,40.9757 0 0 0 -9.39,-2.9429 c 2.079,12.9794 11.8276,20.6 19.8484,30.2221 2.7673,3.3221 4.7057,7.9646 6.3984,11.9189 7.6556,17.8466 5.4853,41.298 -7.3466,56.0544 -11.4415,13.1417 -29.218,15.0802 -45.2456,11.0206 z M 492.7715,291.84 a 11.081,11.081 0 0 0 15.1918,-13.6115 c -1.791,-5.682 -8.372,-8.7232 -13.8011,-7.0025 -5.682,1.7981 -9.3764,8.26 -7.2834,13.9978 0.9974,2.7391 3.0623,5.5345 5.8927,6.6162 z M 503.96,262.32 c 2.1351,0.8077 4.39,1.812 6.4194,0.604 2.4161,-1.8964 -0.7234,-6.5319 -2.2335,-8.5336 -2.0438,0.6041 -6.0753,2.5706 -6.4264,4.9376 a 2.8713,2.8713 0 0 0 2.2405,2.992 z m -48.3357,20.8246 a 10.7412,10.7412 0 0 0 8.379,2.7883 c 5.8787,-0.7655 10.6266,-5.8505 10.0366,-11.9118 a 11.2541,11.2541 0 0 0 -3.7365,-7.5081 c -4.4178,-3.575 -11.2025,-3.884 -15.2831,0.6321 a 11.2983,11.2983 0 0 0 -3.1325,8.2737 10.9555,10.9555 0 0 0 3.7365,7.726 z m 5.4081,-31.8726 a 9.029,9.029 0 0 0 7.185,1.8823 c 0.9974,-0.2037 2.1352,-1.18 1.784,-2.2616 -0.7585,-2.36 -1.7208,-4.4037 -3.8629,-5.2676 -2.4793,1.1591 -4.5091,2.8799 -5.1061,5.6471 z m 15.1707,38.1656 a 2.31,2.31 0 0 0 2.5215,0.92 8.5533,8.5533 0 0 0 3.891,-2.7251 c -1.7208,-1.8542 -4.2984,-2.2124 -6.6934,-2.3107 -0.3793,-0.0141 -1.9034,0.2458 -1.7489,0.7866 a 9.0437,9.0437 0 0 0 2.0298,3.3294 z"
       style="display:inline;fill:#040203"
       id="path11"
       transform="matrix(0.56086158,0,0,0.56086158,153.38909,35.665758)" />
    <path
       d="m 458.7708,280.3284 c -2.2334,-2.079 -2.7461,-6.1737 -1.0043,-8.4563 0.5408,-0.7164 2.402,-0.3863 3.4415,-0.4916 1.4047,-0.1475 1.8823,-2.62 1.5311,-3.6452 a 6.0388,6.0388 0 0 1 4.7128,2.1562 7.6831,7.6831 0 0 1 -0.19,9.7064 5.7441,5.7441 0 0 1 -8.4911,0.7305 z"
       style="display:inline;fill:#040203"
       id="path28"
       transform="matrix(0.56086158,0,0,0.56086158,153.38909,35.665758)" />
    <path
       d="m 493.39,287.3729 c -2.2054,-1.8893 -2.5636,-5.1131 -1.7559,-7.7469 a 16.148,16.148 0 0 1 0.7445,-1.8823 2.5189,2.5189 0 0 0 3.87,0.899 3.1369,3.1369 0 0 0 0.5829,-4.0876 c 3.6171,0.2317 6.5389,2.62 6.63,6.4686 0.0913,4.0315 -2.17,6.6512 -5.8225,7.6767 a 4.8357,4.8357 0 0 1 -4.249,-1.3275 z"
       style="display:inline;fill:#040203"
       id="path29"
       transform="matrix(0.56086158,0,0,0.56086158,153.38909,35.665758)" />
  </g>
  <g
     id="g1"
     transform="translate(-1.0424366,1.7373944)">
    <path
       d="m 273.2385,433.4474 c -1.1308,-6.1807 -2.4021,-12.3262 -3.1115,-18.57 a 120.0385,120.0385 0 0 1 7.3326,-55.3591 c 3.6522,-9.3974 8.5827,-18.2751 13.33,-27.1528 a 58.14,58.14 0 0 0 -12.4877,2.5495 c -1.3977,0.4636 -1.3836,0.1405 -1.44,-1.3274 -0.0281,-0.7656 0.014,-1.4047 0.7374,-1.7348 a 37.2,37.2 0 0 1 14.6229,-2.8305 l 1.8823,-3.4485 c -6.293,-1.1659 -12.4034,-0.1335 -18.6122,1.1308 -1.0114,0.2036 -2.1843,-1.6787 -1.503,-2.2265 5.1622,-4.2281 15.5078,-3.4064 21.7025,-1.9244 l 0.3582,-1.6154 c 0.0281,0.0421 -0.0913,-0.0492 -0.1334,-0.07 -4.9235,-2.4582 -10.7951,-2.9288 -16.2172,-2.6689 -1.0114,0.0422 -1.4258,-0.6813 -1.784,-1.4328 -0.4917,-1.0254 0.9692,-1.9525 1.784,-1.9947 a 41.542,41.542 0 0 1 17.8537,2.8937 96.8932,96.8932 0 0 0 3.7716,-11.4131 c 1.5241,-6.0051 1.517,-12.2069 2.9077,-18.2049 a 12.796,12.796 0 0 1 3.603,-6.2439 2.1135,2.1135 0 0 1 2.6971,-0.52 c 6.595,2.9147 11.2165,10.1981 18.2329,11.4974 10.163,0.6743 19.6939,0.5759 29.4214,2.4934 6.1175,-0.9271 11.6941,-4.5161 17.5236,-6.4687 a 4.7846,4.7846 0 0 1 4.2071,0.302 3.2742,3.2742 0 0 1 1.5525,3.1322 c -0.7656,5.071 -2.03,10.24 -1.5944,15.4166 0.6883,8.0418 3.6312,15.4165 3.294,23.641 4.8673,-0.309 9.4888,0.6672 14.2647,1.5452 1.5312,0.2037 1.8262,1.2221 2.4442,2.1421 0.7164,1.0817 0.295,1.2081 -0.9833,1.4258 -0.6321,0.1124 -0.8568,0.295 -1.4609,0.0913 a 36.2529,36.2529 0 0 0 -14.363,-1.8261 l -0.618,1.63 c 0.323,0.19 0.59,0.5337 0.9622,0.5759 a 38.039,38.039 0 0 1 11.2024,2.704 19.0152,19.0152 0 0 1 6.9392,4.5091 c -0.1194,0.9973 -1.0184,2.2335 -2.0227,1.7488 -5.7593,-2.7813 -11.0058,-5.408 -17.5377,-5.7733 a 6.2867,6.2867 0 0 1 -1.2712,3.21 47.6477,47.6477 0 0 1 11.7924,4.5793 19.7279,19.7279 0 0 1 4.3827,3.5328 c -0.2107,1.1589 -1.37,2.1562 -2.2686,1.6575 -4.7479,-2.6127 -9.1306,-5.1341 -14.49,-6.37 a 25.8744,25.8744 0 0 0 -2.5074,16.3367 c 1.8823,10.6406 16.0557,30.7839 21.232,42.0566 a 164.812,164.812 0 0 1 9.3834,25.432 983.0971,983.0971 0 0 0 -132.0556,2.6479 c -0.9823,0.0835 -1.9727,0.1818 -2.9559,0.2942 z M 373.6111,303.07 c 0.4214,0.0632 0.85,0.1194 1.2783,0.1826 0.78,-1.9384 0.7936,-5.1763 -0.59,-6.8408 -1.3415,-1.63 -5.0007,0.0983 -6.2931,1.496 0.0562,1.1307 -0.1053,2.4231 1.3977,3.1746 1.3134,0.7589 2.6689,1.7776 4.2071,1.9876 z m -15.3955,29.5338 c 4.9024,2.1913 11.364,1.4749 14.5246,-3.2449 a 8.7322,8.7322 0 0 0 1.0675,-8.379 10.7568,10.7568 0 0 0 -5.8154,-5.8576 c -5.2044,-2.2686 -12.5088,-0.4354 -14.77,5.1553 a 9.4705,9.4705 0 0 0 4.9933,12.3266 z m -49.08,-35.272 c 3.0622,0.2178 6.4475,-0.7023 7.8382,-3.6943 -0.7445,-2.2756 -2.88,-3.6452 -5.0358,-4.7479 a 1.5434,1.5434 0 0 0 -2.1422,0.4706 c -1.0676,1.8331 -2.3669,4.1649 -2.1632,6.3843 a 1.8056,1.8056 0 0 0 1.5029,1.5877 z m 8.4071,30.9666 a 12.44,12.44 0 0 0 8.4071,1.187 c 2.7743,-0.6041 5.7452,-2.374 6.9954,-5.0289 1.1378,-2.4231 1.7208,-5.1131 0.5408,-7.67 a 10.6006,10.6006 0 0 0 -6.1315,-5.9419 c -5.0077,-1.7348 -11.3991,-0.4706 -14.04,4.53 a 8.9994,8.9994 0 0 0 -0.7445,6.9813 10.0227,10.0227 0 0 0 4.9726,5.9429 z m 25.2284,6.6161 c 2.2334,-0.6532 4.8321,-2.0368 5.52,-4.4107 a 4.7766,4.7766 0 0 0 -1.6711,-1.1238 12.88,12.88 0 0 0 -9.0392,-0.0562 10.8814,10.8814 0 0 0 5.1902,5.5911 z"
       style="display:inline;fill:#040203"
       id="path12"
       transform="matrix(0.56086158,0,0,0.56086158,153.38909,35.665758)" />
    <path
       d="m 320.345,325.7844 a 6.4918,6.4918 0 0 1 -3.2238,-8.2877 c 1.0465,-2.62 3.4415,-3.7787 6.0753,-4.2563 -0.0492,1.2221 0.4425,3.1676 2.0579,3.3643 a 3.9162,3.9162 0 0 0 3.2519,-1.0816 c 0.92,2.5354 1.5873,4.2983 0.6391,6.8338 a 6.6943,6.6943 0 0 1 -3.898,3.6452 6.4131,6.4131 0 0 1 -4.9024,-0.2177 z"
       style="display:inline;fill:#040203"
       id="path31"
       transform="matrix(0.56086158,0,0,0.56086158,153.38909,35.665758)" />
    <path
       d="m 360.2946,329.7667 c -3.09,-1.37 -4.0666,-5.2114 -3.0272,-8.084 0.9763,-2.676 3.6663,-4.0105 6.3493,-4.2422 a 2.4786,2.4786 0 0 0 1.58,3.1957 3.0171,3.0171 0 0 0 3.1466,-0.8077 6.507,6.507 0 0 1 0.6251,7.4238 c -1.6644,3.0692 -5.6116,3.9331 -8.6738,2.5144 z"
       style="display:inline;fill:#040203"
       id="path32"
       transform="matrix(0.56086158,0,0,0.56086158,153.38909,35.665758)" />
  </g>
</svg>
