<?xml version="1.0" encoding="UTF-8" standalone="no"?>
<!-- Created with Inkscape (http://www.inkscape.org/) -->

<svg
   width="210mm"
   height="297mm"
   viewBox="0 0 210 297"
   version="1.1"
   id="svg1"
   xml:space="preserve"
   inkscape:version="1.3.2 (091e20e, 2023-11-25)"
   sodipodi:docname="boo_gohst.svg"
   xmlns:inkscape="http://www.inkscape.org/namespaces/inkscape"
   xmlns:sodipodi="http://sodipodi.sourceforge.net/DTD/sodipodi-0.dtd"
   xmlns="http://www.w3.org/2000/svg"
   xmlns:svg="http://www.w3.org/2000/svg"><sodipodi:namedview
     id="namedview1"
     pagecolor="#ffffff"
     bordercolor="#000000"
     borderopacity="0.25"
     inkscape:showpageshadow="2"
     inkscape:pageopacity="0.0"
     inkscape:pagecheckerboard="0"
     inkscape:deskcolor="#d1d1d1"
     inkscape:document-units="mm"
     inkscape:zoom="0.45522955"
     inkscape:cx="508.53465"
     inkscape:cy="500.84623"
     inkscape:window-width="1472"
     inkscape:window-height="805"
     inkscape:window-x="0"
     inkscape:window-y="38"
     inkscape:window-maximized="0"
     inkscape:current-layer="layer1" /><defs
     id="defs1" /><g
     inkscape:label="Layer 1"
     inkscape:groupmode="layer"
     id="layer1"><path
       style="fill:#000000;stroke-width:0.764571"
       d="m 26.429065,42.57634 c -0.407895,-0.135291 -0.868155,-0.395505 -1.135594,-0.642018 -0.140775,-0.129763 -0.277356,-0.235931 -0.303516,-0.235931 -0.02616,0 -0.13789,0.06889 -0.248291,0.153105 -0.110401,0.0842 -0.381523,0.237705 -0.602494,0.341114 -0.343141,0.160575 -0.472057,0.188382 -0.883476,0.190592 -0.419963,0.0023 -0.533621,-0.02187 -0.886677,-0.188398 -0.425032,-0.200463 -0.937806,-0.638792 -1.214705,-1.038357 l -0.163985,-0.236627 -0.306559,0.174376 c -0.978912,0.556814 -1.881672,0.448872 -2.639696,-0.315638 -0.41965,-0.423236 -0.673757,-0.8292 -0.830187,-1.326324 -0.202218,-0.642638 -0.187612,-2.293232 0.03368,-3.8057 0.163701,-1.118869 0.403317,-3.219484 0.403317,-3.535712 0,-0.111965 -0.03629,-0.181339 -0.104859,-0.200476 -0.05767,-0.01609 -0.718108,-0.04753 -1.467635,-0.06987 -1.118177,-0.03332 -1.366846,-0.0261 -1.385451,0.04021 -0.181363,0.646418 -0.251411,0.806797 -0.447098,1.023663 -0.253318,0.280734 -0.509681,0.405478 -0.832327,0.405002 -0.805237,-0.0012 -1.274481,-0.49773 -1.375974,-1.456024 -0.03486,-0.329132 -0.04917,-0.35414 -0.26597,-0.464743 -0.773697,-0.394711 -1.095941,-1.05218 -1.099501,-2.243295 -0.0024,-0.783283 0.159271,-1.327805 0.513542,-1.730277 0.617041,-0.700997 1.307801,-0.802555 4.817491,-0.708289 1.153447,0.03098 2.114887,0.03957 2.136531,0.0191 0.02164,-0.02047 0.08418,-0.34731 0.138971,-0.7263 0.336229,-2.325793 0.968434,-3.695564 2.337268,-5.064059 0.803503,-0.803304 1.495904,-1.253271 2.667562,-1.733556 0.894817,-0.366803 2.471328,-0.624018 3.345757,-0.545878 0.301058,0.02691 0.427533,0.01946 0.40092,-0.0236 -0.02138,-0.0346 -0.07118,-0.06291 -0.110662,-0.06291 -0.03948,0 -0.349699,-0.13634 -0.689373,-0.30298 -1.295936,-0.635766 -1.947417,-1.623993 -2.170345,-3.292182 -0.09715,-0.72699 -0.09995,-2.396036 -0.0051,-3.055888 0.345694,-2.4055507 1.132535,-3.5651124 2.79995,-4.1262633 0.863772,-0.2906937 1.278321,-0.326653 4.068466,-0.352913 3.476086,-0.032716 5.720477,0.095066 6.681658,0.3804108 1.601187,0.4753408 2.595199,1.8650621 2.974028,4.1579725 0.187022,1.131957 0.08433,2.865355 -0.230755,3.895095 -0.481152,1.572445 -1.585216,2.426364 -3.701755,2.863061 l -0.50844,0.104905 -0.431157,0.628363 c -0.799107,1.164607 -1.420955,1.663725 -2.145272,1.721866 -0.997875,0.0801 -1.474522,-0.495986 -1.385549,-1.674604 l 0.03981,-0.527408 h -1.101254 c -0.605689,0 -1.435792,-0.01504 -1.844673,-0.03343 l -0.74342,-0.03343 0.599194,0.234025 c 0.784343,0.306337 1.092279,0.466245 1.772628,0.920506 1.28468,0.857765 2.192242,2.043949 2.680917,3.503958 0.436211,1.303266 0.511246,2.145426 0.615924,6.912889 0.113707,5.179088 0.02875,6.138828 -0.62188,7.024675 -0.123677,0.168389 -0.153472,0.309567 -0.214102,1.014464 -0.121521,1.412774 -0.466389,2.430594 -1.018068,3.004665 -0.120698,0.125596 -0.42028,0.327825 -0.665738,0.449399 -0.425035,0.21051 -0.47497,0.22103 -1.04859,0.22103 -0.657867,0 -0.915123,-0.0882 -1.341104,-0.459828 L 29.085918,41.5738 28.919072,41.800878 c -0.248255,0.337872 -0.41476,0.472153 -0.812418,0.655184 -0.292168,0.134473 -0.460146,0.168603 -0.898614,0.182587 -0.333371,0.01063 -0.630786,-0.01315 -0.778952,-0.06231 z m 1.293822,-0.956975 c 0.21318,-0.112163 0.302838,-0.214562 0.465154,-0.531232 0.192676,-0.375901 0.203285,-0.431853 0.254062,-1.339926 0.02915,-0.521201 0.06993,-1.003431 0.09063,-1.071615 0.06251,-0.205876 0.21223,-0.333682 0.390889,-0.333682 0.273013,0 0.345665,0.185676 0.411829,1.052508 0.06853,0.897813 0.173687,1.265817 0.434608,1.520916 0.221508,0.216565 0.490442,0.302403 0.943239,0.30105 0.883923,-0.0023 1.462019,-0.726243 1.708251,-2.138246 0.130259,-0.746963 0.128407,-0.75944 -0.105408,-0.71021 -0.614162,0.129312 -0.873671,0.148082 -1.239389,0.08966 -0.978426,-0.156309 -1.671507,-0.879425 -1.892979,-1.975018 -0.129566,-0.64095 -0.192395,-4.694881 -0.07611,-4.910559 0.191774,-0.355673 0.6587,-0.293336 0.758023,0.1012 0.03148,0.125049 0.07489,1.15761 0.09647,2.29458 0.02158,1.136969 0.06821,2.188552 0.103641,2.336856 0.119013,0.498248 0.444582,0.937678 0.857212,1.156995 0.328301,0.174506 0.922209,0.172128 1.265052,-0.0054 0.387721,-0.200379 0.779633,-0.680094 0.933587,-1.142766 0.12643,-0.379926 0.133708,-0.512696 0.154979,-2.825394 0.02424,-2.637262 -0.06851,-6.938651 -0.169238,-7.849438 -0.348285,-3.148767 -2.050287,-5.152343 -4.982923,-5.865854 -1.591739,-0.387271 -3.693386,-0.224224 -4.990974,0.387203 -1.989237,0.937333 -3.120205,2.408016 -3.798426,4.939377 -0.298019,1.112316 -0.439636,2.259808 -0.635962,5.153065 -0.175766,2.590279 -0.279021,3.695475 -0.479331,5.130526 -0.221539,1.587136 -0.294822,2.712103 -0.217556,3.339701 0.127179,1.033028 0.569557,1.643323 1.306401,1.802293 0.265202,0.05719 0.64356,-0.05872 0.885725,-0.2713 0.246419,-0.216359 0.365196,-0.549582 0.452402,-1.269181 0.07501,-0.618951 0.140124,-0.785344 0.343617,-0.878064 0.120384,-0.05482 0.178903,-0.05 0.292039,0.02408 0.166699,0.109227 0.174999,0.144053 0.257655,1.081295 0.07856,0.890817 0.18187,1.203374 0.523241,1.58306 0.633002,0.704047 1.539145,0.841334 2.060525,0.312182 0.268579,-0.272585 0.383162,-0.638448 0.506978,-1.618804 0.05146,-0.407417 0.120462,-0.791033 0.153348,-0.852481 0.140246,-0.262049 0.53453,-0.281966 0.667392,-0.03372 0.03735,0.06981 0.0759,0.423962 0.08565,0.787042 0.02354,0.875702 0.0741,1.331883 0.17417,1.571385 0.274251,0.656376 1.347138,1.007078 2.011514,0.657516 z M 24.065716,30.362733 c -0.314186,-0.05513 -0.650846,-0.305335 -0.797304,-0.592557 -0.13084,-0.256591 -0.140519,-0.891621 -0.01723,-1.130046 0.308489,-0.596553 1.239444,-0.799306 1.755383,-0.382306 0.349741,0.282673 0.463785,0.52426 0.463785,0.982462 0,0.332086 -0.02589,0.431956 -0.163417,0.630409 -0.28425,0.410173 -0.721024,0.583317 -1.241221,0.492038 z m 3.801414,-1.931188 c -0.325893,-0.144844 -0.469176,-0.359762 -0.497086,-0.745603 -0.02346,-0.324328 -0.0116,-0.364747 0.166572,-0.567673 0.474948,-0.540935 1.305193,-0.384652 1.48878,0.280244 0.112068,0.405878 -0.09034,0.82055 -0.488845,1.001483 -0.294225,0.133588 -0.425878,0.139793 -0.669421,0.03155 z m -7.123256,-0.69643 c -0.381595,-0.114254 -0.624285,-0.53272 -0.547213,-0.943549 0.114682,-0.611308 0.732986,-0.914765 1.246514,-0.611777 0.622784,0.367452 0.498689,1.36508 -0.193729,1.557434 -0.244803,0.06801 -0.271776,0.06789 -0.505572,-0.0021 z m -7.144022,4.65773 c 0.08726,-0.08726 0.173276,-0.294612 0.234288,-0.564777 0.05302,-0.234792 0.136674,-0.523273 0.185893,-0.64107 l 0.08949,-0.214174 h 1.800639 c 0.990351,0 1.801457,-0.0067 1.802457,-0.01498 0.03736,-0.307757 0.291581,-3.306757 0.281184,-3.317153 -0.02992,-0.02992 -3.33075,-0.145376 -4.237681,-0.148226 -1.122928,-0.0035 -1.474541,0.07895 -1.802366,0.422782 -0.37396,0.392222 -0.520481,1.241389 -0.326757,1.893728 0.157894,0.531689 0.535569,0.909452 1.070659,1.070906 0.09867,0.02977 0.105763,0.07801 0.06908,0.469465 -0.05456,0.58223 0.03399,0.908939 0.288376,1.064051 0.250141,0.15252 0.376433,0.147755 0.54474,-0.02055 z m 20.21309,-12.024371 c 0.354662,-0.216244 0.91773,-0.850972 1.378086,-1.553473 0.250451,-0.382185 0.458406,-0.700107 0.462114,-0.706494 0.0038,-0.0064 0.289146,-0.05587 0.634281,-0.109953 1.809327,-0.283542 2.724037,-0.980299 3.262249,-2.484927 0.201877,-0.564387 0.279764,-1.640063 0.201258,-2.779736 C 39.556798,9.9157128 38.671386,8.7867944 36.435597,8.5067824 34.300991,8.2394425 29.707208,8.2405695 27.849333,8.5089232 26.28604,8.7346988 25.38494,9.5056619 25.019785,10.929829 c -0.148897,0.580723 -0.267944,2.517383 -0.210325,3.421575 0.123702,1.941197 0.799513,2.894798 2.432192,3.431935 0.853571,0.280818 1.224626,0.316354 3.636426,0.34826 1.260554,0.01667 2.291875,0.04788 2.291822,0.06935 -4.6e-5,0.02147 -0.05658,0.335638 -0.125551,0.698149 -0.156943,0.82455 -0.136346,1.316446 0.06185,1.476937 0.177633,0.143842 0.463468,0.140795 0.706739,-0.0076 z m -6.264586,-4.96519 c -0.175326,-0.06256 -0.344489,-0.139477 -0.375919,-0.170906 -0.268289,-0.268289 -0.295126,-3.95764 -0.03171,-4.35966 0.05126,-0.07823 0.180279,-0.161355 0.28672,-0.184733 0.168615,-0.03704 0.215676,-0.01772 0.365542,0.150008 l 0.172012,0.192514 -0.0416,0.675516 -0.0416,0.675514 0.472019,0.02818 c 0.72548,0.0433 1.088671,0.272891 1.343691,0.849404 0.175091,0.395825 0.179722,0.997866 0.01023,1.330097 -0.38287,0.750487 -1.333414,1.108834 -2.159386,0.814071 z m 1.055041,-0.847763 c 0.463331,-0.210288 0.548983,-0.776012 0.171222,-1.1309 -0.120838,-0.113522 -0.197943,-0.131617 -0.495343,-0.116251 l -0.352227,0.0182 -0.01768,0.509314 c -0.02078,0.598708 0.01013,0.760357 0.152539,0.797576 0.196502,0.05136 0.284526,0.03869 0.541488,-0.07794 z m 3.27833,0.902077 c -0.809256,-0.197013 -1.324425,-1.114353 -1.086135,-1.93404 0.240845,-0.828476 1.112715,-1.373336 1.896646,-1.185274 0.353358,0.08477 0.78531,0.441909 0.968593,0.800845 0.192786,0.377541 0.211618,0.941871 0.04626,1.385828 -0.287563,0.771943 -0.996831,1.134339 -1.825335,0.932641 z m 0.871226,-0.934808 c 0.360766,-0.326491 0.263337,-1.114863 -0.162777,-1.317065 -0.391456,-0.185758 -0.724913,0.04873 -0.914985,0.643438 -0.09033,0.28263 -8.41e-4,0.492146 0.296415,0.693694 0.240746,0.163253 0.588654,0.154318 0.781347,-0.02007 z m 3.353091,0.96119 c -0.04947,-0.01226 -0.186609,-0.03797 -0.304827,-0.05713 -0.53611,-0.08688 -1.01178,-0.780351 -1.012812,-1.476538 -7.65e-4,-0.754246 0.531239,-1.477319 1.232152,-1.673562 0.251445,-0.0704 0.337619,-0.06772 0.681011,0.02122 0.70024,0.181352 1.076815,0.545135 1.205377,1.164441 0.134756,0.649103 -0.05528,1.308375 -0.463682,1.608877 -0.429161,0.315756 -1.007911,0.494369 -1.337219,0.412691 z m 0.580959,-0.926427 c 0.301035,-0.183551 0.397447,-0.375781 0.363844,-0.725444 -0.05061,-0.527188 -0.464874,-0.817249 -0.904656,-0.633496 -0.548434,0.229149 -0.609967,1.25747 -0.08433,1.409302 0.297877,0.08604 0.417196,0.07643 0.625144,-0.05036 z"
       id="path1" /></g></svg>
