<?xml version="1.0" encoding="UTF-8" standalone="no"?>
<!-- Created with Inkscape (http://www.inkscape.org/) -->

<svg
   width="172.71844mm"
   height="54.791008mm"
   viewBox="0 0 172.71844 54.791008"
   version="1.1"
   id="svg1"
   xmlns="http://www.w3.org/2000/svg"
   xmlns:svg="http://www.w3.org/2000/svg">
  <defs
     id="defs1" />
  <g
     id="layer1"
     transform="translate(-19.925824,-10.506654)">
    <path
       style="fill:#da3577;fill-opacity:1;stroke:#000000;stroke-width:0.191549;stroke-dasharray:none;stroke-opacity:1"
       d="M 43.597215,65.116849 C 40.23734,64.649986 37.199671,62.210927 35.996263,59.01376 35.579458,57.906415 35.310625,56.078959 35.42339,55.119526 c 0.09486,-0.80713 0.02158,-0.881515 -0.481114,-0.488392 -0.53771,0.420488 -1.781598,1.003698 -2.702279,1.266989 -2.530531,0.723667 -5.615181,0.293435 -7.638764,-1.065422 -2.164192,-1.453277 -3.465641,-3.163984 -4.169674,-5.480867 -0.393103,-1.29364 -0.364595,-3.952483 0.05676,-5.294406 0.837058,-2.665815 2.455118,-4.641491 4.761159,-5.813459 l 0.67244,-0.341743 -0.81418,-0.434146 c -0.968913,-0.516666 -2.482975,-1.795965 -3.129562,-2.644317 -0.666463,-0.874429 -1.419635,-2.39335 -1.700631,-3.429663 -0.366733,-1.352503 -0.331399,-3.627647 0.07694,-4.953857 1.316326,-4.275186 4.95871,-7.02776 9.283456,-7.015577 1.685709,0.0045 4.019135,0.768501 5.275366,1.726675 0.241594,0.184277 0.46609,0.335045 0.498877,0.335045 0.03275,0 0.02931,-0.423573 -0.0077,-0.941266 -0.182942,-2.556894 1.053246,-5.553572 3.06132,-7.421011 1.864411,-1.733839 3.907315,-2.521815 6.537668,-2.52168 2.164359,1.08e-4 3.801823,0.55841 5.661893,1.930451 2.438632,1.7988 3.988341,5.032871 3.802117,7.934605 l -0.06437,1.002983 0.563653,-0.386035 c 2.422401,-1.659033 5.760789,-2.091168 8.467615,-1.096083 2.222998,0.817226 4.326668,2.632116 5.325214,4.594198 0.82218,1.615539 1.065326,2.615802 1.070395,4.403428 0.0051,1.687817 -0.219234,2.739 -0.876484,4.112727 -0.831962,1.738889 -2.463207,3.448166 -4.147505,4.345886 l -0.826433,0.440487 0.798083,0.480009 c 2.070902,1.245542 3.14225,2.374737 4.046253,4.264747 1.301098,2.720202 1.248613,5.931051 -0.139518,8.535449 -1.240453,2.327329 -3.527889,4.140731 -6.067198,4.809884 -1.215188,0.320219 -3.476209,0.313413 -4.74745,-0.0143 -1.015709,-0.261843 -2.248232,-0.80537 -2.934667,-1.294146 -0.225709,-0.160723 -0.43179,-0.291844 -0.45795,-0.291378 -0.02618,4.72e-4 -0.05325,0.697105 -0.06015,1.548081 -0.0106,1.303896 -0.07172,1.720368 -0.388545,2.648092 -0.668545,1.957639 -1.728067,3.452756 -3.32627,4.693791 -1.909707,1.482922 -4.639021,2.194183 -7.10491,1.851539 z m 4.020763,-12.546497 c 2.634421,-0.487097 5.663343,-2.020512 7.687021,-3.891609 0.605602,-0.559949 1.7704,-2.017402 2.390904,-2.991627 2.269979,-3.564015 2.791529,-8.241767 1.40046,-12.560702 -0.737464,-2.289639 -1.70162,-3.817039 -3.62114,-5.736559 -1.90956,-1.909567 -3.306643,-2.794352 -5.793136,-3.668856 -1.602533,-0.563615 -2.9377,-0.770405 -4.88506,-0.7566 -7.079586,0.05018 -13.043884,5.027437 -14.501363,12.101501 -1.220826,5.925446 1.636034,12.429395 6.83849,15.568579 3.035435,1.831594 7.044285,2.571842 10.483824,1.935873 z m -4.715091,-6.257337 c -2.012351,-0.363822 -3.667125,-1.266382 -5.257245,-2.867446 -1.077918,-1.085337 -1.999486,-2.479355 -1.999486,-3.024542 0,-0.473778 0.453882,-0.908103 0.948992,-0.908103 0.429255,0 0.771324,0.340102 1.665539,1.655988 0.570006,0.838787 1.821351,1.931754 2.751093,2.402888 1.666618,0.84454 4.214458,1.142227 5.91816,0.691473 1.988006,-0.525968 3.959449,-1.984672 5.091466,-3.767267 0.469245,-0.73892 0.714887,-0.996267 1.014145,-1.062453 0.544044,-0.120331 1.104504,0.307015 1.16202,0.886042 0.09298,0.935961 -1.98141,3.500255 -3.726806,4.606968 -2.193123,1.390596 -4.851328,1.877584 -7.567878,1.386452 z M 40.955937,36.140529 C 40.2032,35.44292 39.980664,34.672892 39.98189,32.77017 c 6.39e-4,-1.499957 0.04144,-1.807924 0.316337,-2.406406 0.620875,-1.351795 1.353155,-1.67647 2.138564,-0.9482 0.759352,0.704109 0.973261,1.441413 0.973261,3.354606 0,1.952806 -0.219483,2.675706 -1.015856,3.345809 -0.548009,0.461116 -0.959616,0.46814 -1.438259,0.02452 z m 6.469464,-0.102185 c -0.625746,-0.603457 -0.926906,-1.454676 -1.010224,-2.855353 -0.124998,-2.101499 0.616776,-4.008134 1.596377,-4.103258 0.642361,-0.06238 1.088932,0.289444 1.51147,1.190766 0.334483,0.713488 0.36547,0.925412 0.36547,2.499671 0,1.575262 -0.03084,1.78589 -0.366325,2.501543 -0.246473,0.52579 -0.503111,0.85219 -0.784407,0.997652 -0.595303,0.307845 -0.788927,0.273756 -1.312361,-0.231021 z"
       id="path1" />
    <path
       d="m 106.65305,13.7885 c -2.45011,0.0018 -4.38271,0.25225 -6.56071,0.850633 -6.98003,1.917687 -12.67619,6.615704 -15.84389,13.067841 -1.32469,2.698186 -2.06635,5.252289 -2.44442,8.417844 -0.12722,1.065186 -0.12707,4.136728 3.1e-4,5.199027 0.57311,4.779635 2.24465,8.933873 5.11359,12.708659 0.88775,1.168054 3.37934,3.637676 4.59152,4.551105 3.64249,2.744745 7.71928,4.395769 12.17281,4.929881 1.33528,0.160157 4.38153,0.164395 5.68069,0.0076 9.64629,-1.161562 17.54152,-7.435332 20.76825,-16.503132 1.0179,-2.860521 1.3931,-5.085116 1.39843,-8.293827 0.003,-2.133944 -0.0499,-2.784803 -0.37723,-4.580189 -1.38072,-7.572239 -6.32841,-14.150266 -13.3171,-17.705301 -3.58356,-1.8229 -7.08558,-2.653102 -11.18225,-2.650494 z m -0.25598,1.907647 c 0.95041,-0.0079 1.90795,0.01926 2.52556,0.0842 5.4486,0.573244 10.4101,2.971164 14.19835,6.862022 3.61852,3.716535 5.69401,8.017599 6.40669,13.276059 0.13978,1.031282 0.13978,4.58051 0,5.611792 -0.69745,5.146094 -2.8428,9.592643 -6.40179,13.267794 -3.65517,3.774474 -8.31232,6.094846 -13.62574,6.789141 -1.61712,0.2113 -4.13738,0.208531 -5.73551,-0.0068 -5.2977,-0.712572 -9.75298,-2.895354 -13.45856,-6.59378 -3.66563,-3.658545 -5.88637,-8.20293 -6.55979,-13.424549 -0.28492,-2.209188 -0.15851,-5.373907 0.30253,-7.580065 0.93451,-4.471833 2.97452,-8.228375 6.25879,-11.524885 3.7755,-3.78956 8.19835,-5.94624 13.60646,-6.635119 0.58936,-0.07508 1.53259,-0.118211 2.48301,-0.126157 z m -7.74879,8.860916 c -0.23972,-0.0051 -0.4835,0.02364 -0.72938,0.08665 -0.70267,0.180022 -1.1506,0.458648 -1.72667,1.074473 -0.60342,0.645051 -1.10228,1.627293 -1.38925,2.735931 -0.28709,1.109026 -0.36213,2.944259 -0.16627,4.065459 0.39976,2.288486 1.48615,3.988273 2.91536,4.561506 0.2968,0.119052 0.55887,0.153167 1.05916,0.13749 0.56991,-0.01781 0.74398,-0.06121 1.22115,-0.303446 1.12961,-0.573563 2.02222,-1.887482 2.5029,-3.684548 0.19568,-0.731601 0.21993,-0.974246 0.22598,-2.263767 0.005,-1.132673 -0.0263,-1.586424 -0.14636,-2.104227 -0.60919,-2.627491 -2.0885,-4.272875 -3.76662,-4.305521 z m 15.95749,3.04e-4 c -0.19715,0.0068 -0.39598,0.03554 -0.59556,0.08666 -1.91242,0.489934 -3.22291,2.774242 -3.36671,5.869 -0.10127,2.179438 0.5629,4.338066 1.72943,5.621593 0.43329,0.476731 0.76841,0.71036 1.362,0.950144 0.29366,0.11863 0.53963,0.149596 1.02119,0.127992 1.4423,-0.06467 2.66703,-1.139452 3.36701,-2.954558 0.8549,-2.216821 0.82426,-4.81381 -0.0815,-6.935512 -0.7664,-1.795335 -2.05586,-2.813025 -3.43591,-2.765318 z m 6.57817,15.869916 c -0.67147,0.13429 -1.03274,0.852181 -0.7502,1.490901 0.15588,0.352386 0.56579,0.68408 0.84635,0.684671 0.13495,2.87e-4 0.13573,0.0217 0.0111,0.350908 -0.29426,0.776843 -1.12402,2.420126 -1.55981,3.088672 -2.13183,3.270542 -5.4372,5.668675 -9.13405,6.627464 -1.47333,0.382128 -2.43663,0.506507 -3.9442,0.507689 -5.43684,0.0051 -10.39366,-2.696751 -13.31648,-7.258553 -0.6053,-0.944716 -1.65649,-3.179932 -1.53071,-3.254628 0.0186,-0.01106 0.20408,-0.105764 0.41245,-0.210363 0.77307,-0.388071 0.86702,-1.291462 0.18954,-1.824359 -0.32935,-0.259074 -0.7276,-0.219236 -2.42604,0.242502 -1.78249,0.484591 -1.97808,0.60859 -2.03688,1.290036 -0.0425,0.492568 0.16785,0.873396 0.59466,1.07692 0.24007,0.114485 0.36326,0.123999 0.70548,0.05386 0.22807,-0.04669 0.43081,-0.05901 0.45043,-0.02727 0.0196,0.03174 0.14825,0.363429 0.286,0.73703 0.13775,0.373601 0.47402,1.117814 0.74743,1.654114 2.82157,5.534309 8.26127,9.173082 14.48007,9.686132 0.77268,0.06374 3.05074,-0.02364 3.88234,-0.148811 6.42068,-0.966657 11.6877,-5.129877 14.06424,-11.117338 l 0.34846,-0.878495 0.28661,0.07902 c 0.58551,0.161668 1.11524,-0.08641 1.35862,-0.636593 0.23718,-0.536198 0.0577,-1.068175 -0.44828,-1.329849 -0.51859,-0.268175 -3.21146,-0.944817 -3.51706,-0.883696 z"
       style="fill:#f8d653;fill-opacity:1;stroke:#6d612e;stroke-width:0.177762;stroke-dasharray:none;stroke-opacity:1"
       id="path332" />
    <path
       d="m 167.58298,14.612835 c -0.0572,1.14e-4 -0.11183,0.0031 -0.16876,0.0034 -9.6e-4,1.3e-5 -0.002,-1.4e-5 -0.003,0 -0.002,2.4e-5 -0.004,2.23e-4 -0.006,2.47e-4 -0.33303,0.0025 -0.66383,0.0076 -0.98752,0.02079 -0.0269,0.0011 -0.0526,0.0038 -0.0794,0.005 -0.0874,0.0036 -0.17562,0.007 -0.26228,0.01138 -0.14473,0.0061 -0.27353,0.01238 -0.41,0.02004 l -0.1022,10e-4 0.0671,0.002 c -0.41284,0.02381 -0.8104,0.05094 -1.10011,0.08908 -0.21831,0.02874 -0.4336,0.06446 -0.64977,0.09823 -0.22011,0.03092 -0.43963,0.0658 -0.65695,0.102934 -0.0343,0.0058 -0.0695,0.0096 -0.10367,0.01559 -0.0802,0.01398 -0.15849,0.03246 -0.23829,0.04726 -0.24751,0.04635 -0.49592,0.09263 -0.74132,0.147473 -0.0234,0.0052 -0.0474,0.0089 -0.0708,0.01411 -0.3473,0.07763 -0.6922,0.163152 -1.03527,0.257088 -0.34308,0.09393 -0.68451,0.196272 -1.02514,0.306822 -0.34062,0.11055 -0.68047,0.22933 -1.02043,0.356805 -0.079,0.02963 -0.15398,0.06614 -0.23259,0.0965 -9.6e-4,3.49e-4 -0.002,6.22e-4 -0.003,0.001 -0.0842,0.0319 -0.17007,0.06049 -0.25387,0.09328 -0.37064,0.14507 -0.73558,0.301698 -1.09763,0.464193 -0.0337,0.01501 -0.0685,0.0279 -0.10219,0.04306 -0.10979,0.04946 -0.21624,0.104793 -0.32514,0.155885 -0.11285,0.05331 -0.22749,0.10309 -0.33948,0.158113 -9.6e-4,4.79e-4 -0.002,0.001 -0.003,0.0015 -0.0504,0.02457 -0.0995,0.05129 -0.1497,0.07621 -0.0592,0.02947 -0.12003,0.0559 -0.1789,0.08586 -0.0919,0.04675 -0.18054,0.09879 -0.27169,0.146731 -0.18891,0.09893 -0.37674,0.199867 -0.56292,0.303853 -0.0445,0.02501 -0.0906,0.04744 -0.13485,0.07275 -0.036,0.02057 -0.0698,0.04385 -0.10565,0.06458 -0.13079,0.07506 -0.2635,0.146581 -0.39294,0.224178 -0.0896,0.05374 -0.17675,0.112312 -0.26574,0.167268 -0.0786,0.04826 -0.1561,0.09783 -0.23408,0.146978 -0.11946,0.07569 -0.24075,0.147996 -0.35903,0.225911 -0.21413,0.141047 -0.42436,0.289114 -0.63468,0.437469 -0.13025,0.09133 -0.25933,0.183801 -0.38773,0.277625 -1.5e-4,1.07e-4 -3.5e-4,1.41e-4 -4.8e-4,2.48e-4 -0.001,0.0012 -0.003,0.0023 -0.005,0.0034 -0.002,0.0017 -0.005,0.0032 -0.007,0.005 -4.8e-4,3.78e-4 -9.6e-4,8.61e-4 -0.001,0.0012 -1.9e-4,1.37e-4 -3.1e-4,3.59e-4 -4.8e-4,4.79e-4 -0.10371,0.07577 -0.2037,0.155389 -0.30608,0.232591 -0.14928,0.113512 -0.29857,0.227069 -0.44588,0.344434 -0.13398,0.106201 -0.27036,0.209022 -0.40209,0.317957 -0.0435,0.03583 -0.0869,0.07178 -0.13015,0.107883 -1.8e-4,1.49e-4 -3.2e-4,3.45e-4 -4.8e-4,4.79e-4 -0.015,0.0125 -0.0313,0.02359 -0.0463,0.03613 -0.0191,0.01596 -0.0364,0.03372 -0.0554,0.04973 -9e-5,7.5e-5 -1.6e-4,1.72e-4 -2.5e-4,2.47e-4 -0.0246,0.02068 -0.0473,0.04331 -0.0718,0.06409 -0.004,0.0032 -0.007,0.0067 -0.0112,0.0099 -0.0403,0.0342 -0.0777,0.07121 -0.11778,0.105655 -0.001,0.0013 -0.003,0.0027 -0.004,0.004 -0.24108,0.207905 -0.48445,0.413465 -0.71682,0.62973 -0.0478,0.04451 -0.0919,0.09248 -0.13931,0.137327 -0.001,0.0012 -0.003,0.0025 -0.004,0.0037 -0.0435,0.04108 -0.0907,0.07838 -0.13386,0.11976 -1.3e-4,1.22e-4 -1.2e-4,3.73e-4 -2.5e-4,4.79e-4 -1.7e-4,1.61e-4 -3.3e-4,3.33e-4 -4.8e-4,4.79e-4 -8e-5,8e-5 -1.6e-4,1.67e-4 -2.4e-4,2.47e-4 -0.0145,0.01386 -0.0276,0.02891 -0.0421,0.04281 -0.0661,0.06349 -0.12743,0.131294 -0.19276,0.195475 -0.0437,0.04282 -0.0846,0.08826 -0.12792,0.13139 -0.20434,0.204329 -0.40669,0.410179 -0.6035,0.621068 -8e-5,8.5e-5 -1.7e-4,1.62e-4 -2.5e-4,2.48e-4 -0.0482,0.05161 -0.10023,0.09967 -0.14797,0.151679 -0.0187,0.02036 -0.0393,0.03897 -0.0579,0.05938 -1.6e-4,1.72e-4 -3.4e-4,3.23e-4 -4.8e-4,4.79e-4 -0.008,0.0085 -0.0145,0.01774 -0.0223,0.02623 -2e-4,2.19e-4 -3e-4,5.27e-4 -4.8e-4,7.19e-4 -0.10727,0.117601 -0.20753,0.240947 -0.31252,0.360516 -0.0677,0.07745 -0.14034,0.150876 -0.2071,0.229127 -0.0855,0.100279 -0.16377,0.20624 -0.24769,0.307813 -0.20204,0.243502 -0.40189,0.488202 -0.59459,0.739096 -0.008,0.0099 -0.016,0.01907 -0.0235,0.02895 -0.0474,0.05388 -0.11143,0.138487 -0.14945,0.179145 -0.0513,0.05485 -0.088,0.119861 -0.11209,0.178402 -0.007,0.0094 -0.0138,0.0188 -0.0208,0.02821 -0.0431,0.05839 -0.0884,0.115481 -0.13089,0.174196 -0.035,0.01417 -0.0631,0.04317 -0.0631,0.08438 0,2.77e-4 -0.003,0.0044 -0.003,0.0047 -0.009,0.01255 -0.0172,0.02554 -0.0262,0.0381 -0.027,0.03802 -0.0558,0.07465 -0.0826,0.112832 -0.13839,0.196314 -0.27206,0.395557 -0.40481,0.595829 -0.0187,0.02818 -0.0391,0.05538 -0.0577,0.08364 -0.0954,0.144993 -0.18467,0.293387 -0.27688,0.440191 -0.009,0.01458 -0.0186,0.02895 -0.0277,0.04355 -0.0177,0.02853 -0.0366,0.05627 -0.0542,0.08487 -0.16349,0.263907 -0.32306,0.529888 -0.47681,0.799965 -0.0103,0.01795 -0.0195,0.03646 -0.0297,0.05444 -0.0321,0.0086 -0.0547,0.03126 -0.0473,0.0631 0.001,0.0066 -0.006,0.02302 -0.006,0.03167 -4.8e-4,0.0015 -0.001,0.0034 -0.002,0.005 -0.0419,0.07507 -0.087,0.148439 -0.12818,0.223931 -0.0156,0.02857 -0.0296,0.05798 -0.0451,0.0866 -0.0103,0.01899 -0.0219,0.0374 -0.0322,0.05642 -0.0231,0.04282 -0.0432,0.08697 -0.0661,0.129905 -0.007,0.01269 -0.0138,0.02516 -0.0205,0.03786 -0.006,0.0024 -0.0144,0.01559 -0.0191,0.01559 -0.0232,0 -0.0378,0.01069 -0.0426,0.02771 -0.002,0.0093 0.005,0.02368 0.009,0.03613 -0.0206,0.0277 -0.0384,0.05588 -0.0614,0.104419 -0.005,0.008 -0.0121,0.01592 -0.0163,0.02375 -0.003,0.0055 -0.002,0.0082 -0.005,0.01361 -0.0218,0.01421 -0.0357,0.03412 -0.0277,0.06087 9.6e-4,0.0034 -0.0105,0.02966 -0.0109,0.03563 -0.087,0.170456 -0.166,0.345046 -0.24917,0.51764 -0.0479,0.0996 -0.0923,0.200678 -0.13881,0.300884 -0.0957,0.205548 -0.19478,0.4092 -0.28505,0.617604 -0.0119,0.01568 -0.0361,0.0625 -0.044,0.06829 -0.0517,0.03795 -0.066,0.06971 -0.0322,0.07052 0.003,7.2e-5 -0.012,0.04434 -0.0116,0.05122 -0.006,0.01359 -0.0128,0.02648 -0.0186,0.04009 -0.46984,1.115469 -0.85532,2.27261 -1.16271,3.459425 -0.0343,0.130834 -0.0593,0.264406 -0.0916,0.3959 -0.0939,0.388293 -0.18919,0.775973 -0.265,1.170627 -0.10569,0.544535 -0.19467,1.093444 -0.26352,1.646697 -0.0777,0.624006 -0.1162,1.747315 -0.11852,2.877699 -7e-5,0.0309 -0.002,0.05842 -0.002,0.08932 0,8.6e-5 0,1.62e-4 0,2.48e-4 -5e-5,0.218314 0.008,0.414855 0.0111,0.629481 0,8.4e-5 0,1.63e-4 0,2.48e-4 0.002,0.355569 0.002,0.705948 0.018,1.032309 0,8.2e-5 0,1.66e-4 0,2.47e-4 1.4e-4,0.0036 1.1e-4,0.0081 2.5e-4,0.01163 0,1.52e-4 -1e-5,3.43e-4 0,4.79e-4 1.7e-4,0.0043 4.8e-4,0.0064 9.6e-4,0.01064 2e-5,4.79e-4 -2e-5,7.66e-4 0,0.0012 0.0123,0.252545 0.0293,0.489934 0.0502,0.717817 2e-5,1.72e-4 2.4e-4,3.22e-4 2.5e-4,4.79e-4 0.0134,0.177814 0.0211,0.410697 0.0381,0.545352 0.0733,0.58051 0.17232,1.152676 0.28282,1.720682 0.002,0.01178 0.003,0.02408 0.006,0.03586 0.004,0.02169 0.0105,0.04242 0.0148,0.06409 0.10216,0.514345 0.22001,1.022742 0.35211,1.525701 0.0175,0.0667 0.0342,0.133706 0.0522,0.200175 0.1943,0.716235 0.4188,1.419633 0.67253,2.109901 0.0203,0.05525 0.038,0.11203 0.0586,0.167022 0.0202,0.05371 0.045,0.109512 0.0658,0.163556 0.091,0.237218 0.18291,0.473846 0.28084,0.707669 0.0161,0.03826 0.0337,0.07587 0.05,0.114069 0.001,0.0038 0.003,0.0077 0.005,0.01164 0.009,0.02227 0.0194,0.04429 0.029,0.06656 0.005,0.01159 0.0103,0.02303 0.0153,0.03467 0.0394,0.09219 0.0799,0.18381 0.1205,0.275399 0.10542,0.236987 0.21182,0.473228 0.32439,0.706433 0.0549,0.113907 0.11337,0.225793 0.16999,0.338742 0.0129,0.02567 0.0253,0.05157 0.0384,0.0772 0.0172,0.0339 0.0344,0.06786 0.0517,0.101697 0.75185,1.469209 1.64706,2.857149 2.67579,4.149281 0.0201,0.0249 0.0326,0.044 0.0532,0.06929 3e-4,3.59e-4 4.5e-4,4.79e-4 9.6e-4,9.58e-4 0.0101,0.01269 0.0199,0.02672 0.0299,0.03936 4.8e-4,9.57e-4 0.001,0.0019 0.002,0.0029 0.0256,0.03131 0.0549,0.06424 0.0812,0.09601 0.75846,0.931915 1.58677,1.811624 2.4818,2.633726 0.0725,0.06655 0.14566,0.132408 0.21898,0.198198 9e-5,7.7e-5 1.7e-4,1.68e-4 2.5e-4,2.44e-4 0.007,0.0066 0.0149,0.01494 0.022,0.02155 2.4e-4,2.25e-4 4.8e-4,4.79e-4 9.6e-4,9.58e-4 0.0233,0.02169 0.0398,0.03385 0.0628,0.05518 0.001,0.0014 0.002,0.0019 0.003,0.0034 0.0411,0.03653 0.0808,0.0743 0.12223,0.110603 0.02,0.01791 0.0399,0.03639 0.0599,0.05419 0.0849,0.07402 0.1698,0.147965 0.25585,0.220962 1.8e-4,1.53e-4 3.2e-4,3.49e-4 4.8e-4,4.78e-4 0.125,0.109176 0.271,0.246679 0.37908,0.33404 0.28999,0.234431 0.584,0.459932 0.88062,0.67996 0.007,0.0074 0.0234,0.0193 0.0297,0.026 0.0122,0.01283 0.0279,0.02088 0.0413,0.03289 0.003,0.0043 0.0562,0.04731 0.0572,0.04973 0.0172,0.04496 0.0735,0.08165 0.12496,0.08165 0.004,0 0.0363,0.02059 0.0435,0.02303 0.0511,0.03682 0.1021,0.07395 0.15341,0.110359 0.007,0.0088 0.006,0.02006 0.0168,0.02696 0.009,0.0057 0.023,0.0053 0.0337,0.0094 0.0152,0.01077 0.0303,0.02193 0.0455,0.03266 0.006,0.0043 0.0126,0.0094 0.0191,0.01384 0.0607,0.04257 0.12068,0.0867 0.18163,0.128669 9.5e-4,9.57e-4 9.5e-4,0.0024 0.002,0.0034 0.001,9.57e-4 0.004,4.26e-4 0.005,0.0014 0.0862,0.05931 0.17409,0.114826 0.2608,0.17296 0.01,0.01178 0.0221,0.01796 0.0371,0.02475 0.0854,0.05701 0.17072,0.114112 0.25659,0.169986 0.002,0.0019 0.001,0.0052 0.004,0.0069 0.003,0.0019 0.008,0.0014 0.0104,0.0029 0.0714,0.0464 0.14154,0.09569 0.21329,0.14129 0.0663,0.04214 0.13428,0.08074 0.20092,0.122234 0.007,0.0043 0.0142,0.0087 0.0213,0.01312 0.096,0.05966 0.19284,0.117661 0.2895,0.175929 0.0173,0.01044 0.0344,0.02126 0.0517,0.03165 0.0145,0.0087 0.0288,0.01752 0.0433,0.02624 0.011,0.0065 0.0217,0.0135 0.0327,0.02006 0.0169,0.0101 0.0336,0.02064 0.0505,0.03069 0.13416,0.07936 0.26947,0.156149 0.4048,0.232837 0.006,0.0034 0.0123,0.0074 0.0186,0.01087 0.033,0.02054 0.0607,0.03898 0.10071,0.05741 0.0249,0.01393 0.0507,0.02624 0.0757,0.04008 0.13953,0.07742 0.27792,0.157498 0.41867,0.232099 0.0866,0.05576 0.25042,0.138738 0.44687,0.233578 0.0583,0.02954 0.1189,0.05358 0.17741,0.08264 0.11584,0.05726 0.23151,0.11485 0.34815,0.17024 0.0385,0.01839 0.0777,0.03505 0.1163,0.0532 0.0376,0.01762 0.0756,0.03428 0.11332,0.05171 0.0493,0.02246 0.0978,0.04534 0.14747,0.06755 0.001,4.79e-4 0.003,9.58e-4 0.004,0.0019 0.003,0.0014 0.006,0.0029 0.009,0.0043 0.0194,0.0088 0.0381,0.01872 0.0574,0.02748 0.002,9.58e-4 0.004,0.0014 0.005,0.0024 0.0287,0.01302 0.0564,0.02839 0.0851,0.04132 4.7e-4,2.3e-4 9.5e-4,4.79e-4 10e-4,9.57e-4 0.0275,0.01235 0.0559,0.02212 0.0834,0.03438 9.6e-4,3.3e-4 0.001,4.79e-4 0.002,9.57e-4 0.069,0.03041 0.13762,0.06152 0.20686,0.09131 0.1644,0.07097 0.33093,0.136837 0.49685,0.204136 10e-4,4.78e-4 0.003,0.0014 0.005,0.0019 0.0501,0.02025 0.0997,0.04171 0.14995,0.06161 0.0145,0.0057 0.0288,0.01207 0.0433,0.01781 0.0653,0.02576 0.1304,0.05223 0.19597,0.07745 9.6e-4,3.45e-4 0.002,4.79e-4 0.003,9.58e-4 0.0747,0.02911 0.14756,0.06366 0.22244,0.09204 0.11505,0.04357 0.23237,0.07816 0.3479,0.120006 8e-5,2.9e-5 1.8e-4,-2.3e-5 2.5e-4,0 4.2e-4,1.54e-4 9.6e-4,3.45e-4 0.001,4.79e-4 0.0968,0.03486 0.191,0.0772 0.28826,0.110852 4.2e-4,1.44e-4 9.6e-4,3.5e-4 10e-4,4.79e-4 0.0157,0.0055 0.032,0.0092 0.0477,0.0146 4.3e-4,1.44e-4 9.6e-4,3.5e-4 0.001,4.79e-4 0.0141,0.0049 0.0277,0.01125 0.0418,0.01609 0.0953,0.03285 0.19247,0.0562 0.28802,0.08784 4.8e-4,2.25e-4 0.001,4.79e-4 0.002,9.58e-4 0.13852,0.04578 0.27516,0.09954 0.41421,0.142774 0.0275,0.0085 0.0554,0.01456 0.0829,0.02303 0.16019,0.04919 0.32195,0.0883 0.48275,0.134108 1.5e-4,4.3e-5 3.4e-4,-4.3e-5 4.8e-4,0 9.5e-4,2.58e-4 0.002,4.79e-4 0.003,9.57e-4 0.0837,0.02365 0.16524,0.05417 0.24917,0.07696 4.1e-4,1.1e-4 9.6e-4,1.34e-4 0.001,2.44e-4 0.006,0.0014 0.0119,0.0024 0.0178,0.0043 1.7e-4,4.8e-5 3.2e-4,2.01e-4 4.8e-4,2.49e-4 0.11706,0.03194 0.23428,0.06047 0.35161,0.09056 0.0879,0.02255 0.17495,0.05124 0.26302,0.07275 0.26211,0.06403 0.52544,0.111704 0.78834,0.166524 4.8e-4,1.06e-4 9.6e-4,1.49e-4 0.001,2.49e-4 0.0746,0.01561 0.14766,0.0373 0.22244,0.05221 0.011,0.0024 0.0222,0.0034 0.0331,0.0057 0.0586,0.01154 0.11658,0.02878 0.17518,0.03984 0.0366,0.0069 0.0735,0.0099 0.11011,0.01657 8e-5,1.4e-5 1.7e-4,-1.4e-5 2.5e-4,0 0.0435,0.008 0.0868,0.01973 0.1304,0.02748 3.3e-4,6.2e-5 4.8e-4,1.92e-4 9.6e-4,2.49e-4 0.25959,0.04616 0.51922,0.0754 0.77893,0.112336 4.8e-4,1.06e-4 0.001,1.44e-4 0.002,2.49e-4 0.001,2.01e-4 0.003,4.79e-4 0.004,9.58e-4 0.14676,0.02169 0.29143,0.05293 0.43871,0.07201 3.4e-4,4.3e-5 4.8e-4,2.01e-4 9.6e-4,2.44e-4 0.0589,0.0076 0.11872,0.0096 0.17766,0.01681 9.5e-4,1.15e-4 0.002,1.39e-4 0.003,2.49e-4 0.0199,0.0024 0.0398,0.0065 0.0596,0.0087 0.49076,0.0543 1.0403,0.116109 1.2211,0.137081 0.17088,0.01987 0.51541,0.02724 0.95091,0.025 1.1e-4,0 1.3e-4,0 2.5e-4,0 0.005,-2.4e-5 0.006,2.73e-4 0.0119,2.49e-4 0.15547,-9.58e-4 0.35992,-0.0084 0.53471,-0.0114 10e-4,-1.5e-5 0.002,1.9e-5 0.004,0 0.0108,-1.2e-4 0.0188,4.79e-4 0.0297,4.79e-4 0.002,9.57e-4 -4.1e-4,0.0024 0.003,0.0034 0.0296,0.0078 0.0996,0.01288 0.2029,0.01336 0.0204,1.01e-4 0.0247,-0.0019 0.0428,-0.0024 0.002,0 0.002,2.44e-4 0.004,2.44e-4 0.11623,0 0.19824,-0.0043 0.23655,-0.01187 0.0166,-0.0034 0.0208,-0.0073 0.0203,-0.0114 0.004,-1.25e-4 0.009,-3.69e-4 0.0126,-4.79e-4 0.066,-9.58e-4 0.1313,-0.006 0.19721,-0.0074 8e-5,0 1.6e-4,5e-6 2.4e-4,0 0.0827,-0.0024 0.14996,-0.0019 0.23334,-0.0049 0.10389,-0.0034 0.19625,-0.0099 0.30014,-0.01384 9e-5,-4e-6 1.7e-4,0 2.5e-4,0 0.0427,-0.0019 0.0858,-4.78e-4 0.12842,-0.0024 0.0146,-4.78e-4 0.029,-0.0024 0.0436,-0.0034 0.009,-4.12e-4 0.0179,-7.2e-5 0.0267,-4.79e-4 0.0345,-0.0014 0.0687,-0.0059 0.10318,-0.0077 8e-5,-5e-6 1.7e-4,4e-6 2.5e-4,0 0.0306,-0.0014 0.0591,-0.0029 0.0896,-0.0043 3.4e-4,-1.4e-5 4.8e-4,1.5e-5 9.6e-4,0 0.0626,-0.0038 0.12583,-0.0034 0.1883,-0.0074 0.009,-4.79e-4 0.0174,-0.0019 0.0262,-0.0024 8e-5,-4e-6 1.7e-4,5e-6 2.5e-4,0 0.22162,-0.01058 0.46276,-0.01824 0.66338,-0.03045 0.47516,-0.02882 0.87336,-0.06142 1.10975,-0.09502 0.002,-2.44e-4 0.003,-4.79e-4 0.005,-9.57e-4 0.0598,-0.0085 0.11854,-0.02002 0.17816,-0.02897 0.28172,-0.04209 0.56295,-0.08574 0.84178,-0.136833 0.0843,-0.01542 0.16716,-0.03471 0.25115,-0.05097 0.0865,-0.01681 0.17161,-0.03505 0.25808,-0.0527 0.17043,-0.03476 0.34198,-0.0663 0.5112,-0.104421 0.16342,-0.03682 0.32445,-0.08008 0.48671,-0.120007 0.11819,-0.02878 0.23495,-0.05662 0.35211,-0.08685 0.0539,-0.01408 0.10879,-0.02566 0.16256,-0.04008 0.18707,-0.0502 0.37132,-0.107227 0.55674,-0.161578 0.42663,-0.123325 0.83593,-0.25446 1.23199,-0.393673 0.0554,-0.01939 0.11183,-0.03615 0.16702,-0.05592 0.0124,-0.0043 0.0245,-0.0096 0.0369,-0.01408 0.0868,-0.03155 0.18269,-0.05958 0.26748,-0.0918 0.0767,-0.02916 0.14936,-0.06471 0.22566,-0.09452 0.0294,-0.01226 0.055,-0.01197 0.0807,-0.02648 0.007,-0.0043 0.0754,-0.03318 0.0881,-0.0396 0.0844,-0.03309 0.17018,-0.063 0.25412,-0.09699 0.31474,-0.127481 0.62662,-0.261269 0.93532,-0.401343 0.31041,-0.140859 0.61742,-0.288221 0.92146,-0.441679 3.9e-4,-1.96e-4 9.5e-4,-2.97e-4 10e-4,-4.79e-4 0.29157,-0.147113 0.57965,-0.300469 0.86504,-0.458997 0.009,-0.0048 0.0176,-0.0091 0.0262,-0.01384 3.2e-4,-1.77e-4 4.8e-4,-3.16e-4 9.6e-4,-4.79e-4 0.2185,-0.121731 0.43306,-0.250467 0.64779,-0.378829 0.0155,-0.0092 0.0313,-0.01791 0.0468,-0.0272 0.0507,-0.03045 0.10288,-0.05848 0.15341,-0.08932 0.002,-0.0014 0.005,-0.0029 0.007,-0.0043 4.1e-4,-2.49e-4 9.5e-4,-4.79e-4 10e-4,-9.58e-4 0.007,-0.0043 0.0136,-0.0078 0.0203,-0.01188 0.0334,-0.02045 0.0659,-0.04247 0.0992,-0.0631 0.25542,-0.150977 0.53624,-0.333958 0.83782,-0.542135 0.11423,-0.07728 0.22599,-0.158538 0.33899,-0.237787 0.12738,-0.08927 0.25674,-0.175484 0.38254,-0.26723 0.007,-0.0051 0.0136,-0.01054 0.0205,-0.01561 0.0125,-0.0091 0.0249,-0.01829 0.0374,-0.02748 0.0481,-0.0351 0.0937,-0.07297 0.14153,-0.108377 0.0409,-0.03045 0.0808,-0.06231 0.12149,-0.09304 0.16346,-0.123325 0.32831,-0.244587 0.48894,-0.372145 0.01,-0.0078 0.0192,-0.01618 0.029,-0.02399 0.0486,-0.03878 0.0956,-0.07985 0.14401,-0.119015 0.0432,-0.03495 0.0854,-0.07137 0.12842,-0.106648 0.16216,-0.13203 0.32422,-0.263778 0.48275,-0.39961 4.8e-4,-4.79e-4 0.001,-9.58e-4 0.002,-0.0019 0.0126,-0.01087 0.0246,-0.0225 0.0371,-0.03342 1.7e-4,-1.53e-4 3.2e-4,-3.45e-4 4.7e-4,-4.79e-4 0.002,-0.0019 0.004,-0.0038 0.006,-0.0059 0.0201,-0.01729 0.0391,-0.03562 0.0591,-0.05295 0.82773,-0.717374 1.60543,-1.484891 2.32839,-2.300677 0.31103,-0.342688 0.58832,-0.672629 0.85613,-1.007071 0.0201,-0.02523 0.0389,-0.0514 0.0589,-0.07671 0.0696,-0.08778 0.13848,-0.179797 0.20711,-0.269457 0.003,-0.0034 0.005,-0.0068 0.008,-0.01015 4e-5,-5.2e-5 -4e-5,-1.96e-4 0,-2.49e-4 0.002,-0.0034 0.005,-0.0065 0.007,-0.0097 0.002,-0.0029 0.004,-0.0053 0.006,-0.0079 0.12811,-0.16798 0.26049,-0.339958 0.38922,-0.519368 0.0103,-0.01336 0.0291,-0.04237 0.0401,-0.05691 4.8e-4,-9.58e-4 0.002,-0.0024 0.002,-0.0034 0.0543,-0.07437 0.11211,-0.147127 0.16553,-0.221948 1.1e-4,-1.48e-4 1.4e-4,-3.45e-4 2.5e-4,-4.79e-4 0.0535,-0.07496 0.10282,-0.151982 0.15539,-0.227392 9.6e-4,-9.58e-4 0.001,-0.0019 0.002,-0.0029 0.0734,-0.106059 0.11555,-0.161181 0.18186,-0.263026 0.01,-0.01436 0.0142,-0.01915 0.0237,-0.03366 0.0108,-0.01642 0.0203,-0.03342 0.0312,-0.04998 0.0586,-0.08719 0.12055,-0.172749 0.17791,-0.26055 0.16099,-0.246426 0.31501,-0.496461 0.46642,-0.747761 0.0222,-0.03677 0.0463,-0.07249 0.0683,-0.109367 1.5e-4,-2.54e-4 3.5e-4,-4.79e-4 4.8e-4,-9.58e-4 0.0905,-0.152021 0.17452,-0.307389 0.26154,-0.461219 0.0782,-0.138241 0.15966,-0.274743 0.23506,-0.414458 1.8e-4,-3.26e-4 3.3e-4,-4.79e-4 4.8e-4,-9.58e-4 0.009,-0.0158 0.016,-0.03218 0.0245,-0.048 0.15011,-0.279669 0.29574,-0.561796 0.43474,-0.847474 2e-4,-3.98e-4 3.1e-4,-9.58e-4 4.8e-4,-0.0014 0.005,-0.01044 0.01,-0.02121 0.0146,-0.03165 2.7e-4,-4.79e-4 4.6e-4,-9.58e-4 9.6e-4,-0.0019 0.003,-0.0073 0.008,-0.01427 0.0111,-0.02155 0.0759,-0.156527 0.14526,-0.316343 0.21775,-0.474584 0.005,-0.01106 0.0101,-0.02212 0.0151,-0.03313 0.0537,-0.118015 0.11094,-0.234057 0.16281,-0.353097 1.8e-4,-4.07e-4 3.2e-4,-9.58e-4 4.8e-4,-0.0014 0.002,-0.0056 0.004,-0.01144 0.007,-0.01709 5e-5,-9.6e-5 2.1e-4,-1.49e-4 2.5e-4,-2.45e-4 0.006,-0.01475 0.0137,-0.02906 0.0201,-0.04381 0.38151,-0.879848 0.70978,-1.787108 0.99,-2.719588 9e-5,-3.25e-4 1.4e-4,-4.79e-4 2.4e-4,-9.57e-4 8e-5,-2.59e-4 1.7e-4,-4.79e-4 2.5e-4,-4.79e-4 0.10673,-0.355252 0.20708,-0.713865 0.29915,-1.076849 0.002,-0.0075 0.004,-0.01475 0.006,-0.02227 2e-4,-9.57e-4 2.9e-4,-0.0019 4.8e-4,-0.0024 0.006,-0.02231 0.0125,-0.044 0.018,-0.06631 0.031,-0.124158 0.0568,-0.251045 0.0861,-0.376104 0.0259,-0.11022 0.0531,-0.222786 0.0772,-0.332804 1.6e-4,-9.58e-4 3.3e-4,-0.0014 4.7e-4,-0.0024 0.0184,-0.0823 0.0397,-0.162717 0.0574,-0.245458 6e-5,-2.53e-4 2e-4,-4.78e-4 2.5e-4,-9.57e-4 0.004,-0.01987 0.007,-0.04046 0.0116,-0.06038 2.1e-4,-9.57e-4 4.7e-4,-0.0019 9.5e-4,-0.0029 9e-5,-4.07e-4 1.6e-4,-9.57e-4 2.5e-4,-0.0014 4.2e-4,-0.0019 9.5e-4,-0.0043 0.001,-0.0062 9.6e-4,-0.0051 0.002,-0.01044 0.003,-0.01561 0.0317,-0.150197 0.0591,-0.303123 0.0886,-0.454789 0.0328,-0.169308 0.0689,-0.336598 0.099,-0.507744 0.0622,-0.353869 0.11839,-0.71178 0.16875,-1.073632 0.039,-0.280231 0.0678,-0.721619 0.0868,-1.243869 7e-5,-0.002 -6e-5,-0.0045 0,-0.0064 1.5e-4,-0.0038 4.8e-4,-0.0053 9.6e-4,-0.0092 0.0107,-0.29711 0.0109,-0.650395 0.0153,-0.985297 0.0118,-0.236565 0.0131,-0.386131 0.0131,-0.522093 0.007,0.01155 0.0153,0.0079 0.0245,-0.02746 0.0236,-0.0904 0.0236,-0.238195 0,-0.328597 -0.0106,-0.04064 -0.0202,-0.04383 -0.0277,-0.02326 -0.002,-0.570996 -0.0103,-1.143215 -0.0292,-1.639026 -0.0203,-0.533912 -0.0505,-0.985703 -0.0903,-1.27282 -0.0495,-0.356812 -0.10532,-0.710342 -0.16702,-1.06027 -0.0617,-0.349927 -0.1295,-0.696448 -0.2034,-1.039485 -0.14779,-0.686074 -0.31983,-1.358387 -0.5164,-2.016864 -0.0983,-0.329238 -0.20278,-0.6548 -0.31326,-0.977131 -0.11047,-0.32233 -0.22697,-0.641423 -0.34963,-0.956841 -0.12266,-0.315417 -0.2514,-0.62731 -0.38625,-0.935809 -0.13484,-0.308498 -0.27584,-0.61345 -0.42287,-0.915024 -0.14702,-0.301574 -0.30004,-0.599843 -0.45924,-0.894487 -0.1592,-0.294644 -0.32449,-0.585747 -0.49587,-0.873454 -0.34275,-0.575416 -0.7099,-1.136917 -1.10134,-1.684556 -0.19572,-0.273819 -0.39759,-0.544233 -0.60548,-0.8111 -0.20789,-0.266867 -0.4218,-0.53016 -0.64185,-0.790068 -0.30919,-0.365189 -0.63478,-0.720956 -0.96798,-1.072395 -9.6e-4,-10e-4 -0.002,-0.0022 -0.003,-0.0032 -0.13937,-0.148765 -0.27945,-0.296665 -0.42262,-0.442171 -0.27761,-0.282123 -0.55779,-0.562107 -0.84946,-0.831638 -0.0908,-0.08387 -0.188,-0.161596 -0.2801,-0.24422 -9.6e-4,-8.14e-4 -0.002,-0.0017 -0.003,-0.0025 -0.015,-0.01357 -0.0295,-0.02903 -0.0445,-0.04256 -0.0461,-0.04143 -0.0941,-0.07753 -0.1403,-0.118522 -0.002,-0.0021 -0.005,-0.0041 -0.007,-0.0062 -0.0517,-0.04545 -0.10351,-0.09079 -0.15564,-0.135843 -0.002,-0.0019 -0.004,-0.004 -0.006,-0.0059 -0.002,-0.0016 -0.004,-0.0029 -0.006,-0.0045 -0.0145,-0.01254 -0.0287,-0.02535 -0.0433,-0.03786 -0.0484,-0.04189 -0.0954,-0.08648 -0.144,-0.127925 -0.0144,-0.01231 -0.0294,-0.02361 -0.0438,-0.03588 -0.14778,-0.124455 -0.29689,-0.247364 -0.44786,-0.368682 -1.4e-4,-1.13e-4 -3.5e-4,-1.35e-4 -4.7e-4,-2.48e-4 -0.0718,-0.05835 -0.14114,-0.123264 -0.2133,-0.180629 -0.0524,-0.04163 -0.10702,-0.0779 -0.15959,-0.119017 -9.6e-4,-8.14e-4 -0.002,-0.0014 -0.003,-0.0023 -0.15211,-0.118634 -0.30661,-0.232336 -0.46073,-0.346907 -0.0317,-0.02341 -0.0614,-0.04898 -0.0933,-0.07225 -0.0103,-0.0075 -0.0214,-0.01426 -0.0316,-0.02178 -0.0905,-0.06635 -0.18079,-0.132982 -0.27194,-0.19795 -9.5e-4,-6.23e-4 -0.001,-0.0014 -0.002,-0.002 -0.0749,-0.05341 -0.14688,-0.113092 -0.2222,-0.165536 -0.10083,-0.0702 -0.20637,-0.131437 -0.30806,-0.19993 -9.6e-4,-7.18e-4 -0.002,-0.0013 -0.003,-0.002 -0.0671,-0.0452 -0.13266,-0.0936 -0.20018,-0.13807 -0.13112,-0.08637 -0.26535,-0.166531 -0.39788,-0.250159 -9.6e-4,-4.76e-4 -0.001,-0.001 -0.002,-0.0015 -0.12706,-0.08006 -0.24983,-0.167885 -0.37833,-0.245458 -0.0908,-0.0548 -0.18636,-0.102068 -0.27788,-0.155638 -0.11808,-0.06929 -0.23736,-0.136447 -0.35655,-0.203641 -0.0116,-0.0066 -0.0225,-0.01395 -0.0341,-0.02054 -0.008,-0.0047 -0.0171,-0.0086 -0.0255,-0.01336 -0.0894,-0.05005 -0.17698,-0.103545 -0.26698,-0.152421 -0.0556,-0.03021 -0.11289,-0.05734 -0.16875,-0.0871 -0.0714,-0.03793 -0.13942,-0.08103 -0.21132,-0.118276 -0.0805,-0.04169 -0.16561,-0.07719 -0.24669,-0.118027 -0.0915,-0.0462 -0.18109,-0.09576 -0.27317,-0.140792 -0.0235,-0.01148 -0.0477,-0.0215 -0.0713,-0.03291 -0.0443,-0.02175 -0.087,-0.04757 -0.13139,-0.06903 -0.13193,-0.06376 -0.26818,-0.116422 -0.4011,-0.17766 -0.0314,-0.01428 -0.0623,-0.0294 -0.0938,-0.04355 -0.0211,-0.0095 -0.0412,-0.02025 -0.0624,-0.02969 -0.0115,-0.0052 -0.0224,-0.01166 -0.0339,-0.01683 -0.003,-0.0012 -0.005,-0.0023 -0.008,-0.0034 -0.0263,-0.01168 -0.0511,-0.02527 -0.0774,-0.03687 -0.0221,-0.0097 -0.0456,-0.0178 -0.0678,-0.02746 -0.0598,-0.02608 -0.1213,-0.04912 -0.18137,-0.07473 -0.16971,-0.07326 -0.33599,-0.155457 -0.50725,-0.224673 -0.19282,-0.07793 -0.39092,-0.141732 -0.58568,-0.214529 -0.0415,-0.01554 -0.0804,-0.03388 -0.12199,-0.04924 -0.004,-0.0013 -0.008,-0.0023 -0.0114,-0.0037 -0.034,-0.01255 -0.0667,-0.02868 -0.10071,-0.04107 -0.0614,-0.02232 -0.1248,-0.03831 -0.18632,-0.06013 -0.29004,-0.102186 -0.58176,-0.199555 -0.87593,-0.290491 -0.12214,-0.03909 -0.23818,-0.08395 -0.36176,-0.121739 -0.0814,-0.0249 -0.16089,-0.04044 -0.24199,-0.06433 -8e-5,-2.3e-5 -1.7e-4,2.2e-5 -2.5e-4,0 -0.0135,-0.0038 -0.0266,-0.0091 -0.0401,-0.01287 -0.0308,-0.0087 -0.0626,-0.01396 -0.0935,-0.02252 -1.8e-4,-4.8e-5 -3.3e-4,-1.99e-4 -4.8e-4,-2.47e-4 -0.0674,-0.01943 -0.13422,-0.0347 -0.20141,-0.05345 -3.3e-4,-9.2e-5 -4.8e-4,-1.56e-4 -9.6e-4,-2.47e-4 -0.0515,-0.01363 -0.10153,-0.03149 -0.15317,-0.04478 -0.0326,-0.0084 -0.0663,-0.01376 -0.099,-0.02202 -2.5e-4,-6.4e-5 -4.8e-4,-1.84e-4 -4.8e-4,-2.47e-4 -0.29453,-0.07861 -0.59083,-0.169019 -0.88484,-0.234819 -0.5705,-0.127678 -1.14269,-0.231563 -1.72736,-0.313256 -0.0925,-0.01292 -0.19189,-0.01664 -0.28505,-0.02846 -0.22798,-0.03322 -0.45517,-0.06841 -0.68565,-0.09625 -0.33246,-0.04017 -0.77681,-0.06897 -1.27801,-0.0866 -0.23857,-0.0084 -0.512,-0.0062 -0.77028,-0.0096 -0.0279,-6.7e-4 -0.0558,-0.0029 -0.0836,-0.0034 -0.002,-4.5e-5 -0.004,4.3e-5 -0.006,0 -0.0275,-5.75e-4 -0.0551,-0.0034 -0.0827,-0.004 -0.0739,-0.0013 -0.14755,0.0034 -0.22146,0.0027 -2.5e-4,-2e-6 -4.8e-4,2e-6 -4.8e-4,0 -0.11234,-8.62e-4 -0.21314,-0.0096 -0.32736,-0.0094 z m 0.22961,1.524463 c 0.17754,8.14e-4 0.35365,0.01155 0.53076,0.01608 0.24603,0.0072 0.49181,0.0176 0.73736,0.03242 0.0684,0.0041 0.13708,0.0052 0.20537,0.0099 0.17403,0.01224 0.34801,0.02453 0.5216,0.04058 0.008,7.18e-4 0.015,0.0018 0.0225,0.0025 0.33973,0.03123 0.67784,0.07306 1.01549,0.11877 0.0733,0.01005 0.14699,0.01797 0.22022,0.0287 0.19626,0.02887 0.39182,0.06099 0.58716,0.09477 0.0433,0.0075 0.0864,0.0163 0.12966,0.024 0.22291,0.03933 0.44493,0.08199 0.66635,0.127678 0.17754,0.03701 0.35467,0.07597 0.53125,0.117038 0.15526,0.03596 0.31049,0.07179 0.46493,0.110852 2.6e-4,6.4e-5 4.8e-4,1.84e-4 9.6e-4,2.48e-4 0.11002,0.02779 0.21883,0.05919 0.32835,0.08858 0.16736,0.0451 0.33427,0.09177 0.50057,0.140545 0.10866,0.03185 0.21768,0.06235 0.32587,0.09576 0.20487,0.06402 0.40764,0.132118 0.60994,0.201414 0.0715,0.02424 0.1428,0.0488 0.21403,0.07374 0.004,0.0014 0.008,0.0026 0.0119,0.004 0.14723,0.05196 0.29574,0.100685 0.44167,0.155638 9.6e-4,3.13e-4 10e-4,6.71e-4 0.002,0.001 4.2e-4,1.56e-4 9.6e-4,3.38e-4 0.001,4.79e-4 0.0141,0.0054 0.0282,0.01091 0.0423,0.01633 0.34284,0.129834 0.68107,0.268368 1.01573,0.413221 0.013,0.0056 0.0261,0.01092 0.0391,0.01658 0.19084,0.0835 0.37967,0.171087 0.56837,0.259314 0.19929,0.09305 0.39602,0.190177 0.59211,0.288512 0.41351,0.208622 0.82087,0.428887 1.2216,0.660411 0.16672,0.09656 0.33509,0.190595 0.49908,0.290987 0.0443,0.02698 0.0881,0.05465 0.13214,0.0819 0.14663,0.09109 0.29083,0.18546 0.43524,0.279604 0.0121,0.0079 0.024,0.01609 0.0361,0.024 0.23547,0.154116 0.46971,0.309841 0.69901,0.471864 0.17241,0.121848 0.34183,0.247363 0.51071,0.373631 0.20098,0.150227 0.3988,0.304184 0.59459,0.460481 0.26759,0.218354 0.54758,0.453328 0.81952,0.687876 0.0612,0.05359 0.12221,0.107378 0.18285,0.161577 4.8e-4,4.66e-4 9.6e-4,0.001 0.001,0.0015 1.27909,1.153678 2.4409,2.455196 3.46264,3.895657 0.72806,1.026431 1.36236,2.072921 1.90453,3.143942 3e-5,6.4e-5 -4e-5,1.84e-4 0,2.48e-4 0.002,0.0034 0.002,0.0049 0.004,0.0084 4e-5,8.1e-5 -4e-5,1.65e-4 0,2.47e-4 0.25388,0.502046 0.48381,1.010506 0.69728,1.52372 0.001,0.0038 0.003,0.0076 0.005,0.01138 0.002,0.0042 0.003,0.0082 0.005,0.01237 0.0237,0.05772 0.0476,0.115253 0.0708,0.173206 3e-4,7.18e-4 4.5e-4,0.0015 9.6e-4,0.0023 0.16771,0.414469 0.31606,0.834687 0.45776,1.256982 6e-5,1.74e-4 1.9e-4,3.21e-4 2.5e-4,4.79e-4 0.0239,0.07194 0.0459,0.14457 0.069,0.216755 1.6e-4,4.79e-4 3.4e-4,0.001 4.8e-4,0.0015 0.0679,0.211679 0.13165,0.424929 0.1935,0.638884 0.0595,0.204833 0.11638,0.410583 0.16999,0.617357 0.0577,0.222177 0.1123,0.445412 0.16356,0.669813 1.5e-4,6.71e-4 3.4e-4,0.0013 4.8e-4,0.002 0.0299,0.132094 0.058,0.264803 0.0856,0.397633 1.4e-4,6.7e-4 3.6e-4,0.0013 4.8e-4,0.002 0.052,0.251336 0.10086,0.503836 0.1445,0.758149 1.3e-4,7.18e-4 1.2e-4,0.0015 2.4e-4,0.0023 0.0162,0.09356 0.0315,0.187424 0.0465,0.281337 0.0217,0.135051 0.0474,0.268801 0.0668,0.40456 7e-5,4.78e-4 1.8e-4,10e-4 2.5e-4,0.0015 2.8e-4,0.0019 4.6e-4,0.0038 9.6e-4,0.0057 0.0633,0.451452 0.11384,0.907592 0.15143,1.368825 6e-5,7.66e-4 1.9e-4,0.0015 2.4e-4,0.0023 0.0131,0.156596 0.0226,0.314161 0.0327,0.471616 7e-5,0.0011 -7e-5,0.0022 0,0.0032 0.0325,0.524489 0.0568,1.052258 0.0569,1.590035 0,0.0011 2.5e-4,0.0023 2.5e-4,0.0034 0,6.71e-4 0,0.0013 0,0.002 0,8.14e-4 0,0.0016 0,0.0025 -6e-5,0.607445 -0.0249,1.209354 -0.0678,1.806295 -0.003,0.04452 -0.006,0.08947 -0.009,0.133864 -0.046,0.594749 -0.11277,1.183802 -0.20091,1.766209 -0.005,0.03382 -0.011,0.06744 -0.0163,0.101202 -0.0861,0.552797 -0.19287,1.099015 -0.31647,1.639024 -0.003,0.01278 -0.005,0.02581 -0.008,0.03859 -0.0467,0.196111 -0.10272,0.39057 -0.1549,0.585689 -0.0514,0.199113 -0.10724,0.396483 -0.1638,0.593599 -0.19375,0.651896 -0.4157,1.300679 -0.67254,1.950554 -0.39299,0.994382 -0.84902,1.952125 -1.36289,2.869038 -0.25693,0.458457 -0.52846,0.906585 -0.81357,1.344079 -0.26692,0.409584 -0.54811,0.807785 -0.83857,1.198096 -0.0364,0.04874 -0.0724,0.0978 -0.10911,0.146232 -0.20486,0.270864 -0.42135,0.531496 -0.63716,0.792545 -0.14393,0.17182 -0.28285,0.346048 -0.43252,0.515163 -0.14674,0.167496 -0.30008,0.328366 -0.45132,0.491414 -0.24954,0.267536 -0.50415,0.532612 -0.76854,0.793282 -0.1552,0.152279 -0.31239,0.302294 -0.47162,0.450092 -0.21491,0.201114 -0.43608,0.393471 -0.65744,0.585684 -0.0229,0.01973 -0.0456,0.03979 -0.0685,0.05938 -0.16608,0.141817 -0.33264,0.282825 -0.50255,0.419902 -0.18211,0.147104 -0.36611,0.291392 -0.55203,0.432768 -0.21215,0.160922 -0.42781,0.317013 -0.64532,0.470629 -0.14636,0.103731 -0.29097,0.210274 -0.43945,0.310534 -0.32033,0.215364 -0.64801,0.419912 -0.97886,0.619336 -0.076,0.04587 -0.14915,0.09576 -0.22567,0.140792 -0.0271,0.01599 -0.055,0.0306 -0.0821,0.04649 -0.32985,0.19195 -0.6672,0.371503 -1.00658,0.547331 -0.1147,0.05962 -0.22766,0.122104 -0.34344,0.179888 -1e-4,4.8e-5 -1.5e-4,1.96e-4 -2.5e-4,2.49e-4 -0.004,0.0019 -0.009,0.0038 -0.0129,0.0062 -0.37456,0.18593 -0.75565,0.359853 -1.14069,0.525802 -0.0954,0.04132 -0.19027,0.08336 -0.28629,0.123469 -0.42762,0.177561 -0.8603,0.344282 -1.29954,0.496609 -0.0318,0.01116 -0.0639,0.02188 -0.0958,0.03289 -0.43739,0.149555 -0.88116,0.284444 -1.32899,0.408272 -0.10367,0.02854 -0.20809,0.055 -0.31227,0.08215 -0.36661,0.09592 -0.73668,0.182014 -1.10951,0.260302 -4.8e-4,1.43e-4 -0.001,3.54e-4 -0.002,4.78e-4 -0.12163,0.02543 -0.24272,0.05241 -0.36498,0.07596 -9.5e-4,1.77e-4 -0.002,3.2e-4 -0.003,4.78e-4 -0.47223,0.0912 -0.9478,0.172299 -1.4287,0.23457 -0.007,9.58e-4 -0.0148,0.0014 -0.0223,0.0024 -0.48327,0.06215 -0.99772,0.107926 -1.52471,0.139308 -0.0484,0.0024 -0.0958,0.005 -0.14475,0.0074 -0.49434,0.02667 -0.99844,0.03965 -1.50071,0.0396 -0.0707,-4.16e-4 -0.14139,6.7e-5 -0.21205,-9.57e-4 -0.29881,-0.0024 -0.58741,-0.01843 -0.88014,-0.03021 -0.26002,-0.0136 -0.52021,-0.02356 -0.77967,-0.04578 -0.42019,-0.03601 -0.8397,-0.08324 -1.25798,-0.141784 -0.41827,-0.05854 -0.83547,-0.128525 -1.25129,-0.20958 -0.34945,-0.06811 -0.69731,-0.148607 -1.04468,-0.232587 -4.8e-4,-1.2e-4 -9.6e-4,-1.29e-4 -0.001,-2.49e-4 -0.2639,-0.06569 -0.52572,-0.141118 -0.78808,-0.215517 -0.22794,-0.06464 -0.45857,-0.116263 -0.68467,-0.18731 -0.32522,-0.100787 -0.64319,-0.218295 -0.96228,-0.333298 -0.21609,-0.08061 -0.42935,-0.158212 -0.64903,-0.244716 -0.14328,-0.05642 -0.27184,-0.112106 -0.41149,-0.169 -0.16988,-0.0711 -0.34013,-0.141415 -0.50798,-0.216508 -9.6e-4,-4.79e-4 -0.002,-9.58e-4 -0.004,-0.0014 -0.011,-0.0049 -0.0222,-0.0097 -0.0331,-0.0146 -0.12897,-0.05799 -0.26078,-0.111618 -0.38823,-0.171724 -0.38489,-0.181693 -0.76274,-0.3762 -1.13599,-0.578507 -0.17741,-0.09632 -0.34998,-0.197264 -0.52308,-0.297668 -0.18872,-0.10876 -0.37528,-0.220842 -0.56069,-0.334782 -0.25309,-0.156824 -0.5047,-0.315251 -0.75048,-0.479784 -0.0937,-0.06262 -0.18514,-0.128305 -0.27787,-0.192256 -0.2729,-0.188062 -0.54447,-0.377363 -0.80789,-0.5748 -0.0842,-0.06315 -0.16367,-0.130891 -0.24694,-0.194981 -0.25448,-0.197279 -0.51031,-0.39283 -0.75642,-0.600284 -0.0704,-0.05872 -0.13675,-0.120964 -0.20636,-0.180381 -0.34027,-0.293632 -0.67588,-0.59268 -0.99891,-0.905125 -0.37041,-0.358287 -0.72935,-0.728579 -1.07586,-1.110252 -0.3465,-0.381677 -0.68058,-0.774679 -1.00187,-1.178301 -0.32129,-0.403618 -0.62966,-0.817764 -0.92443,-1.24189 -0.29476,-0.42412 -0.57609,-0.858334 -0.84301,-1.301521 -0.26694,-0.443182 -0.51963,-0.895405 -0.75741,-1.356203 -0.23778,-0.460803 -0.46051,-0.930201 -0.66784,-1.407178 -0.20732,-0.476978 -0.39923,-0.961492 -0.57479,-1.453203 -0.17557,-0.491706 -0.33482,-0.990513 -0.47731,-1.495511 -0.14249,-0.504998 -0.26825,-1.016278 -0.37635,-1.533122 -0.0801,-0.382952 -0.15,-0.773471 -0.21008,-1.169639 -0.0601,-0.396167 -0.11014,-0.797926 -0.15019,-1.203536 -0.0401,-0.40561 -0.0703,-0.815026 -0.0903,-1.226301 -0.02,-0.411275 -0.0299,-0.82452 -0.0299,-1.237683 0,-0.406058 0.0101,-0.811889 0.0294,-1.216156 0.0201,-0.412963 0.0497,-0.823906 0.0896,-1.230507 0.0402,-0.409871 0.0904,-0.8153 0.15069,-1.214423 0.0551,-0.365191 0.12082,-0.72336 0.19276,-1.076106 1.2e-4,-5.75e-4 3.8e-4,-0.0011 4.8e-4,-0.0017 0.009,-0.04635 0.018,-0.09305 0.0277,-0.139307 0.11087,-0.525229 0.24062,-1.043746 0.3865,-1.55564 1.9e-4,-6.71e-4 3.1e-4,-0.0013 4.8e-4,-0.002 7e-5,-2.5e-4 1.8e-4,-4.79e-4 2.4e-4,-7.66e-4 2.1e-4,-7.19e-4 2.9e-4,-0.0015 4.8e-4,-0.0023 0.009,-0.03169 0.0173,-0.06361 0.0265,-0.09526 1e-4,-3.26e-4 1.5e-4,-6.7e-4 2.5e-4,-0.001 4e-5,-1.53e-4 -4e-5,-3.42e-4 0,-4.79e-4 10e-5,-3.48e-4 3.9e-4,-6.23e-4 4.8e-4,-10e-4 0.0987,-0.340294 0.21666,-0.672233 0.33033,-1.006081 0.0853,-0.248325 0.16552,-0.499025 0.25857,-0.74355 1.9e-4,-4.79e-4 3.1e-4,-0.001 4.8e-4,-0.0015 0.0978,-0.257947 0.20788,-0.509766 0.31449,-0.763345 4.8e-4,-0.0014 9.6e-4,-0.0028 0.002,-0.0042 0.10925,-0.259351 0.21939,-0.518127 0.3375,-0.772747 0.0469,-0.09873 0.0932,-0.195089 0.14129,-0.294699 4.1e-4,-8.61e-4 9.6e-4,-0.0016 0.001,-0.0025 0.009,-0.0181 0.018,-0.03587 0.0267,-0.05394 0.0403,-0.08316 0.0827,-0.165068 0.12396,-0.247685 0.0405,-0.08101 0.0801,-0.162526 0.12149,-0.242984 0.12322,-0.240066 0.24882,-0.478737 0.38007,-0.714104 0.008,-0.01487 0.0167,-0.02969 0.025,-0.04454 0.0918,-0.163536 0.18853,-0.323709 0.28406,-0.48473 0.003,-0.005 0.006,-0.01008 0.009,-0.01509 0.0586,-0.09849 0.11523,-0.198126 0.17519,-0.295688 4.7e-4,-7.66e-4 9.6e-4,-0.0015 10e-4,-0.0023 0.12354,-0.201347 0.25076,-0.400311 0.38031,-0.597809 0.0813,-0.123897 0.16562,-0.245479 0.24917,-0.367693 4e-4,-5.74e-4 9.6e-4,-0.0011 0.001,-0.0017 0.11695,-0.17081 0.2325,-0.342661 0.35383,-0.510216 0.11994,-0.165873 0.2446,-0.328351 0.36893,-0.491163 0.0631,-0.08264 0.12738,-0.164199 0.19152,-0.245954 0.001,-0.0017 0.003,-0.0035 0.004,-0.0052 0.16947,-0.215556 0.33837,-0.431429 0.51516,-0.640863 1.2e-4,-1.38e-4 1.3e-4,-3.57e-4 2.5e-4,-4.79e-4 0.12306,-0.145935 0.25183,-0.287403 0.37858,-0.430542 0.0375,-0.04239 0.075,-0.08482 0.11283,-0.126935 4.8e-4,-5.75e-4 9.6e-4,-0.0011 10e-4,-0.0017 0.21394,-0.237806 0.42887,-0.474781 0.65224,-0.703712 4.8e-4,-7.66e-4 0.001,-0.0015 0.002,-0.0023 0.12674,-0.130032 0.25807,-0.255256 0.38773,-0.382291 0.0223,-0.02189 0.0449,-0.04351 0.0673,-0.06532 0.23916,-0.232183 0.4806,-0.46194 0.72944,-0.683917 2.6e-4,-2.33e-4 4.8e-4,-5.26e-4 9.6e-4,-7.66e-4 0.14423,-0.128761 0.29136,-0.254142 0.4387,-0.379321 4.8e-4,-4.58e-4 9.6e-4,-7.66e-4 0.002,-0.0012 0.26846,-0.227853 0.5414,-0.450502 0.82001,-0.66635 0.14772,-0.114481 0.29667,-0.227274 0.44712,-0.338247 0.001,-0.001 0.003,-0.002 0.004,-0.003 0.2846,-0.209783 0.57458,-0.412608 0.86875,-0.609686 9.6e-4,-5.27e-4 0.002,-9.58e-4 0.002,-0.0015 0.15541,-0.104062 0.31095,-0.207916 0.4689,-0.308308 4.8e-4,-3.19e-4 9.6e-4,-6.7e-4 0.001,-0.001 0.30081,-0.191222 0.60764,-0.373321 0.91749,-0.551044 1.7e-4,-9.1e-5 3.4e-4,-1.56e-4 4.8e-4,-2.47e-4 0.1629,-0.09337 0.32465,-0.18835 0.48993,-0.277873 0.31552,-0.171032 0.63782,-0.330664 0.96179,-0.487452 0.16868,-0.08155 0.3354,-0.166637 0.50626,-0.244221 0.33105,-0.150491 0.66932,-0.287289 1.0083,-0.422623 0.13154,-0.05245 0.26126,-0.108492 0.39393,-0.158608 0.0768,-0.02895 0.15373,-0.05745 0.23085,-0.08561 0.32423,-0.118727 0.65364,-0.226212 0.98431,-0.330824 0.0771,-0.02435 0.15296,-0.0514 0.23037,-0.07497 0.11027,-0.03354 0.21941,-0.06975 0.33033,-0.101698 0.50048,-0.144491 1.0058,-0.277399 1.51926,-0.388724 0.48488,-0.105128 0.97468,-0.186794 1.46558,-0.260552 0.23348,-0.03432 0.46926,-0.06284 0.70544,-0.09031 0.23696,-0.02828 0.4744,-0.05142 0.71213,-0.0725 0.29811,-0.02579 0.59641,-0.05124 0.89646,-0.06631 0.16381,-0.0083 0.32774,-0.0092 0.49166,-0.01411 0.29658,-0.0091 0.59312,-0.02038 0.88954,-0.01905 z m 7.83907,10.799414 c -0.0303,2.2e-5 -0.0612,0.0047 -0.0916,0.0054 -0.0219,7.18e-4 -0.0434,-0.0029 -0.0653,-0.0017 -0.006,2.98e-4 -0.0118,0.0019 -0.0176,0.0023 -0.0296,0.0018 -0.0598,0.0074 -0.0896,0.0099 -0.0163,0.0011 -0.0326,0.0014 -0.049,0.0027 -0.002,1.94e-4 -0.004,4.9e-5 -0.006,2.47e-4 -9.6e-4,7.5e-5 -0.002,4.19e-4 -0.002,4.79e-4 -0.0839,0.007 -0.16824,0.01586 -0.25288,0.02821 -0.0505,0.0062 -0.10212,0.01131 -0.15193,0.0193 -0.008,0.0014 -0.015,0.0038 -0.0225,0.0052 -0.0375,0.0062 -0.0732,0.01799 -0.11036,0.02524 -0.0229,0.0049 -0.0453,0.0066 -0.0683,0.01187 -0.002,5.74e-4 -0.005,0.0016 -0.008,0.0023 -0.005,9.1e-4 -0.0122,0.0011 -0.0176,0.002 -0.11338,0.01899 -0.18135,0.04491 -0.27392,0.0678 -0.0251,0.0074 -0.0514,0.0111 -0.0764,0.01905 -0.0591,0.01647 -0.14681,0.02955 -0.19053,0.04702 -0.11733,0.04686 -0.23122,0.100778 -0.34419,0.156133 -0.006,0.0026 -0.0115,0.0043 -0.0171,0.0069 -0.002,0.0012 -0.005,0.0027 -0.007,0.004 -0.0151,0.0075 -0.0312,0.01336 -0.0463,0.02103 -0.0515,0.02623 -0.1,0.05742 -0.15044,0.08537 -0.0804,0.04363 -0.1608,0.08665 -0.23903,0.135348 -0.001,0.001 -0.003,0.002 -0.005,0.003 -0.009,0.0059 -0.0181,0.01305 -0.0275,0.01905 -1.6e-4,9.8e-5 -3.4e-4,1.5e-4 -4.8e-4,2.48e-4 -0.016,0.0099 -0.0335,0.01708 -0.0495,0.02722 -0.004,0.0026 -0.009,0.0043 -0.0129,0.0069 -0.0423,0.02712 -0.0802,0.06152 -0.12174,0.09007 -0.0522,0.0366 -0.10473,0.07208 -0.15563,0.110852 -0.0111,0.0084 -0.0212,0.01797 -0.0322,0.02647 -0.004,0.0032 -0.008,0.0067 -0.0119,0.0099 -9.5e-4,6.23e-4 -0.001,0.0011 -0.002,0.0017 -0.0944,0.07225 -0.18708,0.145844 -0.27614,0.225416 -1.0655,0.917833 -1.593,2.12383 -1.55267,3.333479 4.8e-4,0.02256 0.004,0.045 0.005,0.06755 0.002,0.034 0.005,0.06796 0.007,0.101945 0.005,0.06437 0.006,0.128693 0.0141,0.193249 0.002,0.01736 0.005,0.03462 0.008,0.05196 0.0132,0.100706 0.0344,0.200435 0.0554,0.300388 0.007,0.02931 0.0108,0.05846 0.018,0.08784 0.0154,0.06567 0.0309,0.131053 0.0497,0.196218 0.0262,0.117757 0.0678,0.240419 0.12224,0.368435 0.006,0.01467 0.0133,0.02892 0.0193,0.04355 0.0184,0.042 0.0363,0.08468 0.0584,0.132132 0.001,0.003 0.002,0.0054 0.004,0.0084 0.0284,0.06554 0.0498,0.133558 0.0826,0.197702 0.0125,0.02431 0.0305,0.04738 0.0435,0.07151 0.0102,0.02082 0.0172,0.04292 0.0277,0.06359 9.6e-4,0.0024 0.004,0.005 0.005,0.0074 4.8e-4,0.0012 9.6e-4,0.0025 0.001,0.0037 0.0921,0.180986 0.24219,0.378528 0.41891,0.583705 0.14953,0.184953 0.31063,0.365217 0.49661,0.534218 0.0445,0.0404 0.11971,0.09439 0.16974,0.137328 0.18271,0.166508 0.40383,0.339206 0.62552,0.511701 0.0432,0.03496 0.0734,0.05554 0.1064,0.07967 0.007,0.005 0.013,0.0096 0.0198,0.01435 0.0289,0.02052 0.0658,0.04947 0.0876,0.06211 0.27598,0.206435 0.56762,0.417378 0.90315,0.637647 0.005,0.0101 0.005,0.02264 0.0129,0.03043 0.0174,0.01702 0.0415,0.02746 0.0678,0.02746 0.007,0 0.0501,0.02806 0.0616,0.03142 0.0538,0.03482 0.11541,0.07191 0.17073,0.107141 0.0879,0.05649 0.18311,0.115006 0.27466,0.172464 0.002,0.0011 0.003,0.0022 0.005,0.0032 0.0257,0.0161 0.0515,0.03232 0.0774,0.0485 0.002,0.0013 0.005,0.0031 0.007,0.0045 0.0235,0.01449 0.0445,0.02849 0.0683,0.04306 0.0113,0.03276 0.0413,0.05939 0.0834,0.05939 0.002,0 0.0642,0.03498 0.0705,0.03711 0.0999,0.06057 0.17706,0.114488 0.28134,0.176423 0.0275,0.01632 0.0635,0.03554 0.0913,0.05196 9e-5,5.2e-5 1.5e-4,1.94e-4 2.4e-4,2.47e-4 0.004,0.0024 0.007,0.0041 0.0112,0.0064 2.7e-4,1.67e-4 4.8e-4,3.29e-4 9.6e-4,4.79e-4 0.0257,0.01519 0.0584,0.03273 0.0844,0.048 9.6e-4,6.22e-4 0.002,0.0013 0.003,0.002 0.11699,0.06922 0.25109,0.143385 0.37314,0.214033 0.01,0.0073 0.007,0.01132 0.0195,0.01905 9.6e-4,6.7e-4 0.003,0.0013 0.004,0.002 0.0129,0.0082 0.0325,0.01538 0.0475,0.02375 0.0182,0.01033 0.0399,0.02031 0.0606,0.03068 0.18313,0.105234 0.3596,0.208441 0.55401,0.316967 0.0248,0.01575 0.0511,0.03017 0.0841,0.04825 9e-5,4.8e-5 1.6e-4,1.98e-4 2.5e-4,2.47e-4 1.6e-4,9e-5 3.3e-4,1.58e-4 4.7e-4,2.47e-4 0.0197,0.01095 0.0176,0.0092 0.0371,0.02004 0.08,0.04492 0.14237,0.0838 0.22443,0.12941 0.0323,0.01793 0.0573,0.02851 0.0893,0.04602 4.6e-4,2.51e-4 9.5e-4,4.79e-4 10e-4,7.18e-4 0.007,0.0038 0.0123,0.007 0.0193,0.01089 1e-4,5.9e-5 1.4e-4,1.88e-4 2.5e-4,2.47e-4 0.002,10e-4 0.003,0.0017 0.005,0.0027 0.001,7.66e-4 0.002,0.0014 0.004,0.0022 0.008,0.0043 0.007,0.0036 0.0146,0.0079 0.008,0.0044 0.007,0.0038 0.0148,0.0082 l 0.11035,0.06062 c 0.0243,0.01358 0.0233,0.01498 0.048,0.0287 0.016,0.0089 0.0297,0.01402 0.0458,0.02276 l 0.30287,0.166773 c 0.0328,0.019 0.0391,0.0286 0.074,0.04726 0.0159,0.0085 0.0353,0.01387 0.0522,0.02202 l 0.41025,0.225663 0.005,-0.0027 c 2.1e-4,5.9e-5 0.013,0.0072 0.0131,0.0072 2e-5,0 9.6e-4,-4.79e-4 9.6e-4,-4.79e-4 0,10e-7 9.5e-4,4.79e-4 9.5e-4,4.79e-4 3e-5,0 0.004,-0.0022 0.004,-0.0023 6e-5,5e-6 0.004,0.0023 0.004,0.0023 6e-5,0 0.002,-0.0012 0.002,-0.0012 3e-5,3e-6 0.002,0.0012 0.002,0.0012 2.9e-4,2e-6 0.01,-0.0057 0.0101,-0.0057 10e-6,10e-7 2.5e-4,-1e-6 2.5e-4,0 2.7e-4,3.5e-5 0.0102,0.0057 0.0104,0.0057 0.0309,0 0.22895,-0.09993 0.52234,-0.25882 8e-5,-4.2e-5 1.7e-4,-2.04e-4 2.5e-4,-2.47e-4 0.11552,-0.06256 0.29035,-0.162687 0.43104,-0.241004 0.14261,-0.07938 0.27728,-0.154077 0.43672,-0.244469 0.002,-0.0013 0.002,-0.0012 0.005,-0.0025 0.0998,-0.0554 0.11621,-0.06515 0.217,-0.121491 0.002,-0.0013 0.003,-0.0019 0.005,-0.0032 2.5e-4,-1.42e-4 4.8e-4,-1.06e-4 9.6e-4,-2.48e-4 0.002,-0.0011 0.003,-0.0019 0.005,-0.003 0.42979,-0.240334 0.68393,-0.390908 0.97515,-0.561188 0.10466,-0.05784 0.20657,-0.115511 0.28109,-0.161824 0.0592,-0.0359 0.25334,-0.142816 0.28159,-0.162072 0.0828,-0.05646 0.32525,-0.213254 0.5211,-0.341216 0.0274,-0.01751 0.0972,-0.05652 0.12174,-0.0725 0.0623,-0.04057 0.11304,-0.07722 0.17321,-0.117037 0.16603,-0.105764 0.3342,-0.219262 0.51763,-0.349877 0.0219,-0.01533 0.0477,-0.03203 0.0693,-0.04726 0.006,-0.004 0.01,-0.0074 0.0156,-0.01138 0.42089,-0.292108 0.78546,-0.577084 1.09813,-0.859351 0.0213,-0.01884 0.0478,-0.03865 0.0685,-0.05741 0.006,-0.0058 0.011,-0.01152 0.0173,-0.01732 0.0204,-0.01896 0.0409,-0.03796 0.0609,-0.05691 0.064,-0.05955 0.11984,-0.118091 0.17864,-0.176918 0.001,-0.0014 0.004,-0.0033 0.005,-0.0047 9.6e-4,-0.0011 0.002,-0.0023 0.003,-0.0034 0.0527,-0.05291 0.10986,-0.106327 0.1586,-0.158856 0.002,-0.0027 0.006,-0.0055 0.008,-0.0082 0.003,-0.0033 0.007,-0.0066 0.0102,-0.0099 0.0194,-0.02112 0.0334,-0.04225 0.0522,-0.06334 0.0792,-0.08879 0.15747,-0.177529 0.22641,-0.266243 0.0159,-0.02044 0.0282,-0.04115 0.0435,-0.06161 0.0103,-0.01388 0.024,-0.02767 0.0341,-0.04157 0.0171,-0.02353 0.0291,-0.04791 0.0455,-0.07151 0.078,-0.110801 0.14954,-0.223086 0.21428,-0.336268 0.006,-0.01087 0.0146,-0.02126 0.0205,-0.03217 0.004,-0.0069 0.006,-0.01435 0.01,-0.02128 0.0232,-0.04205 0.0501,-0.08312 0.0718,-0.125698 0.0736,-0.144896 0.13679,-0.292392 0.18979,-0.442172 0.0374,-0.1057 0.0636,-0.213429 0.091,-0.320926 0.003,-0.01208 0.008,-0.02299 0.0114,-0.03514 0.001,-0.0058 0.002,-0.01176 0.003,-0.01757 1.5e-4,-5.74e-4 3.5e-4,-0.0011 4.8e-4,-0.0017 0.006,-0.02667 0.0168,-0.05268 0.0225,-0.07943 0.008,-0.03701 0.0102,-0.07469 0.0171,-0.111841 8e-5,-4.19e-4 1.6e-4,-8.14e-4 2.4e-4,-0.0012 1.7e-4,-8.14e-4 8e-5,-0.0019 2.5e-4,-0.0027 1.4e-4,-6.7e-4 1.1e-4,-0.0015 2.5e-4,-0.0022 0.0131,-0.06513 0.0306,-0.12978 0.0401,-0.195229 0.001,-0.0086 9.6e-4,-0.01735 0.002,-0.02598 0.003,-0.02077 0.01,-0.0416 0.0124,-0.06235 0.0134,-0.102856 0.0149,-0.204947 0.0201,-0.307317 3.1e-4,-0.0084 10e-4,-0.01682 0.002,-0.02524 0.002,-0.05494 0.0106,-0.110315 0.0106,-0.165041 1.5e-4,-0.165005 -0.0102,-0.328812 -0.0305,-0.490916 -0.0203,-0.162104 -0.0505,-0.322441 -0.0901,-0.480276 -0.0396,-0.157836 -0.0887,-0.31323 -0.14648,-0.46543 -0.0578,-0.152201 -0.12415,-0.30118 -0.19894,-0.446378 -0.0748,-0.145198 -0.15798,-0.286536 -0.24868,-0.423366 -0.0907,-0.136829 -0.18899,-0.269302 -0.29445,-0.396395 -0.0734,-0.08852 -0.15467,-0.170883 -0.23481,-0.254118 -0.0349,-0.03627 -0.0661,-0.07565 -0.1022,-0.110852 -0.0467,-0.04545 -0.0988,-0.08556 -0.14747,-0.129162 -0.0553,-0.05053 -0.1109,-0.1 -0.16826,-0.147473 -0.0209,-0.01699 -0.0394,-0.0363 -0.0606,-0.05295 -0.0242,-0.01901 -0.0512,-0.03463 -0.0757,-0.0532 -0.0855,-0.06547 -0.1722,-0.128417 -0.26154,-0.18731 -9.6e-4,-5.27e-4 -0.001,-0.0012 -0.002,-0.0017 -0.002,-0.0017 -0.005,-0.003 -0.008,-0.0047 -0.0107,-0.007 -0.0217,-0.01338 -0.0324,-0.02029 -0.0111,-0.0071 -0.021,-0.01575 -0.0322,-0.02276 -0.0103,-0.0065 -0.0218,-0.01141 -0.0322,-0.01782 -0.0142,-0.0088 -0.0282,-0.01806 -0.0426,-0.02672 -0.002,-0.0015 -0.005,-0.0032 -0.007,-0.0047 -0.0712,-0.04292 -0.14288,-0.08439 -0.21601,-0.123224 -0.0194,-0.01048 -0.0369,-0.02344 -0.0564,-0.03365 -0.0211,-0.01103 -0.0442,-0.01898 -0.0656,-0.02969 -0.0401,-0.02026 -0.0812,-0.03879 -0.12199,-0.0579 -0.0331,-0.01513 -0.0656,-0.03146 -0.099,-0.04577 -0.003,-0.0015 -0.007,-0.004 -0.01,-0.0054 -0.0123,-0.0054 -0.0255,-0.0074 -0.0379,-0.01262 -4.8e-4,-2.16e-4 -9.6e-4,-5.27e-4 -10e-4,-7.66e-4 -0.0416,-0.01758 -0.0806,-0.03928 -0.12297,-0.05567 -0.0103,-0.004 -0.0214,-0.0063 -0.0317,-0.01015 -0.01,-0.0036 -0.0184,-0.0086 -0.028,-0.01212 -0.0449,-0.01673 -0.0922,-0.02823 -0.13782,-0.04355 -0.0203,-0.0067 -0.0406,-0.0129 -0.0609,-0.0193 -0.0765,-0.02449 -0.15157,-0.05211 -0.22986,-0.0725 -0.0182,-0.0047 -0.036,-0.0069 -0.0542,-0.01138 -0.0194,-0.0049 -0.0388,-0.0075 -0.0582,-0.01212 -0.2306,-0.05442 -0.45825,-0.09038 -0.68293,-0.108872 -0.003,-2.68e-4 -0.007,-0.0015 -0.0106,-0.0017 -0.001,-1.15e-4 -0.003,1.12e-4 -0.005,0 -0.18655,-0.01469 -0.37155,-0.02141 -0.55351,-0.01138 -0.0604,0.0033 -0.11934,0.01376 -0.17915,0.0198 l -0.14401,-0.0057 0.0992,0.01064 c -0.0273,0.0031 -0.0547,0.0055 -0.0819,0.0092 l -0.0173,2.48e-4 0.008,7.18e-4 c -0.001,1.9e-4 -0.003,3.03e-4 -0.004,4.79e-4 -0.0334,0.0038 -0.0706,0.0022 -0.10343,0.0069 -0.19373,0.02754 -0.37956,0.06935 -0.56144,0.127183 -0.0949,0.03017 -0.18762,0.07705 -0.28109,0.116049 -0.009,0.0038 -0.0186,0.0077 -0.028,0.01163 -0.0953,0.04072 -0.19201,0.07905 -0.28727,0.12941 -0.003,0.0016 -0.007,0.0023 -0.0102,0.004 -2.6e-4,1.31e-4 -4.8e-4,3.63e-4 -9.6e-4,4.79e-4 -2.4e-4,1.18e-4 -4.8e-4,1.3e-4 -9.6e-4,2.47e-4 -0.0208,0.0104 -0.0392,0.02658 -0.0599,0.03736 -0.0104,0.0056 -0.0213,0.0094 -0.0317,0.01509 -0.0123,0.0067 -0.0241,0.01542 -0.0364,0.02227 -0.1158,0.06288 -0.22848,0.13301 -0.33923,0.208342 -0.002,0.0012 -0.004,0.002 -0.005,0.0032 l -0.008,0.0059 c -9.6e-4,5.26e-4 -10e-4,9.57e-4 -0.002,0.0015 l -9.6e-4,4.79e-4 c -0.15733,0.108153 -0.28886,0.184626 -0.38972,0.227147 -0.0763,0.03217 -0.1288,0.03838 -0.1685,0.03118 l -0.44094,-0.292471 c -0.0807,-0.05355 -0.15837,-0.09061 -0.23754,-0.137328 -0.028,-0.01647 -0.0601,-0.04254 -0.0878,-0.05815 -0.0339,-0.01905 -0.0666,-0.03295 -0.10021,-0.05072 -0.0394,-0.02078 -0.0797,-0.04963 -0.11902,-0.06879 -0.0254,-0.0124 -0.0515,-0.01845 -0.077,-0.03018 -0.0157,-0.0072 -0.0316,-0.01702 -0.0473,-0.024 -0.11333,-0.0507 -0.22597,-0.09429 -0.33948,-0.13139 -0.008,-0.0026 -0.0164,-0.0039 -0.0245,-0.0064 -0.0605,-0.01936 -0.12421,-0.0337 -0.18583,-0.04974 -0.0257,-0.0065 -0.051,-0.01461 -0.077,-0.02054 -0.0145,-0.0034 -0.0285,-0.0087 -0.043,-0.01188 -9.6e-4,-2.11e-4 -0.002,-2.85e-4 -0.003,-4.79e-4 -0.004,-8.14e-4 -0.007,-0.0022 -0.0111,-0.003 -0.041,-0.0086 -0.0845,-0.01266 -0.12619,-0.01979 -0.007,-0.0012 -0.0128,-0.0028 -0.0193,-0.004 -0.027,-0.0052 -0.0541,-0.01271 -0.0812,-0.01732 -0.0278,-0.0043 -0.053,-0.01359 -0.0812,-0.01732 -0.025,-0.0033 -0.0541,-0.0021 -0.0794,-0.0049 -0.008,-0.0011 -0.016,-0.0032 -0.024,-0.0042 -3.4e-4,-4.5e-5 -4.8e-4,-2.03e-4 -9.6e-4,-2.48e-4 -0.0325,-0.0043 -0.0647,-0.01461 -0.0972,-0.01806 -0.002,-1.82e-4 -0.003,-6.8e-5 -0.005,-2.47e-4 -0.008,-8.14e-4 -0.0161,-0.0034 -0.0242,-0.0042 -0.0504,-0.0048 -0.10163,4.79e-4 -0.15217,-0.0023 -0.0286,-0.0017 -0.0574,-0.0024 -0.0861,-0.0034 -0.0506,-0.002 -0.10066,-0.0089 -0.15144,-0.0089 z m -14.94869,0.0037 c -0.0617,0.0014 -0.12211,0.0102 -0.18335,0.01435 -0.0899,0.0061 -0.18036,0.0092 -0.26921,0.02128 -0.0103,0.0014 -0.0204,0.0045 -0.0307,0.0059 -1.6e-4,2.3e-5 -3.3e-4,-2.3e-5 -4.8e-4,0 -0.07,0.009 -0.13606,0.02702 -0.20414,0.03959 -0.0147,0.0029 -0.0294,0.0056 -0.044,0.0087 -0.002,4.48e-4 -0.004,7.66e-4 -0.006,0.0012 -0.08,0.01446 -0.16657,0.01901 -0.24372,0.0391 -0.0327,0.0085 -0.0636,0.0258 -0.096,0.03538 -1.4e-4,4.4e-5 -3.4e-4,-4.3e-5 -4.7e-4,0 -9.6e-4,3.6e-4 -0.002,0.0011 -0.003,0.0015 -0.15969,0.04749 -0.31695,0.0993 -0.47359,0.173949 -0.0379,0.01807 -0.0782,0.04755 -0.11629,0.0673 -0.018,0.0089 -0.0367,0.01367 -0.0547,0.02301 -0.0216,0.0112 -0.0447,0.02832 -0.0663,0.04009 -0.10729,0.05617 -0.2112,0.121413 -0.3145,0.1883 -1.5e-4,1.02e-4 -3.3e-4,1.46e-4 -4.8e-4,2.47e-4 -0.002,0.0017 -0.005,0.003 -0.008,0.0047 -0.008,0.005 -0.0144,0.0075 -0.022,0.01262 l -0.005,0.0034 -0.007,0.0047 h -2.5e-4 c -0.0176,0.01171 -0.0362,0.02064 -0.0537,0.03266 l -0.15243,0.104913 -0.002,0.0012 -0.14945,0.09972 -9.6e-4,4.78e-4 c -0.0457,0.0244 -0.13696,0.08546 -0.15638,0.09081 -0.0653,0.005 -0.14427,-0.03853 -0.25486,-0.122729 l -0.11333,-0.0866 c -0.0258,-0.01973 -0.0782,-0.04914 -0.11184,-0.072 -0.0462,-0.03273 -0.0908,-0.06848 -0.13807,-0.09898 -0.0211,-0.01364 -0.0435,-0.02442 -0.0648,-0.03761 -0.009,-0.0054 -0.0167,-0.01249 -0.0255,-0.01782 -0.005,-0.003 -0.0102,-0.005 -0.0151,-0.0079 -0.0172,-0.01059 -0.0357,-0.01963 -0.0532,-0.02994 -4.8e-4,-3.33e-4 -9.6e-4,-6.71e-4 -0.002,-10e-4 -0.004,-0.0023 -0.007,-0.0056 -0.0114,-0.0079 -0.001,-8.62e-4 -0.003,-0.0021 -0.004,-0.003 -2.6e-4,-1.51e-4 -4.8e-4,-3.43e-4 -9.6e-4,-4.79e-4 -0.001,-8.62e-4 -0.003,-0.0021 -0.004,-0.003 -4.8e-4,-3.22e-4 -9.6e-4,-4.2e-4 -0.002,-7.66e-4 -1.6e-4,-9.4e-5 -3.3e-4,-1.52e-4 -4.7e-4,-2.47e-4 -4.8e-4,-3.21e-4 -9.6e-4,-9.1e-4 -10e-4,-0.0012 -1.6e-4,-9.5e-5 -3.4e-4,-1.52e-4 -4.8e-4,-2.47e-4 -0.0162,-0.0095 -0.0335,-0.0155 -0.0497,-0.02475 -0.0334,-0.01839 -0.0654,-0.04005 -0.0992,-0.05741 -3.3e-4,-1.68e-4 -4.7e-4,-3.26e-4 -9.5e-4,-4.78e-4 -1.7e-4,-8.5e-5 -3.3e-4,-1.64e-4 -4.8e-4,-2.48e-4 -0.0409,-0.02101 -0.0835,-0.03717 -0.12496,-0.05666 -0.0219,-0.01014 -0.0419,-0.02242 -0.0641,-0.03217 -0.03,-0.01483 -0.0633,-0.03513 -0.0918,-0.0485 -0.12197,-0.05716 -0.22296,-0.101499 -0.32117,-0.135844 -0.0982,-0.03435 -0.19362,-0.05882 -0.30435,-0.07596 -0.0508,-0.0079 -0.12267,-0.0097 -0.18162,-0.01485 -0.01,-0.0018 -0.0196,-0.0033 -0.0294,-0.005 -0.0118,-0.0021 -0.0231,-0.006 -0.0349,-0.0079 -0.013,-0.0021 -0.0263,-0.002 -0.0394,-0.004 -0.0792,-0.01196 -0.15733,-0.03096 -0.23705,-0.0381 -0.002,-1.99e-4 -0.004,-5.3e-5 -0.007,-2.48e-4 -0.007,-7.18e-4 -0.0143,-0.0033 -0.0215,-0.004 -0.0542,-0.0051 -0.10917,0.0023 -0.16355,-7.66e-4 -0.0103,-4.67e-4 -0.0203,-0.0026 -0.0307,-0.003 -0.0207,-7.66e-4 -0.0418,0.002 -0.0626,0.0015 -9.6e-4,-3e-5 -0.001,3e-5 -0.002,0 -0.0204,-7.18e-4 -0.0408,-8.14e-4 -0.0611,-0.0012 -0.0682,-2.79e-4 -0.13611,-0.0073 -0.20438,-0.0042 -0.034,9.1e-4 -0.0674,0.0034 -0.10121,0.0052 -0.0458,0.0025 -0.0913,-0.0045 -0.13707,-4.79e-4 -0.0194,0.0017 -0.0385,0.0082 -0.0579,0.01015 l -0.23209,-0.01163 0.18013,0.02079 c -0.0197,0.0022 -0.0392,0.0079 -0.0589,0.0104 -0.043,0.0056 -0.0863,0.0093 -0.12891,0.01633 -7e-5,3e-6 -1.8e-4,-2e-6 -2.5e-4,0 -10e-4,4.8e-5 -0.003,-4.8e-5 -0.005,0 -4.8e-4,2.6e-5 -0.002,-2.5e-5 -0.002,0 -0.05,0.002 -0.0806,0.0092 -0.12446,0.01237 -0.0992,0.0071 -0.20103,0.01294 -0.2811,0.02821 -4.7e-4,9.6e-5 -0.001,1.52e-4 -0.002,2.48e-4 -0.0434,0.0084 -0.0863,0.0271 -0.12817,0.0386 -0.0679,0.01873 -0.13554,0.03375 -0.2081,0.0626 -0.003,0.0011 -0.005,0.0011 -0.008,0.0023 -0.12139,0.04827 -0.25822,0.112162 -0.43598,0.196218 -0.0423,0.02002 -0.0808,0.04408 -0.12224,0.06508 -4.8e-4,2.51e-4 -9.5e-4,4.79e-4 -0.001,7.66e-4 -0.0504,0.02345 -0.10224,0.03952 -0.15218,0.06483 -0.0299,0.01516 -0.0799,0.05612 -0.11456,0.0767 -0.007,0.004 -0.0142,0.0076 -0.021,0.01163 -0.006,0.0035 -0.0126,0.0064 -0.0186,0.0099 -0.077,0.04586 -0.14782,0.09747 -0.22121,0.14673 -0.0226,0.01556 -0.0487,0.03097 -0.071,0.04702 -9e-5,6.5e-5 -1.6e-4,1.83e-4 -2.5e-4,2.47e-4 -0.003,0.0025 -0.007,0.0047 -0.0109,0.0072 -0.0178,0.01253 -0.0372,0.02339 -0.0547,0.03613 -0.0122,0.0088 -0.0258,0.01636 -0.0379,0.02524 -0.12619,0.09272 -0.2465,0.190365 -0.36076,0.292718 -0.0311,0.02785 -0.0582,0.05859 -0.0883,0.0871 -0.0264,0.02269 -0.0638,0.04409 -0.0888,0.06681 -0.17496,0.159072 -0.31007,0.31736 -0.39738,0.466668 -0.0117,0.01513 -0.0254,0.02904 -0.0369,0.04429 -0.006,0.0078 -0.0105,0.01638 -0.0163,0.02425 -0.017,0.02305 -0.0319,0.04784 -0.0485,0.07126 -0.006,0.0082 -0.0113,0.01672 -0.0171,0.02499 -0.0558,0.07548 -0.12021,0.146954 -0.17048,0.224674 -0.12573,0.194355 -0.23051,0.381133 -0.31647,0.567374 -0.10086,0.218233 -0.1687,0.438984 -0.21997,0.666102 -0.01,0.04276 -0.0168,0.09697 -0.0235,0.142524 -7e-5,4.6e-4 -1.9e-4,0.001 -2.5e-4,0.0015 -0.003,0.01778 -0.006,0.03601 -0.009,0.05394 -0.0279,0.168194 -0.0465,0.346953 -0.0525,0.533229 -0.002,0.02567 -0.004,0.05131 -0.005,0.07695 -0.002,0.05282 -0.0116,0.104879 -0.0116,0.157866 -5e-5,0.01094 -0.003,0.02172 -0.003,0.03266 1.1e-4,0.02876 0.007,0.05758 0.008,0.08636 9.6e-4,0.03107 0.005,0.06196 0.007,0.09304 8e-5,0.0018 -8e-5,0.0032 0,0.005 0.001,0.0283 0.006,0.0553 0.008,0.08339 0.004,0.06386 0.005,0.127761 0.0119,0.191516 0.005,0.03918 0.011,0.0782 0.0168,0.117286 0,7.9e-5 -2e-5,1.69e-4 0,2.47e-4 4.7e-4,0.0035 4.7e-4,0.0073 9.5e-4,0.01089 0.001,0.0084 0.001,0.01681 0.003,0.02524 0.002,0.0155 10e-4,0.03103 0.004,0.04652 9.5e-4,0.0064 0.004,0.01268 0.005,0.01905 0.0178,0.223651 0.0517,0.394348 0.13262,0.59583 0.12022,0.39738 0.31096,0.753407 0.57406,1.100355 0.007,0.01 0.0162,0.01926 0.0235,0.0292 0.14838,0.208033 0.31634,0.398963 0.52555,0.600531 0.20748,0.199884 0.5534,0.469386 0.95413,0.763593 0.0113,0.0072 0.0278,0.02103 0.0381,0.02697 0.0411,0.03007 0.0907,0.06356 0.13337,0.09427 0.0382,0.02896 0.0773,0.05816 0.11654,0.08735 4e-5,1.06e-4 2e-4,1.41e-4 2.5e-4,2.47e-4 9.6e-4,0.0023 0.003,0.0036 0.004,0.0059 0.0148,0.03875 0.0445,0.07393 0.0804,0.09947 0.0178,0.02319 0.044,0.04132 0.0799,0.04132 0.0113,0 0.0536,0.02482 0.0767,0.03415 0.042,0.03014 0.0804,0.05944 0.12347,0.08982 0.007,0.01252 0.009,0.02705 0.0225,0.03637 0.0136,0.0091 0.0349,0.0098 0.0532,0.0146 0.0649,0.04536 0.1388,0.0929 0.20611,0.138812 0.0144,0.02493 0.0388,0.04156 0.075,0.05048 0.0696,0.04708 0.13844,0.09387 0.21057,0.141535 0.0139,0.01983 0.0335,0.03315 0.0631,0.04256 0.055,0.03611 0.10242,0.07044 0.15886,0.106893 1.6e-4,1.05e-4 3.3e-4,1.43e-4 4.7e-4,2.48e-4 0.003,0.0045 0.0196,0.01657 0.021,0.02004 0.005,0.01321 0.0212,0.01316 0.0309,0.024 0.004,0.0078 0.003,0.01802 0.009,0.02425 0.0149,0.01702 0.0353,0.02771 0.0579,0.02771 0.006,0 0.21659,0.118995 0.26277,0.142029 0.005,0.0034 0.011,0.0068 0.0163,0.01015 0.0463,0.02896 0.0822,0.05361 0.12941,0.0824 0.0633,0.03915 0.10605,0.06352 0.16381,0.09823 0.26593,0.162172 0.54658,0.328217 0.8398,0.49735 0.002,0.0017 0.001,0.0027 0.004,0.0045 0.009,0.0061 0.0252,0.01207 0.0354,0.01831 0.18757,0.107943 0.36731,0.213719 0.56614,0.324638 9.6e-4,6.7e-4 0.002,0.0013 0.003,0.002 0.019,0.01058 0.038,0.02289 0.0569,0.0334 0.0506,0.0281 0.047,0.02388 0.0965,0.05122 0.0416,0.02302 0.0396,0.02069 0.0802,0.04306 4.8e-4,4.08e-4 9.6e-4,3.34e-4 0.001,7.66e-4 0.61695,0.343154 1.19421,0.662465 1.20378,0.663132 2.7e-4,1.8e-5 0.009,-0.0049 0.009,-0.005 0,10e-7 2.4e-4,-1e-6 2.5e-4,0 1.8e-4,3.3e-5 0.009,0.0049 0.009,0.005 1.5e-4,6e-6 0.005,-0.0027 0.005,-0.0027 1.1e-4,1.1e-5 0.005,0.0027 0.005,0.0027 9.5e-4,3.1e-5 0.009,-0.0044 0.0104,-0.0045 2.6e-4,3e-5 0.008,0.0045 0.009,0.0045 2e-4,4e-6 0.002,-10e-4 0.002,-10e-4 4.8e-4,4e-6 0.006,-0.003 0.007,-0.003 1e-5,10e-7 2.4e-4,0 2.5e-4,0 2.7e-4,2.2e-5 0.007,0.004 0.007,0.004 0.009,1.45e-4 0.0814,-0.04498 0.10343,-0.05345 0.20668,-0.06774 0.77385,-0.368032 1.52842,-0.807884 0.0206,-0.012 0.0441,-0.02695 0.0648,-0.0391 0.055,-0.03207 0.11205,-0.06754 0.16801,-0.10046 0.11402,-0.06496 0.23987,-0.132611 0.35012,-0.196712 0.27654,-0.160776 0.52832,-0.315961 0.78117,-0.471369 0.007,-0.004 0.0135,-0.0081 0.0201,-0.01212 0.0854,-0.05257 0.18181,-0.107635 0.26451,-0.159597 0.3332,-0.20936 0.64438,-0.413712 0.93358,-0.61315 0.12353,-0.08519 0.22694,-0.165787 0.34245,-0.24917 0.0902,-0.06437 0.17858,-0.127921 0.26402,-0.191021 0.0623,-0.04537 0.13131,-0.09268 0.19078,-0.137329 9.6e-4,-7.18e-4 0.002,-0.0015 0.003,-0.0023 0.007,-0.0051 0.0116,-0.0098 0.0183,-0.01485 0.009,-0.0069 0.0164,-0.01338 0.0255,-0.02029 4.8e-4,-5.27e-4 10e-4,-9.58e-4 0.002,-0.0015 0.003,-0.002 0.005,-0.0039 0.007,-0.0059 0.0185,-0.01406 0.0337,-0.02733 0.052,-0.04132 0.0546,-0.04181 0.13252,-0.09134 0.18435,-0.132379 0.17295,-0.136965 0.33085,-0.269708 0.47508,-0.400106 0.0323,-0.02921 0.0571,-0.05738 0.0881,-0.08636 0.0422,-0.03835 0.073,-0.07286 0.11259,-0.110357 0.0176,-0.01728 0.0358,-0.03474 0.053,-0.05196 0.0551,-0.05072 0.12975,-0.111815 0.17345,-0.155886 0.0643,-0.06425 0.1164,-0.120682 0.1549,-0.169247 0.004,-0.0049 0.0111,-0.01164 0.0146,-0.01633 0.0191,-0.02507 0.025,-0.04174 0.0359,-0.06161 0.0754,-0.09012 0.15491,-0.181713 0.20958,-0.264263 0.0614,-0.09271 0.10967,-0.193625 0.16257,-0.291729 0.0342,-0.05893 0.0702,-0.118275 0.10046,-0.177908 0.007,-0.01383 0.0188,-0.02881 0.0252,-0.04256 0.002,-0.0053 0.003,-0.01079 0.006,-0.01608 0.008,-0.01543 0.0192,-0.03029 0.0267,-0.04578 0.0388,-0.08049 0.0622,-0.165085 0.0943,-0.24719 0.0155,-0.04162 0.0339,-0.08278 0.0477,-0.124956 0.0206,-0.05939 0.0501,-0.116195 0.0675,-0.17667 0.0541,-0.187833 0.0929,-0.381187 0.11778,-0.582221 0.007,-0.05521 0.005,-0.116064 0.009,-0.172464 0.004,-0.04034 0.0171,-0.08042 0.0201,-0.12075 0.004,-0.05636 -0.005,-0.11197 -0.003,-0.168257 1.5e-4,-0.005 -3.8e-4,-0.0099 -2.5e-4,-0.01485 9.6e-4,-0.05163 0.009,-0.09895 0.008,-0.151679 -3.2e-4,-0.04899 -0.0117,-0.09667 -0.0138,-0.145494 -0.001,-0.03006 2.5e-4,-0.06032 -0.002,-0.09031 -2e-4,-0.0046 9.6e-4,-0.01021 9.6e-4,-0.01485 -1.2e-4,-0.0025 -9.6e-4,-0.0044 -10e-4,-0.0069 -0.001,-0.02299 9.6e-4,-0.04633 -0.001,-0.06928 -2.2e-4,-0.0089 9.6e-4,-0.0245 4.8e-4,-0.03291 -1.4e-4,-0.0039 -9.6e-4,-0.0016 -10e-4,-0.0054 -0.001,-0.01572 9.6e-4,-0.03181 -9.6e-4,-0.04751 -0.007,-0.06689 -0.0291,-0.131063 -0.0396,-0.197455 -0.0103,-0.06231 -0.0241,-0.123348 -0.0373,-0.185083 -0.0238,-0.115501 -0.0361,-0.23318 -0.0695,-0.346413 -0.0215,-0.07276 -0.0584,-0.140669 -0.0839,-0.212301 -0.007,-0.01957 -0.0111,-0.04017 -0.0183,-0.05963 -0.0107,-0.0288 -0.0257,-0.05631 -0.0371,-0.08487 -0.002,-0.0045 -0.003,-0.0093 -0.004,-0.01386 -0.004,-0.01021 -0.0102,-0.01952 -0.0144,-0.02969 -0.0402,-0.09796 -0.0689,-0.199761 -0.11654,-0.294945 -0.1124,-0.224377 -0.24534,-0.440589 -0.39813,-0.645812 -0.0564,-0.07574 -0.12903,-0.141644 -0.19077,-0.214281 -0.0115,-0.01367 -0.024,-0.02631 -0.0356,-0.03984 -9.6e-4,-9.1e-4 -0.002,-0.0018 -0.002,-0.0027 -0.01,-0.0113 -0.02,-0.02243 -0.0299,-0.03365 -0.008,-0.0092 -0.0151,-0.01978 -0.0233,-0.02895 -0.008,-0.0094 -0.0178,-0.01741 -0.0262,-0.02672 -0.0711,-0.07724 -0.13146,-0.161316 -0.20884,-0.234323 -0.0361,-0.03411 -0.0815,-0.06114 -0.11901,-0.09427 -0.002,-0.0017 -0.004,-0.0032 -0.006,-0.005 -0.001,-0.0011 -0.003,-0.0021 -0.004,-0.0032 -0.0605,-0.05501 -0.11888,-0.112045 -0.18261,-0.164051 -0.0135,-0.01098 -0.0285,-0.02034 -0.0421,-0.03118 -0.0163,-0.01313 -0.0306,-0.02841 -0.047,-0.04132 -0.0514,-0.04036 -0.10774,-0.07415 -0.16083,-0.112337 -0.0351,-0.02489 -0.0676,-0.05247 -0.10343,-0.07646 -0.0142,-0.0095 -0.0299,-0.01735 -0.0443,-0.02672 -0.0978,-0.06465 -0.19838,-0.12408 -0.30113,-0.181124 -0.0124,-0.0068 -0.0237,-0.01506 -0.0361,-0.02178 -0.012,-0.0064 -0.025,-0.01146 -0.0371,-0.01782 -0.009,-0.0047 -0.0178,-0.0097 -0.0267,-0.01435 -0.0346,-0.01947 -0.0764,-0.04859 -0.11011,-0.06656 -0.1806,-0.0962 -0.35012,-0.17132 -0.52284,-0.230116 -0.17272,-0.0588 -0.34848,-0.101265 -0.54189,-0.132379 -0.0161,-0.0026 -0.0376,-0.003 -0.0539,-0.0054 -0.021,-0.0043 -0.0419,-0.0072 -0.0628,-0.01113 -0.0405,-0.0075 -0.081,-0.01132 -0.12149,-0.01757 -0.043,-0.0069 -0.086,-0.01276 -0.12892,-0.01831 -0.0238,-0.0029 -0.047,-0.0088 -0.0708,-0.01138 -0.004,-4.65e-4 -0.009,-2.9e-4 -0.0131,-7.18e-4 -1.6e-4,-1.7e-5 -3.3e-4,1.7e-5 -4.8e-4,0 -0.01,-0.0011 -0.02,-0.0034 -0.0299,-0.0045 -0.0187,-0.0019 -0.0377,-0.0062 -0.0564,-0.0079 -4.8e-4,-4.4e-5 -9.6e-4,-2.03e-4 -10e-4,-2.47e-4 -0.11874,-0.01053 -0.23646,-0.01172 -0.35408,-0.01212 -0.0351,-1.22e-4 -0.0707,-0.0043 -0.10566,-0.0034 z m -9.67728,13.02462 c -0.14228,-0.005 -0.2845,-0.0027 -0.42584,0.0069 -0.14135,0.0097 -0.28189,0.02656 -0.42015,0.05122 -0.13826,0.02466 -0.27426,0.05704 -0.40728,0.097 -0.11199,0.03364 -0.21871,0.07558 -0.32439,0.119017 -0.0192,0.0075 -0.0404,0.01149 -0.0594,0.0193 -0.006,0.0026 -0.0115,0.0065 -0.0178,0.0092 -0.0118,0.0052 -0.0224,0.01225 -0.0341,0.01757 -7e-5,3.1e-5 -1.8e-4,-3e-5 -2.5e-4,0 -0.0291,0.01276 -0.0557,0.02954 -0.0844,0.04306 -0.0776,0.03686 -0.15436,0.07507 -0.22863,0.117532 -0.008,0.0045 -0.0165,0.008 -0.0242,0.01262 -0.0254,0.01495 -0.0546,0.02492 -0.0794,0.04058 -0.0122,0.0077 -0.0228,0.01694 -0.0349,0.02475 -0.007,0.0041 -0.0125,0.0092 -0.0191,0.01336 -0.0202,0.01327 -0.0391,0.02792 -0.0589,0.04157 -0.0196,0.01331 -0.0388,0.02734 -0.0582,0.04107 -0.0616,0.0443 -0.1225,0.08925 -0.18062,0.137081 -0.0663,0.05325 -0.12991,0.109888 -0.19251,0.168257 -0.0107,0.01022 -0.0208,0.02083 -0.0314,0.03118 -0.32068,0.306634 -0.59537,0.674078 -0.80392,1.110005 -0.007,0.0145 -0.01,0.02294 -0.0163,0.03687 -0.0353,0.02792 -0.0469,0.04934 -0.0235,0.05295 -0.0454,0.09716 -0.0903,0.192357 -0.12051,0.271687 -0.0401,0.105536 -0.0681,0.20291 -0.0876,0.312761 -0.008,0.04401 -0.01,0.105838 -0.0148,0.155143 -0.0807,0.382589 -0.096,0.771411 -0.0621,1.154051 l -0.003,0.03586 0.004,-0.02423 c 0.0119,0.129996 0.0275,0.25899 0.052,0.386744 0.005,0.06709 0.011,0.134994 0.0203,0.192256 0.002,0.01326 0.002,0.03189 0.005,0.04477 0.009,0.04964 0.0281,0.101783 0.0418,0.149205 0.0442,0.158682 0.10494,0.314174 0.21107,0.538181 0.0126,0.02657 0.0287,0.05051 0.0418,0.0767 2.8e-4,4.79e-4 4.6e-4,9.58e-4 9.5e-4,0.0019 0.0296,0.06602 0.0556,0.132777 0.0888,0.19795 0.0528,0.103411 0.11539,0.205582 0.18631,0.305588 2.7e-4,3.78e-4 4.8e-4,9.58e-4 9.6e-4,0.0014 2e-4,2.77e-4 4.8e-4,4.64e-4 9.6e-4,9.57e-4 4.8e-4,9.58e-4 9.6e-4,0.0019 10e-4,0.0029 1.9e-4,2.78e-4 4.7e-4,4.65e-4 9.5e-4,9.58e-4 0.0453,0.0639 0.0992,0.124661 0.15094,0.186319 0.008,0.0091 0.0147,0.01863 0.0225,0.02772 0.0193,0.02246 0.0351,0.04616 0.0552,0.0683 4.4e-4,4.78e-4 9.5e-4,9.57e-4 0.001,0.0014 4.8e-4,4.79e-4 0.001,0.0014 0.002,0.0019 4.2e-4,4.65e-4 9.5e-4,9.58e-4 0.001,0.0014 8e-5,8.6e-5 1.7e-4,1.63e-4 2.5e-4,2.49e-4 0.002,0.0024 0.004,0.0054 0.006,0.0079 1.6e-4,1.68e-4 3.4e-4,3.26e-4 4.8e-4,4.79e-4 0.0379,0.04132 0.081,0.07954 0.1215,0.119509 0.2657,0.283725 0.57293,0.515781 0.9175,0.693816 0.009,0.0043 0.0172,0.01183 0.0262,0.01633 0.003,0.0019 0.0121,0.0038 0.0158,0.0055 0.10962,0.05474 0.22291,0.103487 0.33974,0.147228 0.008,0.0029 0.0145,0.0077 0.0223,0.01063 0.008,0.0029 0.0163,0.0043 0.024,0.0069 0.004,0.0014 0.008,0.0029 0.0119,0.0043 0.0166,0.006 0.0326,0.01274 0.0492,0.01858 0.0733,0.02485 0.14872,0.04621 0.22468,0.06681 0.0894,0.02681 0.17866,0.0547 0.26822,0.07349 0.0259,0.0055 0.0746,0.0062 0.1059,0.01087 0.10862,0.0193 0.21657,0.03869 0.31573,0.04899 0.0312,0.0034 0.0609,0.0014 0.0916,0.0038 0.0474,0.0048 0.12165,0.01973 0.15514,0.02102 0.0269,9.57e-4 0.0774,-0.0083 0.10961,-0.0094 0.0717,-4.79e-4 0.14862,-0.0081 0.2227,-0.01384 0.11753,-0.0056 0.23304,-0.01642 0.34789,-0.03218 0.006,-9.58e-4 0.0113,-0.0019 0.0171,-0.0029 0.12122,-0.01719 0.24349,-0.03088 0.36101,-0.05914 0.0779,-0.01872 0.15092,-0.04902 0.2269,-0.0725 0.0408,-0.0113 0.0866,-0.01575 0.12644,-0.0282 0.04,-0.0125 0.0703,-0.03266 0.10912,-0.04625 0.008,-0.0029 0.0171,-0.0048 0.0252,-0.0079 0.003,-0.0014 0.006,-0.0034 0.01,-0.0043 0.0321,-0.01269 0.0628,-0.02772 0.0945,-0.04132 0.0283,-0.01154 0.0555,-0.02471 0.0834,-0.03687 0.0862,-0.03764 0.18397,-0.06697 0.26055,-0.110603 0.0534,-0.03045 0.0995,-0.06797 0.15069,-0.100706 0.0539,-0.02705 0.13213,-0.08092 0.15465,-0.08092 0.0448,0 0.16943,-0.112044 0.31077,-0.254364 0.008,-0.0069 0.0172,-0.0125 0.025,-0.01954 0.0227,-0.02064 0.0422,-0.0441 0.0643,-0.06532 0.004,-0.0038 0.009,-0.0064 0.0131,-0.01015 0.009,-0.0086 0.0157,-0.01949 0.0248,-0.0282 0.0536,-0.05316 0.10912,-0.104637 0.15885,-0.161085 0.0401,-0.04549 0.0748,-0.09506 0.11234,-0.142521 0.0158,-0.01939 0.0356,-0.03495 0.051,-0.05469 0.008,-0.01 0.0131,-0.02188 0.0208,-0.03194 0.0128,-0.01695 0.0293,-0.03055 0.0418,-0.04774 0.0326,-0.04487 0.055,-0.09742 0.0854,-0.14401 0.007,-0.01058 0.0136,-0.02126 0.0203,-0.03194 0.031,-0.04463 0.0722,-0.09584 0.0965,-0.135592 0.0134,-0.02183 0.0214,-0.04816 0.0341,-0.07052 0.009,-0.01623 0.0212,-0.02988 0.0299,-0.04625 0.0125,-0.02346 0.0197,-0.05044 0.0316,-0.07423 0.0162,-0.03299 0.0303,-0.06706 0.0455,-0.100705 0.009,-0.02016 0.02,-0.03917 0.029,-0.05963 0.0119,-0.02523 0.0301,-0.05148 0.0413,-0.07671 0.004,-0.01 0.006,-0.02025 0.0104,-0.03021 0.0169,-0.04314 0.03,-0.08813 0.0453,-0.13238 9.6e-4,-0.0024 0.001,-0.0043 0.002,-0.0067 0.0111,-0.03093 0.0279,-0.0582 0.0384,-0.08957 0.008,-0.02471 0.0111,-0.05244 0.0188,-0.07744 0.0194,-0.06195 0.0482,-0.122056 0.0636,-0.185333 0.0111,-0.04549 0.0127,-0.09659 0.0218,-0.143019 0.0116,-0.04995 0.0219,-0.100088 0.0316,-0.15044 0.005,-0.02945 0.0136,-0.05713 0.0183,-0.08685 0.005,-0.02677 0.0128,-0.05281 0.0168,-0.07968 0.0473,-0.313269 0.0586,-0.631843 0.0334,-0.946942 -0.005,-0.06028 -0.0175,-0.119428 -0.025,-0.179392 l 0.002,-0.04677 -0.004,0.03464 c -0.0118,-0.09268 -0.0204,-0.18585 -0.0386,-0.277378 -0.0139,-0.06965 -0.0364,-0.137115 -0.0539,-0.205868 -0.0152,-0.06175 -0.0303,-0.123435 -0.0482,-0.183599 -0.007,-0.02233 -0.0105,-0.0456 -0.0178,-0.0678 -0.009,-0.0265 -0.0216,-0.05139 -0.0309,-0.0777 -0.0394,-0.114509 -0.0838,-0.225561 -0.13311,-0.333546 -0.004,-0.0089 -0.007,-0.01855 -0.0109,-0.02746 -0.002,-0.0048 -0.005,-0.0091 -0.008,-0.01386 -0.0172,-0.03632 -0.0315,-0.07458 -0.0497,-0.11011 -0.11068,-0.215381 -0.24166,-0.416081 -0.39095,-0.600284 -0.0746,-0.0921 -0.15394,-0.180161 -0.23755,-0.263768 -0.1274,-0.127405 -0.26787,-0.241088 -0.4147,-0.347402 -0.0247,-0.01858 -0.0456,-0.04176 -0.0708,-0.05963 -0.0186,-0.01319 -0.0403,-0.02209 -0.0591,-0.03489 -0.002,-0.0017 -0.005,-0.0038 -0.007,-0.0054 -0.0116,-0.0076 -0.0244,-0.0136 -0.0361,-0.02103 -0.002,-0.0014 -0.004,-0.0035 -0.006,-0.0049 -0.005,-0.0028 -0.0101,-0.0044 -0.0146,-0.0072 -0.0139,-0.0087 -0.0287,-0.01622 -0.0428,-0.02475 -0.007,-0.0042 -0.014,-0.0082 -0.021,-0.01237 -0.0906,-0.05552 -0.17807,-0.115664 -0.27466,-0.162319 -2.3e-4,-1.11e-4 -4.8e-4,-1.35e-4 -9.6e-4,-2.47e-4 -0.019,-0.0091 -0.0405,-0.01397 -0.0596,-0.02276 -0.0455,-0.02088 -0.0948,-0.03532 -0.14153,-0.05419 -1.1e-4,-4e-5 -1.5e-4,-2.08e-4 -2.5e-4,-2.47e-4 -0.0382,-0.01561 -0.0771,-0.03012 -0.11605,-0.04454 -7e-5,-2.8e-5 -1.8e-4,2.7e-5 -2.5e-4,0 -0.0651,-0.02347 -0.12592,-0.05441 -0.19325,-0.07398 -0.004,-0.0011 -0.0101,-0.0016 -0.0141,-0.0027 -0.005,-0.0016 -0.01,-0.0041 -0.0153,-0.0057 -0.0132,-0.0038 -0.0318,-0.0043 -0.0453,-0.0079 -0.002,-6.23e-4 -0.005,-0.0018 -0.007,-0.0025 -9.6e-4,-2.78e-4 -0.002,-2.19e-4 -0.003,-4.79e-4 -0.002,-7.18e-4 -0.005,-0.0018 -0.007,-0.0025 -0.0423,-0.0119 -0.0871,-0.01939 -0.13015,-0.02994 -0.0124,-0.0032 -0.0242,-0.0079 -0.0366,-0.01089 -0.012,-0.0029 -0.0246,-0.0041 -0.0366,-0.0069 -0.0385,-0.009 -0.0768,-0.01767 -0.11555,-0.02549 -0.0184,-0.0036 -0.0359,-0.009 -0.0544,-0.01237 -0.0306,-0.0055 -0.0631,-0.0073 -0.094,-0.01212 -0.0927,-0.0155 -0.18564,-0.02711 -0.27935,-0.03638 -0.006,-5.26e-4 -0.0119,-0.002 -0.018,-0.0025 -0.005,-4.31e-4 -0.0106,-8.2e-5 -0.0159,-4.78e-4 -0.0768,-0.007 -0.15335,-0.01731 -0.23037,-0.02004 z m 33.61934,0.0037 c -0.28935,-0.02327 -0.57722,-0.0027 -0.86182,0.03736 -0.008,0.0011 -0.0152,0.0011 -0.0228,0.0023 -0.0149,0.0022 -0.0294,0.0065 -0.0443,0.0089 l -0.11926,-0.004 0.0898,0.0089 c -0.0207,0.0034 -0.0415,0.0066 -0.0621,0.01039 -0.02,0.0034 -0.04,0.0063 -0.0599,0.0099 -0.10666,0.02129 -0.21177,0.04423 -0.31598,0.07448 -4.8e-4,1.45e-4 -9.6e-4,3.49e-4 -0.001,4.79e-4 -0.003,7.18e-4 -0.006,0.0012 -0.009,0.002 -0.007,0.0019 -0.0146,0.0025 -0.0216,0.0045 -9.5e-4,2.9e-4 -0.002,7.18e-4 -0.003,10e-4 -0.0272,0.0072 -0.0566,0.01126 -0.0834,0.01905 -0.063,0.01832 -0.12405,0.04485 -0.18607,0.06755 -0.0233,0.0085 -0.0468,0.01651 -0.0698,0.02549 -0.0334,0.01318 -0.0679,0.02221 -0.10095,0.03662 -0.11681,0.05094 -0.23134,0.109231 -0.34271,0.174691 -0.0191,0.01123 -0.0368,0.02548 -0.0557,0.03711 -0.0504,0.02985 -0.1,0.06 -0.14846,0.09229 -0.0155,0.01017 -0.0285,0.023 -0.0438,0.0334 -0.11006,0.07524 -0.21582,0.157673 -0.31722,0.24719 -0.0144,0.01266 -0.0306,0.02295 -0.0448,0.03588 -0.003,0.0029 -0.006,0.0062 -0.009,0.0092 -0.026,0.02418 -0.0522,0.04771 -0.0774,0.07275 -0.0116,0.01136 -0.0244,0.0206 -0.0359,0.03217 -4.8e-4,5.27e-4 -9.6e-4,0.0012 -0.001,0.0017 -0.0305,0.03026 -0.056,0.06485 -0.0854,0.09625 -0.044,0.04767 -0.0877,0.0959 -0.12991,0.146731 -0.01,0.01207 -0.0212,0.02265 -0.0309,0.03489 -2.5e-4,3.17e-4 -4.8e-4,6.71e-4 -9.5e-4,10e-4 -0.009,0.01096 -0.0192,0.02033 -0.028,0.03142 -0.002,0.0028 -0.003,0.0056 -0.006,0.0084 -0.005,0.0066 -0.0123,0.01144 -0.0176,0.01806 -0.0192,0.02444 -0.0305,0.04957 -0.0487,0.07398 -0.004,0.0052 -0.007,0.01042 -0.0104,0.01559 -0.0127,0.01618 -0.0186,0.03023 -0.0307,0.04627 -7e-5,9.9e-5 -1.7e-4,1.48e-4 -2.4e-4,2.47e-4 -0.0374,0.05339 -0.0758,0.105116 -0.11036,0.160835 -0.0104,0.01618 -0.0195,0.03294 -0.0297,0.04924 -4.1e-4,6.7e-4 -9.6e-4,0.0013 -0.001,0.002 -0.0167,0.02825 -0.0447,0.06071 -0.0584,0.08759 -3e-5,5.3e-5 3e-5,1.95e-4 0,2.47e-4 -0.001,0.0029 -0.002,0.006 -0.004,0.0089 -1.4e-4,2.66e-4 -3.6e-4,4.77e-4 -4.8e-4,7.19e-4 -0.017,0.03022 -0.0352,0.06142 -0.051,0.09205 -0.2022,0.377349 -0.3177,0.795491 -0.37512,1.248323 -0.0142,0.09952 -0.0191,0.198408 -0.026,0.29742 -1.7e-4,0.0025 -4.8e-4,0.005 -9.6e-4,0.0074 -4.7e-4,0.0081 -0.002,0.01613 -0.003,0.02425 -1.8e-4,0.0034 1.7e-4,0.0069 0,0.01039 -0.002,0.04317 -0.008,0.08664 -0.01,0.129657 -1e-5,1.66e-4 0,3.29e-4 0,4.79e-4 -1e-5,0.0013 -9.6e-4,0.0045 -9.6e-4,0.0057 0,6.7e-4 2.4e-4,0.0013 2.4e-4,0.002 -4.8e-4,0.03465 -0.008,0.06484 -0.008,0.09996 0,7.66e-4 2.4e-4,0.0014 2.4e-4,0.0023 0,0.0055 -0.001,0.01035 -0.001,0.01583 2.4e-4,0.08214 0.0145,0.158367 0.0191,0.238778 0.002,0.02848 0.001,0.05726 0.004,0.08561 l -0.009,0.127185 0.0146,-0.08883 c 4.3e-4,0.0043 10e-4,0.0089 0.002,0.01336 0.0132,0.15045 0.0292,0.298976 0.0572,0.442421 0.004,0.03318 0.006,0.07206 0.0109,0.102932 0.002,0.01159 0.002,0.02801 0.004,0.03936 1.3e-4,4.79e-4 3.7e-4,0.0014 4.8e-4,0.0019 0.009,0.04835 0.028,0.09987 0.0416,0.146481 0.0183,0.06495 0.0366,0.134736 0.0641,0.203892 0.0458,0.137675 0.10848,0.264543 0.1685,0.393179 0.0174,0.03787 0.0311,0.07775 0.0497,0.114811 0.0701,0.137647 0.15318,0.264879 0.23927,0.390455 0.0352,0.05168 0.0653,0.10683 0.10318,0.156378 0.0835,0.108707 0.17925,0.205898 0.27491,0.303606 0.052,0.05334 0.0985,0.111403 0.15415,0.161329 0.0708,0.06342 0.15067,0.116584 0.2269,0.1742 0.0233,0.0182 0.048,0.03438 0.0718,0.05196 0.008,0.0057 0.0157,0.01168 0.0238,0.01733 0.0625,0.044 0.11901,0.09422 0.18483,0.134357 0.0424,0.02581 0.0892,0.04563 0.13288,0.06978 0.12068,0.06837 0.24642,0.129372 0.3766,0.183599 0.025,0.01025 0.0474,0.02365 0.0727,0.03342 0.004,0.0019 0.008,0.0043 0.0123,0.0059 0.0254,0.0097 0.0544,0.01384 0.0802,0.02303 0.0137,0.0049 0.0271,0.01029 0.0409,0.01508 0.024,0.0083 0.0465,0.01887 0.0708,0.02672 7e-5,2.4e-5 1.7e-4,-2.4e-5 2.4e-4,0 0.0406,0.01317 0.0828,0.02351 0.12422,0.03539 0.10576,0.03208 0.21177,0.06404 0.32166,0.0871 0.13593,0.02854 0.27918,0.044 0.42535,0.0532 0.0374,0.0024 0.0747,0.0034 0.11258,0.0048 3.3e-4,1e-5 4.8e-4,-10e-6 9.6e-4,0 0.039,0.0024 0.0797,0.01254 0.11852,0.01384 0.17685,0.0058 0.35135,-0.0089 0.52606,-0.02868 0.0374,-0.0043 0.0753,-9.58e-4 0.11258,-0.0062 2.6e-4,-3.4e-5 4.8e-4,-2.11e-4 9.6e-4,-2.44e-4 3.3e-4,-4.8e-5 4.8e-4,4.7e-5 9.6e-4,0 0.0547,-0.0079 0.11003,-0.02835 0.16479,-0.03883 0.15636,-0.02997 0.31259,-0.05902 0.47063,-0.11011 0.21397,-0.06918 0.43043,-0.157867 0.65249,-0.266492 0.13183,-0.06449 0.25731,-0.137618 0.3761,-0.218242 0.003,-0.0024 0.006,-0.0055 0.01,-0.0079 0.004,-0.0029 0.008,-0.0061 0.0116,-0.0089 0.009,-0.0063 0.0201,-0.01092 0.0292,-0.01733 0.006,-0.0043 0.0112,-0.01 0.0173,-0.01436 0.0109,-0.0078 0.0243,-0.01312 0.0352,-0.02102 0.038,-0.02782 0.0694,-0.06465 0.1059,-0.09427 0.0377,-0.0306 0.0784,-0.05787 0.11457,-0.09007 0.0127,-0.01135 0.0246,-0.02337 0.0371,-0.03491 0.002,-0.0019 0.004,-0.0043 0.006,-0.0059 3.9e-4,-3.55e-4 9.6e-4,-4.79e-4 0.001,-9.58e-4 0.0391,-0.03601 0.0767,-0.07306 0.11382,-0.110852 0.0102,-0.01063 0.0224,-0.01815 0.0324,-0.02897 0.0116,-0.01255 0.0212,-0.0295 0.0326,-0.04233 0.0281,-0.0305 0.0633,-0.05791 0.0891,-0.08932 0.009,-0.01058 0.0155,-0.02203 0.024,-0.03266 0.0214,-0.02562 0.0493,-0.04855 0.0693,-0.07473 0.0163,-0.02135 0.029,-0.04443 0.0448,-0.06607 4.7e-4,-9.58e-4 0.001,-0.0014 0.002,-0.0024 0.003,-0.0038 0.004,-0.0073 0.007,-0.01087 0.0179,-0.0248 0.0342,-0.05034 0.0515,-0.07547 0.003,-0.0043 0.007,-0.0082 0.0101,-0.01259 0.009,-0.01197 0.0153,-0.02552 0.0238,-0.03763 0.003,-0.0043 0.006,-0.0089 0.009,-0.01336 0.006,-0.0085 0.0115,-0.01671 0.0171,-0.02523 0.0215,-0.03337 0.0467,-0.06505 0.067,-0.09898 0.009,-0.01523 0.0159,-0.03146 0.0248,-0.04678 0.006,-0.01053 0.0142,-0.01982 0.0203,-0.03045 0.003,-0.0057 0.005,-0.01207 0.009,-0.01781 0.0217,-0.03735 0.0432,-0.07471 0.0636,-0.113078 0.005,-0.01015 0.0138,-0.02002 0.019,-0.03017 0.01,-0.01911 0.0144,-0.04017 0.0238,-0.05938 0.008,-0.01532 0.0149,-0.03079 0.0223,-0.04625 0.002,-0.0056 0.006,-0.01096 0.009,-0.01657 7e-5,-1.67e-4 1.7e-4,-3.3e-4 2.4e-4,-4.79e-4 0.003,-0.0068 0.007,-0.01278 0.0106,-0.01954 0.004,-0.0082 0.006,-0.01724 0.01,-0.02547 0.0122,-0.0271 0.0268,-0.05263 0.0384,-0.08017 0.006,-0.01341 0.0127,-0.02274 0.0191,-0.03639 0.056,-0.119533 0.0995,-0.21986 0.13361,-0.316721 4e-5,-9.1e-5 2.2e-4,-1.53e-4 2.5e-4,-2.49e-4 0.0276,-0.07848 0.0453,-0.157609 0.0616,-0.240014 0.003,-0.01547 0.01,-0.0294 0.0129,-0.0453 3.6e-4,-0.0019 4e-4,-0.0049 9.6e-4,-0.0069 2.4e-4,-0.0014 9.6e-4,-0.0029 9.6e-4,-0.0043 0.007,-0.04319 0.009,-0.102803 0.0136,-0.151183 3.5e-4,-0.0034 4.8e-4,-0.0072 9.6e-4,-0.01063 10e-6,-8.2e-5 0,-1.68e-4 0,-2.49e-4 4e-4,-0.0019 10e-4,-0.0038 0.002,-0.0059 0.008,-0.04099 0.008,-0.08386 0.0146,-0.125202 0.0132,-0.08356 0.0211,-0.167707 0.0292,-0.252137 0.002,-0.0204 0.006,-0.04041 0.007,-0.06087 4.8e-4,-0.0063 0.002,-0.0125 0.002,-0.01882 2e-5,-3.35e-4 -2e-5,-4.78e-4 0,-9.57e-4 0.004,-0.05503 0.0108,-0.109145 0.0126,-0.164544 1e-5,-3.28e-4 -1e-5,-6.71e-4 0,-10e-4 0.005,-0.145834 0.003,-0.292213 -0.007,-0.438211 -0.001,-0.02295 -0.006,-0.04561 -0.008,-0.06854 -9.6e-4,-0.01243 2.8e-4,-0.02468 -9.6e-4,-0.03712 -0.002,-0.02008 -0.008,-0.04005 -0.0106,-0.06013 -0.01,-0.09057 -0.0173,-0.181373 -0.0331,-0.271192 -0.006,-0.08439 -0.0104,-0.174809 -0.0215,-0.243726 -0.0174,-0.108518 -0.0417,-0.203184 -0.076,-0.300884 -0.0343,-0.0977 -0.0783,-0.198607 -0.13486,-0.319194 -0.0884,-0.188559 -0.17457,-0.353752 -0.26327,-0.502051 -0.0885,-0.14788 -0.17951,-0.278889 -0.27787,-0.398375 -2.3e-4,-2.72e-4 -4.8e-4,-4.7e-4 -9.6e-4,-7.18e-4 -0.0983,-0.119331 -0.2039,-0.227474 -0.32167,-0.330082 -4.8e-4,-4.42e-4 -0.001,-8.14e-4 -0.002,-0.0012 -0.0524,-0.0456 -0.1178,-0.08817 -0.17543,-0.132132 -0.009,-0.0074 -0.0172,-0.01525 -0.0262,-0.02252 -4.5e-4,-3.69e-4 -9.5e-4,-8.62e-4 -0.001,-0.0012 -9.6e-4,-6.7e-4 -0.002,-0.0011 -0.003,-0.0017 -4e-4,-3.28e-4 -9.5e-4,-6.7e-4 -0.001,-0.001 -0.01,-0.0077 -0.0176,-0.01788 -0.0275,-0.02549 -0.0199,-0.01533 -0.0436,-0.02571 -0.0638,-0.04058 -0.007,-0.0046 -0.012,-0.0093 -0.0185,-0.01386 -0.0274,-0.01905 -0.0483,-0.03911 -0.0769,-0.05815 -9.6e-4,-5.75e-4 -0.002,-9.1e-4 -0.003,-0.0015 -4.7e-4,-3.14e-4 -9.6e-4,-6.71e-4 -0.001,-0.001 -0.003,-0.0021 -0.007,-0.0032 -0.01,-0.0052 -0.004,-0.0026 -0.008,-0.0041 -0.0119,-0.0067 -0.005,-0.0037 -0.01,-0.0092 -0.0151,-0.01287 -0.008,-0.0054 -0.0166,-0.0093 -0.0245,-0.0146 -9e-5,-6.3e-5 -1.5e-4,-1.84e-4 -2.4e-4,-2.47e-4 -0.0231,-0.01527 -0.0435,-0.03325 -0.0671,-0.048 -0.0335,-0.02101 -0.0731,-0.03782 -0.10838,-0.05765 -0.0327,-0.01891 -0.0639,-0.04093 -0.0972,-0.05864 -0.0318,-0.01686 -0.0657,-0.02949 -0.098,-0.04528 -0.008,-0.0037 -0.0145,-0.0085 -0.0225,-0.01212 -0.001,-6.7e-4 -0.003,-0.0011 -0.005,-0.0017 -9.6e-4,-3.6e-4 -0.001,-8.62e-4 -0.002,-0.0012 -0.003,-0.0015 -0.007,-0.0027 -0.0109,-0.0042 -0.007,-0.0034 -0.0139,-0.0085 -0.021,-0.01188 -0.005,-0.0022 -0.01,-0.0033 -0.0144,-0.0054 -0.016,-0.0072 -0.0301,-0.01729 -0.0462,-0.02425 -1.7e-4,-7.2e-5 -3.3e-4,-1.77e-4 -4.8e-4,-2.48e-4 -0.0117,-0.005 -0.0248,-0.0077 -0.0366,-0.01262 -0.0288,-0.01219 -0.0581,-0.02375 -0.0873,-0.03514 -0.0214,-0.0085 -0.0403,-0.02239 -0.0619,-0.03043 -0.0186,-0.0069 -0.0389,-0.009 -0.0577,-0.01559 -0.004,-0.0016 -0.009,-0.0038 -0.0131,-0.0054 -0.0308,-0.0112 -0.0629,-0.01832 -0.094,-0.0287 -9.6e-4,-2.8e-4 -0.001,-7.18e-4 -0.002,-0.001 -0.0347,-0.01144 -0.0674,-0.02897 -0.10244,-0.03934 -0.0283,-0.0084 -0.059,-0.01113 -0.0876,-0.0188 -0.0292,-0.008 -0.0575,-0.01912 -0.0868,-0.02647 -8e-5,-2e-5 -1.7e-4,2e-5 -2.4e-4,0 -0.044,-0.0113 -0.0886,-0.01648 -0.13288,-0.02623 -0.0831,-0.01775 -0.16583,-0.03718 -0.24991,-0.04949 -0.0414,-0.0061 -0.0834,-0.0074 -0.12496,-0.01212 -0.0531,-0.0064 -0.10541,-0.02171 -0.15861,-0.02598 z m -26.03266,4.315804 c -0.0174,-9.58e-4 -0.0354,0.0034 -0.0529,0.0038 -0.0286,-2.35e-4 -0.0574,0.0034 -0.0861,0.0067 -0.0121,0.0019 -0.0239,3.59e-4 -0.0361,0.0029 -0.0114,0.0024 -0.0234,0.0079 -0.0349,0.01063 -0.11903,0.02452 -0.23906,0.0732 -0.36052,0.155641 -0.008,0.0052 -0.0198,0.0093 -0.028,0.0146 -5e-5,3.8e-5 -1.9e-4,-3.9e-5 -2.4e-4,0 -0.0115,0.0074 -0.0185,0.01661 -0.0294,0.02423 -2.5e-4,1.77e-4 -4.8e-4,3.16e-4 -9.6e-4,4.79e-4 -0.0181,0.01274 -0.0326,0.0272 -0.0492,0.04056 -3.4e-4,2.68e-4 -4.8e-4,4.74e-4 -9.6e-4,9.58e-4 -0.0343,0.02734 -0.0729,0.05295 -0.10095,0.08289 -0.0139,0.01484 -0.0211,0.03251 -0.0334,0.048 -0.007,0.0076 -0.0121,0.01575 -0.0183,0.02351 -0.007,0.009 -0.0145,0.01729 -0.0205,0.02648 -0.026,0.0361 -0.0493,0.07369 -0.0668,0.114313 -0.0121,0.02729 -0.0208,0.05658 -0.029,0.08586 -3.8e-4,0.0014 -3.6e-4,0.0029 -9.5e-4,0.0043 -0.009,0.03433 -0.0167,0.06938 -0.0203,0.106648 -0.002,0.01978 -0.006,0.03878 -0.006,0.05938 -0.003,0.02686 -0.01,0.0534 -0.01,0.08042 0,0.0024 0.001,0.0065 0.001,0.0091 -4e-5,0.0038 -0.001,0.0071 -0.001,0.01087 0,0.05223 0.0105,0.114381 0.0302,0.184834 0.0148,0.05319 0.0398,0.115042 0.0648,0.17692 0.005,0.01432 0.0103,0.02873 0.0159,0.04328 0.005,0.01226 0.013,0.02605 0.0186,0.03859 0.008,0.02025 0.0222,0.04429 0.0312,0.06508 0.029,0.06688 0.0623,0.136564 0.1,0.208838 0.0242,0.04664 0.0367,0.0858 0.0646,0.13485 0.31516,0.554929 0.72115,1.071635 1.19586,1.547722 0.0501,0.05079 0.0984,0.102065 0.15044,0.15193 0.18705,0.178174 0.38666,0.348461 0.59385,0.51343 0.064,0.05066 0.12751,0.101017 0.1935,0.15044 0.034,0.02657 0.0717,0.05803 0.0995,0.07646 0.0586,0.043 0.12361,0.08074 0.1836,0.122727 0.009,0.0062 0.0203,0.01705 0.029,0.02303 0.0339,0.02341 0.0711,0.04376 0.1054,0.06681 0.0381,0.0261 0.077,0.05131 0.11556,0.07695 0.051,0.034 0.10811,0.07658 0.15291,0.10368 0.0773,0.04825 0.15728,0.09361 0.23656,0.140294 0.016,0.0094 0.0305,0.02035 0.0465,0.02969 0.0108,0.0063 0.0226,0.01154 0.0334,0.01781 0.0885,0.05159 0.17495,0.104397 0.26575,0.153908 0.0223,0.01221 0.0429,0.02605 0.0653,0.03811 0.032,0.01695 0.0322,0.02327 0.0708,0.04233 0.0536,0.02648 0.1383,0.06145 0.2024,0.09106 0.0984,0.04908 0.19889,0.09526 0.29965,0.142028 0.0152,0.0071 0.03,0.01475 0.0453,0.02179 0.055,0.02552 0.10569,0.05563 0.16133,0.08042 0.0102,0.0043 0.0214,0.0081 0.0316,0.01259 4.7e-4,2.06e-4 9.5e-4,2.87e-4 0.001,4.79e-4 0.0286,0.01264 0.0549,0.02791 0.0836,0.04032 4e-4,1.72e-4 9.6e-4,3.2e-4 0.001,4.78e-4 0.12171,0.05232 0.25067,0.0952 0.37536,0.144011 0.0853,0.03333 0.16956,0.06701 0.25609,0.09873 0.0678,0.02499 0.1316,0.05526 0.20018,0.07918 0.0176,0.0062 0.0365,0.01049 0.0542,0.01657 0.0296,0.01015 0.0573,0.02322 0.0871,0.03313 0.0492,0.01642 0.10137,0.02768 0.15094,0.04357 0.12821,0.04104 0.25828,0.07789 0.38897,0.115305 0.0559,0.01614 0.11069,0.03376 0.16702,0.04924 0.0844,0.02308 0.16807,0.04673 0.25338,0.06829 0.10044,0.02499 0.2031,0.0441 0.30459,0.0668 0.0193,0.0043 0.0388,0.0083 0.0582,0.01259 0.10701,0.0238 0.20915,0.05558 0.31746,0.07696 0.0272,0.0054 0.0561,0.0072 0.0834,0.01235 0.035,0.0068 0.0693,0.01475 0.10442,0.02126 0.0247,0.0048 0.0482,0.01164 0.073,0.01609 0.35375,0.06315 0.71323,0.113025 1.0771,0.1492 0.29056,0.02887 0.5435,0.05075 0.77744,0.06533 0.4679,0.02916 0.85994,0.02954 1.32454,0.0019 0.0625,-0.0038 0.14163,-0.01207 0.2071,-0.01681 0.0393,-0.0019 0.0789,-0.0029 0.11803,-0.0052 0.01,-4.78e-4 0.0198,-4.78e-4 0.0297,-0.0014 0.0482,-0.0029 0.0974,-0.0029 0.14549,-0.0062 0.0769,-0.0055 0.15191,-0.01614 0.22839,-0.02274 0.0252,-0.0024 0.0513,-9.58e-4 0.0765,-0.0034 0.0351,-0.0034 0.0686,-0.01111 0.10368,-0.0146 0.14431,-0.01432 0.29003,-0.0249 0.43277,-0.04328 0.27747,-0.03582 0.55179,-0.07942 0.82248,-0.130397 0.014,-0.0024 0.0273,-0.0065 0.0413,-0.0091 0.25635,-0.04908 0.50993,-0.103703 0.75914,-0.166031 0.15804,-0.0395 0.31133,-0.08691 0.46618,-0.131637 0.0592,-0.01705 0.11913,-0.03218 0.1779,-0.04999 0.0432,-0.01312 0.0882,-0.02356 0.13114,-0.03711 0.14624,-0.04611 0.2871,-0.09968 0.43005,-0.150441 0.0377,-0.01365 0.0797,-0.02662 0.11778,-0.04108 0.0655,-0.02399 0.13365,-0.04453 0.19845,-0.06953 0.0675,-0.026 0.13127,-0.05656 0.19795,-0.08364 0.0406,-0.01642 0.0851,-0.02772 0.12545,-0.04453 0.10512,-0.04381 0.20611,-0.09262 0.30905,-0.13906 9.6e-4,-3.78e-4 0.001,-9.57e-4 0.002,-0.0014 0.025,-0.0113 0.0516,-0.02069 0.0765,-0.03218 9.6e-4,-4.45e-4 0.002,-9.57e-4 0.003,-0.0014 0.0144,-0.0067 0.0277,-0.01456 0.0421,-0.02126 0.0541,-0.02519 0.11055,-0.04783 0.16405,-0.07373 0.19477,-0.09436 0.38515,-0.193357 0.57084,-0.297175 0.0683,-0.03816 0.13247,-0.08009 0.19943,-0.119514 0.41486,-0.228732 0.82947,-0.517308 1.22581,-0.852421 0.0353,-0.02911 0.0734,-0.05607 0.10813,-0.08561 0.0388,-0.03299 0.0738,-0.06867 0.11184,-0.10219 0.014,-0.01226 0.0297,-0.02332 0.0435,-0.03562 0.0271,-0.02408 0.0507,-0.0506 0.0774,-0.07497 0.0702,-0.06436 0.14362,-0.126476 0.21107,-0.192754 0.0263,-0.02586 0.0516,-0.05974 0.0779,-0.0866 1.6e-4,-1.63e-4 3.4e-4,-3.36e-4 4.8e-4,-4.79e-4 0.0443,-0.04458 0.093,-0.08626 0.13609,-0.131638 0.23797,-0.25073 0.44903,-0.517658 0.64606,-0.792295 0.0255,-0.03347 0.0521,-0.06698 0.0765,-0.100213 3e-4,-4.16e-4 4.8e-4,-9.57e-4 9.6e-4,-0.0014 0.0473,-0.06463 0.0939,-0.128549 0.13658,-0.192012 0.004,-0.0059 0.01,-0.01221 0.0136,-0.01805 0.004,-0.0058 0.006,-0.01101 0.0104,-0.01681 4.8e-4,-9.58e-4 0.002,-0.0019 0.002,-0.0034 0.004,-0.0064 0.007,-0.01197 0.0111,-0.01829 0.0918,-0.135257 0.17602,-0.267441 0.24372,-0.390704 0.0115,-0.02102 0.0162,-0.03783 0.027,-0.05839 0.008,-0.01389 0.0233,-0.03682 0.0309,-0.05023 0.0903,-0.158906 0.14565,-0.281724 0.17766,-0.389463 0.002,-0.0054 0.007,-0.0135 0.009,-0.01882 0.0345,-0.111129 0.0447,-0.206745 0.0351,-0.301135 -0.006,-0.05818 -0.0314,-0.120658 -0.0512,-0.181368 l 0.003,-0.02571 -0.005,0.01829 c -0.0118,-0.03543 -0.0137,-0.06723 -0.0297,-0.105412 -0.0342,-0.08187 -0.0776,-0.154961 -0.12818,-0.219228 -0.0104,-0.01326 -0.0244,-0.02164 -0.0354,-0.03414 -0.008,-0.0091 -0.0118,-0.02246 -0.0201,-0.03117 -0.0138,-0.01456 -0.0331,-0.02116 -0.0477,-0.03467 -0.0233,-0.02121 -0.043,-0.04745 -0.068,-0.06582 -0.0289,-0.02116 -0.0621,-0.03366 -0.093,-0.05097 -0.0185,-0.01044 -0.0325,-0.0283 -0.0517,-0.03735 -0.01,-0.0048 -0.0221,-0.0043 -0.0322,-0.0084 -0.009,-0.0038 -0.0169,-0.01077 -0.0262,-0.01436 -0.0717,-0.02772 -0.14674,-0.04616 -0.2232,-0.05493 -0.005,-4.78e-4 -0.0102,9.58e-4 -0.0153,2.45e-4 -0.0231,-0.0024 -0.0468,0.0014 -0.0703,9.57e-4 -0.075,-0.0014 -0.14931,0.0057 -0.22393,0.02251 -0.0107,0.0014 -0.0254,-0.0019 -0.0359,2.49e-4 -0.007,9.57e-4 -0.0123,0.0043 -0.0188,0.0057 -0.005,0.0014 -0.01,1.1e-4 -0.0146,0.0014 -0.0109,0.0029 -0.0192,0.0086 -0.0297,0.01188 -0.0287,0.008 -0.0583,0.01393 -0.0856,0.02571 -0.0156,0.0068 -0.0301,0.01819 -0.0453,0.02624 -0.007,0.0038 -0.0148,0.0087 -0.022,0.01288 -0.0234,0.0135 -0.0473,0.02394 -0.0703,0.04084 -0.009,0.0063 -0.0172,0.0204 -0.0257,0.0272 -0.008,0.0056 -0.0157,0.01005 -0.0233,0.01585 -0.003,0.0024 -0.006,0.0024 -0.009,0.0048 -0.007,0.0061 -0.015,0.01896 -0.0223,0.02547 -0.0528,0.04386 -0.10519,0.08953 -0.15094,0.14673 -0.11282,0.141032 -0.31681,0.444964 -0.45356,0.675506 -0.063,0.106198 -0.13573,0.214091 -0.21675,0.322903 -0.23872,0.320638 -0.55255,0.647969 -0.90958,0.958327 -1.8e-4,1.62e-4 -3.1e-4,3.35e-4 -4.8e-4,4.78e-4 -0.0634,0.05456 -0.13587,0.102593 -0.20166,0.15589 -2.8e-4,2.25e-4 -9.6e-4,2.63e-4 -9.6e-4,4.79e-4 -0.19436,0.156364 -0.38738,0.314595 -0.59979,0.457015 -0.28332,0.189973 -0.5808,0.362511 -0.8826,0.515906 -0.0332,0.01657 -0.0687,0.03031 -0.1022,0.04649 -0.24907,0.120998 -0.50752,0.23003 -0.77176,0.331071 -0.0937,0.03586 -0.18739,0.07152 -0.28282,0.104914 -0.12117,0.04218 -0.24779,0.07584 -0.37165,0.11407 -0.19796,0.06118 -0.3934,0.126672 -0.59706,0.177412 -0.0392,0.0098 -0.0794,0.01753 -0.11878,0.02696 -0.14815,0.03534 -0.30087,0.06034 -0.45157,0.09032 -0.22544,0.04453 -0.44924,0.09298 -0.67921,0.125202 -0.13988,0.01992 -0.28247,0.02887 -0.42362,0.04429 -0.28335,0.03012 -0.5671,0.05936 -0.85415,0.07101 -0.012,4.79e-4 -0.0241,9.58e-4 -0.0361,0.0014 -0.0725,0.0029 -0.14517,9.57e-4 -0.21775,0.0029 -0.36427,0.0079 -0.72969,0.0071 -1.09491,-0.01484 -0.0167,-9.57e-4 -0.0333,-0.0029 -0.05,-0.0038 -0.40301,-0.02571 -0.80503,-0.06992 -1.20329,-0.132131 -0.0211,-0.0034 -0.0423,-0.0055 -0.0633,-0.0089 -0.38686,-0.06238 -0.76883,-0.145164 -1.14538,-0.24224 -0.0655,-0.017 -0.13054,-0.03539 -0.19573,-0.05345 -0.36355,-0.100227 -0.72208,-0.213229 -1.06992,-0.346413 -0.0149,-0.0058 -0.0309,-0.01116 -0.0458,-0.01709 -0.17902,-0.06973 -0.35813,-0.147424 -0.5357,-0.234076 -0.18431,-0.08994 -0.36689,-0.188479 -0.5466,-0.294202 -0.1797,-0.105729 -0.35651,-0.218735 -0.52852,-0.337756 -0.17201,-0.119016 -0.33936,-0.24406 -0.50057,-0.373878 -0.16121,-0.129818 -0.31613,-0.264462 -0.46345,-0.402578 -0.14731,-0.138121 -0.2871,-0.279689 -0.41742,-0.423613 -0.13012,-0.143704 -0.25093,-0.289725 -0.36102,-0.436728 -1.7e-4,-2.29e-4 -3.2e-4,-4.78e-4 -4.8e-4,-9.57e-4 -9.5e-4,-9.58e-4 -0.001,-0.0019 -0.002,-0.0029 -0.10935,-0.14627 -0.20824,-0.293374 -0.2947,-0.440439 -0.0668,-0.113567 -0.13461,-0.215666 -0.20339,-0.306081 -0.0208,-0.02729 -0.0421,-0.0463 -0.0631,-0.07151 -0.0182,-0.02231 -0.0362,-0.05634 -0.0544,-0.07695 -0.0131,-0.01479 -0.0265,-0.01973 -0.0396,-0.03366 -0.002,-0.0024 -0.003,-0.0034 -0.005,-0.0057 -0.002,-0.0024 -0.004,-0.0059 -0.006,-0.0081 -0.0173,-0.02145 -0.0226,-0.01977 -0.0388,-0.03883 -0.008,-0.0081 -0.0195,-0.02902 -0.027,-0.03663 -0.0136,-0.01379 -0.0263,-0.01977 -0.0396,-0.03194 -0.0195,-0.01762 -0.0408,-0.04855 -0.0604,-0.06285 -0.002,-0.0014 -0.005,-0.0014 -0.007,-0.0034 -0.0169,-0.01374 -0.0502,-0.05724 -0.0616,-0.06161 -0.0391,-0.01499 -0.0821,-0.02179 -0.12422,-0.03045 -1e-4,-2.4e-5 -1.5e-4,-2.3e-4 -2.5e-4,-2.49e-4 -0.001,-4.79e-4 -0.003,-9.57e-4 -0.004,-0.0019 l 0.0332,-0.0064 -0.0522,-0.0019 c -0.02,-0.0079 -0.0397,-0.01987 -0.0599,-0.026 -0.0563,-0.01705 -0.1129,-0.02701 -0.17049,-0.02969 z"
       style="fill:#333333;stroke-width:0.478821"
       id="path375" />
  </g>
</svg>
